/* XPM */
static char *galst10[] = {
/* columns rows colors chars-per-pixel */
"91 83 233 2 ",
"   c None",
".  c #090703",
"X  c #0D0904",
"o  c #0A0807",
"O  c #110D0B",
"+  c #1C130B",
"@  c #1E180B",
"#  c #080617",
"$  c #181612",
"%  c #241A0D",
"&  c #251D13",
"*  c #2B1D12",
"=  c #2A1B1A",
"-  c #2A220F",
";  c #25200D",
":  c #2E2510",
">  c #2E261C",
",  c #322612",
"<  c #352913",
"1  c #3B2D15",
"2  c #3C2D19",
"3  c #37271B",
"4  c #3F3016",
"5  c #3C301C",
"6  c #060628",
"7  c #0E0B36",
"8  c #221735",
"9  c #251625",
"0  c #3C3424",
"q  c #35332E",
"w  c #402E17",
"e  c #422E18",
"r  c #413117",
"t  c #443319",
"y  c #4A361B",
"u  c #4E391C",
"i  c #533C1E",
"p  c #593C1E",
"a  c #733B14",
"s  c #4B3921",
"d  c #443826",
"f  c #563D21",
"g  c #593E21",
"h  c #543624",
"j  c #603E24",
"k  c #7C421A",
"l  c #63411F",
"z  c #5D4122",
"x  c #54422C",
"c  c #544A3A",
"v  c #554736",
"b  c #4C4436",
"n  c #644525",
"m  c #684726",
"M  c #6B4927",
"N  c #694826",
"B  c #6B4927",
"V  c #6A452A",
"C  c #6E4A28",
"Z  c #6D4A28",
"A  c #64462A",
"S  c #724C2A",
"D  c #754E2B",
"F  c #744D2B",
"G  c #784F2B",
"H  c #784F2C",
"J  c #744A26",
"K  c #76502C",
"L  c #7A502D",
"P  c #7D522E",
"I  c #7B512E",
"U  c #6B4936",
"Y  c #744E31",
"T  c #6C533C",
"R  c #7E5431",
"E  c #78563B",
"W  c #14124D",
"Q  c #271840",
"!  c #362652",
"~  c #4D3E4A",
"^  c #433E5D",
"/  c #59534C",
"(  c #5C5955",
")  c #695B4A",
"_  c #77564C",
"`  c #625B52",
"'  c #704945",
"]  c #6D6453",
"[  c #726358",
"{  c #554A6A",
"}  c #66596A",
"|  c #7A6963",
" . c #82461E",
".. c #894B1F",
"X. c #9C5A1E",
"o. c #A6621F",
"O. c #854921",
"+. c #8B4D24",
"@. c #964D28",
"#. c #81542F",
"$. c #8E552C",
"%. c #8E5127",
"&. c #93542B",
"*. c #96572A",
"=. c #825531",
"-. c #835531",
";. c #885732",
":. c #865833",
">. c #8B5B35",
",. c #845A3C",
"<. c #8B5C38",
"1. c #925D36",
"2. c #935F38",
"3. c #9A5B30",
"4. c #A15D26",
"5. c #B7483E",
"6. c #A6593A",
"7. c #AB4B35",
"8. c #946139",
"9. c #9B653C",
"0. c #9E683E",
"q. c #9B6237",
"w. c #89603E",
"e. c #A36124",
"r. c #A56337",
"t. c #A2663C",
"y. c #A2693E",
"u. c #AE693D",
"i. c #AA6538",
"p. c #B56A3A",
"a. c #BC7135",
"s. c #CA7B38",
"d. c #855E41",
"f. c #9D5942",
"g. c #BE4942",
"h. c #B25644",
"j. c #AD5D4E",
"k. c #8D6342",
"l. c #8C664A",
"z. c #926543",
"x. c #9A6443",
"c. c #9E6943",
"v. c #996B4C",
"b. c #957453",
"n. c #96695C",
"m. c #A46C42",
"M. c #AA6E43",
"N. c #A66D48",
"B. c #B46D41",
"V. c #AC7146",
"C. c #AB734A",
"Z. c #A4724C",
"A. c #B37246",
"S. c #BA7344",
"D. c #B4754A",
"F. c #BA7749",
"G. c #BD7A4C",
"H. c #B97847",
"J. c #A57758",
"K. c #B47B52",
"L. c #BD7D52",
"P. c #B57750",
"I. c #B96854",
"U. c #8E7668",
"Y. c #C25851",
"T. c #C6654B",
"R. c #C37C4D",
"E. c #C97E4E",
"W. c #C27847",
"Q. c #C96753",
"!. c #C37E51",
"~. c #CB7956",
"^. c #BD8258",
"/. c #A8835F",
"(. c #AA8B6A",
"). c #B5886D",
"_. c #D3824A",
"`. c #C58254",
"'. c #CC8354",
"]. c #C4845A",
"[. c #CC8658",
"{. c #CD895B",
"}. c #D18555",
"|. c #D58A5B",
" X c #DA8D5D",
".X c #D58957",
"XX c #DE905F",
"oX c #E9965B",
"OX c #E78F51",
"+X c #FBA15D",
"@X c #CD8C62",
"#X c #D28E61",
"$X c #D98E60",
"%X c #D69063",
"&X c #DD9263",
"*X c #DD9668",
"=X c #D9956A",
"-X c #CF9972",
";X c #E29665",
":X c #E59A6A",
">X c #E99D6D",
",X c #E69968",
"<X c #F19D62",
"1X c #E49E71",
"2X c #D5A27B",
"3X c #EDA06F",
"4X c #FFA862",
"5X c #FBA768",
"6X c #EDA272",
"7X c #EEA578",
"8X c #E7A074",
"9X c #F1A575",
"0X c #F5A876",
"qX c #FEAE70",
"wX c #F1A779",
"eX c #F6AA7B",
"rX c #F9AC7D",
"tX c #FEB177",
"yX c #988D8F",
"uX c #A59588",
"iX c #CFAB8B",
"pX c #F6AE83",
"aX c #F9AF80",
"sX c #F6B285",
"dX c #FAB285",
"fX c #FCB58B",
"gX c #FEB98F",
"hX c #F8B588",
"jX c #FFBB93",
"kX c #F7B993",
"lX c #E4B28F",
"zX c #FAC59D",
"xX c #F8C8A6",
/* pixels */
"                                                                                    - , 1 y z F D C n z i y 1 : -                                                                     ",
"                                                                                  - : < r u z m Z n z i u t 1 , :                                                                     ",
"                                                                                : , 1 r y i i i i u y r 1 1 1 1 < ,                                                                   ",
"                                                              - - - - - - - - - : < r u i g u w < < < , , , 1 r r < : -                                                               ",
"                                                              t t 1 < , , , , , < 1 r y u i t 1 , , , , < 1 t u y 1 < ,                                                               ",
"                                                      S z u i m C z y 1 1 1 1 1 1 1 < < 1 1 1 1 1 1 4 r y u i f i y r r t y                                                           ",
"                                                    L D n i z L >.L z y y y y y t 1 , : : , 1 r t y y u i g z z g i y y y u                                                           ",
"                                                  P ;.=.D m M L =.D n i i i i u y r 1 < < < 1 1 1 1 4 r y u i f g f i i i i i                                                         ",
"                                          L D D D =.>.1.>.R D F C n z z z z f i y t t r t r 1 < , , , , < 1 r u i g z z z g i u y                                                     ",
"                                          S F D P ;.>.>.>.=.H m z z n n z z f i u u u u u u r < , : , : - : < r y i z z z z i i u                                                     ",
"                                      D M n n D ;.;.=.L K F M z i z m M n i i i i i i f f i y r 1 1 1 < : - : < 1 y i i i i i i i i y                                                 ",
"                                    L F n i z D >.>.D n n n z i i z Z C z i i f z z z z z z i u y y t r < : - : < r y u u u i z g i y y                                               ",
"                                    M m z i g D >.;.C z n m n z z n M M z i i z n n n n M n n z g i u t r 1 < < < 1 4 t y u i f i u u i                                               ",
"                                    g g i f z F P L M n M D H F M M n n z z z z n n C F F F F C n z u u u u y t 1 < < 1 t u i i u y u z C L                                           ",
"                                    u u i z n C F S m n F R =.P F M n z n n n n n C D D D D D F M z u u f z i y r < , < r y u u u u i n S L                                           ",
"                                  u u i z C F C M M C F L P P D C n n z n M C F F D L D F C M n z i u u i i y r 1 1 1 1 1 r y i i i g n F G                                           ",
"                                y u i z M L P F n M D R P L D Z n n z n M F L P =.P L F M n z i i u u u u y r < < 1 t 1 < < t f z z z M F D                                           ",
"                                i i z n F P =.D C F R ;.R D Z n z z n m F L P =.=.L S m n z f i i u u y y t 1 < 1 t u r , , r i z z n M F D G                                         ",
"                                g z n C D L P L L P ;.;.L C n n n n M F L #.=.=.P C n p i i g n n g u y t t r r t i i t , : 1 i g z n M D L D D                                       ",
"                                z n M F D L L =.;.;.;.=.D n z z n n F L #.=.=.P F n i y y u z M Z z u u u i u y u z z u 1 , 1 y i z n M F D L L L                                     ",
"                              f z n n C F L #.;.>.>.;.P C z f z z M L #.=.=.L C n i u y u i z n n i y i n C n i i n M n u r 1 4 y z M M C F P ;.;.                                    ",
"                          y u i z n n n C P ;.1.2.1.;.D n i i f z C P ;.=.L S n i u y u i z g i i y u n :.8.L g f M L D n i r < r z C Z n C =.1.8.                                    ",
"                          u i g n n n n F R >.1.1.>.L Z z i u g n C L P L S n i y y u i f z i u y i z R m.D.>.g i C ;.;.L n t , w n F C n C ;.8.8.                                    ",
"                          i g n M C Z C D =.;.>.;.L M z i y u z M C F C n z i u y u i f i i u y u n R m.[.{.z.f t n ;.>.;.F u , 1 z F C n M =.2.>.F                                   ",
"                          z n n S D D D P =.;.=.L Z z i u u i n F F n z f i u u u i z z i u y y z R m.`.&X#Xz.s r n >.8.8.R f < w z F Z n M R >.R C n                                 ",
"                          n n n m Z F G P ;.=.L S n z g z n C L =.L m z i i i i i f g i u y i n R m.`.[.^.Z.,.z z L 8.0.0.>.n r t n F M z n K =.L C n                                 ",
"                          n z z g z M D P ;.=.D M n n Z D =.>.1.1.=.M z z z z z z f i u y u n =.m.[.&X^.,.A V R >.9.m.M.m.8.C u u n F n i g Z L L F F                                 ",
"                          z z i u i n D #.;.=.F n n F L ;.1.8.8.>.P M z z z z z z i y y u z R m.L.|.#XZ.V y n 8.M.A.A.D.A.0.L g i M F n i i n D L D D                                 ",
"                          f i u y i n D ;.>.>.D n n K =.;.>.;.P F n z i i i i i u r < r z R m.`.[.K.z.E C C ;.M.G.G.G.R.G.V.;.n z Z F n i i n D L L L                                 ",
"                          u u y y i n D ;.1.>.L n M R >.;.#.D n g i u u u u u u y 1 < y D m.`.&X@Xk.z z =.y.A.R.E.E.E.'.'.F.>.M n C F n i i n D L D D                                 ",
"                          r r t y i n D ;.8.1.L n F >.0.8.;.K m z z z z z n n m n z z Y c.`.&X>X%Xz.z M c.`..X.X|. X|. X.XR.8.C n F D n i g n D D F F                                 ",
"                          < < 1 t i n D ;.8.1.L n L m.F.V.8.;.P L K K L =.>.2.q.0.c.N.K.{.*X>X>X&XC.<.x.].:X,X,X,X,X,X,X XR.8.C n D P C z z M D F Z M                                 ",
"                          - : 1 t i n D ;.8.1.L n L m.D.m.>.=.:.:.>.>.8.m.V.F.R.'.|.&X:X6X9X9X6X;X[.F.`.*X6X>X*X&X*X*X#X'.A.>.M M L =.D n n C D C n z                                 ",
"                          - : 1 u z M D ;.8.1.L n n F F V g h n F ;.y.D.`.{. X&X,X>X9X0XeXrXeX9X>X&X X&X,X:X{.C.v.z.k.,.R F V n M P =.D n n C D M z f                                 ",
"                          - , 4 i n Z L ;.8.2.P n u 3 & + + % < i L M.!.|.&X:X6X9X9XeXeXeXeXeXeX9X>X,X;X X'.m.F f 2 , & & * e g C P =.D n n C D m g u                                 ",
"                          - , r f n C L ;.2.1.P n e % X . X + < i F 2.M.D.L.@X:XeXeXeXeXeXeXrXeX6X=X].P.M.9.P g 1 % X . X + < g C R =.D n n C F n i t                                 ",
"                          - , r f n C D ;.2.1.L g w * + @ : e z D C g h h A d.].6XeXeXrXrXeXrXeX*XZ.U h h h j n g < % % , e u z C P =.D n n C F z t <                                 ",
"                          - , r f n C L ;.8.>.F i t w 1 r y z R >.V , O . + h C.:X0XeXeXeXeXrX0X@XE * X X + y D K f w y n Z n n M P =.D n n C F g 1 :                                 ",
"                            , t g n F P >.8.>.F i i p p i u g K P g * X . + h N.&X3X9X0XeXeX0X>X].Y * X . + w m C i r i J #.Z z n L =.D n n C F n r -                                 ",
"                              i z n D =.1.q.>.C i p J H l t r u g y < - , t C M.|.,X>X6XeXeX9X;X!.:.i < - : 1 i u 1 1 p H $.J g n D =.D n n C D Z                                     ",
"                                n M H ;.1.8.>.M i z R :.A 3 - : < 2 t s s z L M.'. X;X>X9X9X>X|.F.>.n f s s 5 1 , * > h ,.2.C i g F =.D m n C D G                                     ",
"                                Z F P ;.>.1.=.n t f T _ ~ 8 6 # + > b c x f F 9.G.|.;X>X6X6X;X[.M.=.z x c c 0 & O # 8 ~ U.U.) s y C =.P C Z F D L                                     ",
"                                D H P ;.>.>.L i 1 d ` } ^ W 7 # O > / ` c s n >.D.{.&X>X>X:X XG.0.F u b / ( q $ # 6 W { yXyX] 0 t m =.=.G D D D D                                     ",
"                                F D P ;.>.>.D u < d ) | { ! Q 9 = d / ` c s z =.m.!. X;X,X&X[.D.8.M u x ) [ c 3 = 8 ! } yXuX] 5 w m ;.;.P L D F F                                     ",
"                                m C L ;.>.>.D u , s l.J.n._ ' U C U T U x f n R 9.D.'. X X}.G.m.>.M f A _ l.d.Y V U ' n.).).) 2 1 n ;.>.;.P F M n                                     ",
"                                z n D ;.>.;.H i w A N.{.'.D.M.V.m.9.-.F M M F :.9.D.'..X.X}.G.m.>.L C R 9.V.V.V.M.M.C.!.|.L.R t t m ;.>.;.P C n z                                     ",
"                                i n D ;.;.;.H n n :.L.;X;X X|.|.{.L.V.c.8.>.8.m.A.R..XoXoX&X{.F.V.m.N.C.G.`.{.|.|.|.|.XX,X{.x.V n S =.;.;.P m g i                                     ",
"                                u g S =.;.P L P ;.m.#X6X9X6X8X8X8X:X%X{.!.F.F.!.'. XoX4X5X9X,X.X{.#X*X*X&X&X:X>X8X8X8X9X9X:XK.2.P L L =.;.L n i y                                     ",
"                                y g S =.=.D L >.y.!.*XeXrXaXaXrXeX0X6X,X&X|.}.|.XXoX+X4XqXtX9X;X;X8XrXrX9X6X9XeXrXrXaXdXrX8X{.V.2.P D P =.L n u y                                     ",
"                                y g S =.L C D 2.D.{.:X9XdXfXfXdXrXeXeX9X,X;X&X;X,X<X+X4XqXtX0X>X>XeXfXfXrX9X0XeXaXdXfXfXaX6X&XR.t.R C D =.L n u y                                     ",
"                                y g S =.H m F q.R. X:X9XdXgXgXdXrXeXeX9X6X:X:X:X,X<X+X4XqXtX0X>X>XeXfXfXaXeXeXeXaXfXgXfXdX9X,X'.M.R n F =.L n u t                                     ",
"                                4 u C =.D n F 0.'.;X6XrXfXjXjXfXdXaXrXeX9X6X>X:X,X<X5XqXfXgXsX8X:X7XsXdXaXrXrXdXdXgXjXgXfXeX>X XA.=.n S =.D g t 1                                     ",
"                                , t n =.H n F m..X>XeXfXjXjXjXjXgXdXrXeXeX0X6X;X;X<XqXdXzXxXkX1X;X:XwXeXeXrXdXfXgXjXjXjXgXdX9X&XD.:.n S =.D i < :                                     ",
"                                - r n P D n F c.|.8XsXjXjXjXjXjXjXfXaXeXeXeX>X$X|.&X6XsXzXxXlX=X|.&X6XwXeXaXfXjXjXjXjXjXjXfXwX&XD.=.n C P F i , ;                                     ",
"                                  y C L C z M 9.[.:XsXjXjXjXjXjXjXfXaXeX0X6X&X'.G.].-X2XiXiX-X^.G. X>XeXdXfXjXjXjXjXjXjXjXfX7X$XV.R z n H D g                                         ",
"                                    D D n i n 2.!.;XpXjXjXjXjXjXjXfXaXeX9X>X|.D.m.Z./.(.(.(.J.N.V.[.:XrXfXjXjXjXjXjXjXjXjXhX8X.Xm.F i z F D                                           ",
"                                    L D z y f >.R.;XeXgXjXjXjXjXgXdXrXeX9X:X[.m.8.k.b.b.b.b.v.x.V.~.;XwXsXgXjXgXgXjXjXjXjXpX>X}.y.m y i C L                                           ",
"                                    P F g 1 y ;.R.;X9XdXgXjXjXfXdXaXrXeX6X;X`.0.=.:.w.k.k.k.x.j.I.~.$X:X7XpXaXdXdXgXjXjXfXeX,X}.0.z 1 u Z L                                           ",
"                                    L F g w u =.G.XX>XeXdXgXgXdXeXeXeX9X>X&X!.9.=.=.:.>.>.>.f.j.Q.~.|.&X>X6X9XeXaXfXgXfXaX9X,X}.0.z 1 u m D                                           ",
"                                    C M n f n >.F..X;X6XeXdXdXeX9X6X6X>X,X&X[.V.8.1.1.1.>.1.6.h.Y.~.|.;X:X3X9X9XeXpXpXeX9X>X;X'.M.D g g m C                                           ",
"                                    n n m S =.q.A.`. X:X6XeXeX9X>X:X:X;X;X&X.XR.A.m.y.0.0.0.6.5.g.Q. X;X:X>X6X6X9XwX9X6X:X;X X'.A.2.D M n n                                           ",
"                                    z n M P 1.0.M.G.'.&X>X9X9X>X;X&X&X&X&X&X X'.R.G.A.V.V.M.h.5.g.Q. X;X;X;X:X3X6X9X6X>X;X&X X'.G.t.;.S n z                                           ",
"                                    z n n H   t.m.A.!.|.;X>X>X;X X|.|.|. X&X X|.}.'.'.`.`.!.T.g.Y.Q. X&X X X;X>X6X6X6X>X;X&X|.'.R.A.  M n z                                           ",
"                                    z z z     q.9.M.G.}.&X:X;X X}.'.E.E.'.}..X}.}.}.}.}.}.'.T.g.5.T.~.}.'.'.|.;X>X6X6X>X;X X}.'.E.      z z                                           ",
"                                    g g i     ;.>.q.A.!.|.&X&X|.'.S.u.r.i.u.B.B.S.S.S.S.S.a.p.7.7.6.B.B.u.u.R.|.;X:X:X,X&X|.!.G.S.      g g                                           ",
"                                    i i u     F H >.m.G.'.|. X|.E.u.&. .k O.+.%.&.&.&.*.e.e.4.@.@.@.&.&.+.&.u.R.|. XXX X|.'.F.M.y.      i i                                           ",
"                                    t t t       C P 8.M.G.'.|.}.R.i.+.a a a a k  . . ...X.o.4.*.+.O. . . .%.r.W.'..X|.}.'.R.A.t.9.      t t                                           ",
"                                    1 1 <         D =.2.M.R.}.}.E.S.r.&. .k k  .+.O.+.*.a.s.a.4.%.O. .+.*.r.B.W.'.}.'.!.G.A.M.0.        < 1                                           ",
"                                    : : :           C P q.G.'.'.E.E.W.B.6.+.+.%.&.&.&.i._.OX_.i.&.+.+.3.u.R.E.E.'.'.E.G.A.m.y.          : :                                           ",
"                                      -               D 8.A.R.'.}.}.}.W.u.3.&.*.1.$.&.r.W._.R.t.3.&.*.r.S.'.}.}.'.R.G.D.M.y.            - -                                           ",
"                                                        q.M.F.'.|. X}.R.A.t.q.2.>.;.#.;.q.y.9.8.1.2.t.u.W.'.|. X.XG.A.M.                                                              ",
"                                                          m.A.`. X|.}.E.G.A.m.0.8.>.>.>.>.>.>.8.9.y.M.S.R.'.|. X{.F.M.y.                                                              ",
"                                                            V.F.`.'..X}.'.G.A.M.M.M.C.C.V.V.M.M.M.A.F.R.'.|.'.`.L.D.m.                                                                ",
"                                                              M.A.G..X X}.E.R.R.R.'.|.%X%X#X{.!.R.R.R.'.|. X`.D.V.                                                                    ",
"                                                                m.D.`.{.'.'.}.}.|.&X:X6X7X7X:X X}.}.'.'.{.[.G.V.y.                                                                    ",
"                                                                  m.V.D.!.}. X&X;X,X>XwXhXkXpX:X&X X|.'.F.C.m.                                                                        ",
"                                                                    8.0.D.'. X&X;X;X:X8XsXkXsX8X&X X.XG.m.8.8.                                                                        ",
"                                                                      8.m.D.L.`.].[.[.#X-X2X-X@X`.L.F.V.0.>.                                                                          ",
"                                                                        8.9.9.c.m.V.D.D.K.K.K.V.m.0.9.8.                                                                              ",
"                                                                          ;.>.>.8.9.y.y.y.y.9.8.>.>.;.;.                                                                              ",
"                                                                                                                                                                                      ",
"                                                                                                                                                                                      ",
"                                                                                                                                                                                      "
};
