/* XPM */
static char *galst34[] = {
/* columns rows colors chars-per-pixel */
"91 83 236 2 ",
"   c None",
".  c #0D0A09",
"X  c #1C160B",
"o  c #110D15",
"O  c #260D0B",
"+  c #24190C",
"@  c #391A13",
"#  c #311213",
"$  c #2B230F",
"%  c #27200D",
"&  c #2E2510",
"*  c #2E2811",
"=  c #312611",
"-  c #352913",
";  c #3B2D15",
":  c #392416",
">  c #3F3017",
",  c #0B0730",
"<  c #271E22",
"1  c #310F35",
"2  c #322421",
"3  c #48170D",
"4  c #4A1816",
"5  c #571B17",
"6  c #57130E",
"7  c #671C16",
"8  c #412E16",
"9  c #4B2C1B",
"0  c #472815",
"q  c #532A1A",
"w  c #413017",
"e  c #453319",
"r  c #4A361B",
"t  c #4E391C",
"y  c #533B1E",
"u  c #56361D",
"i  c #66251B",
"p  c #702C1E",
"a  c #6F1D27",
"s  c #573E20",
"d  c #593F21",
"f  c #5F3222",
"g  c #492928",
"h  c #652725",
"j  c #772A27",
"k  c #6B3B24",
"l  c #7A3326",
"z  c #782936",
"x  c #5D4122",
"c  c #624424",
"v  c #654625",
"b  c #634524",
"n  c #684726",
"m  c #694826",
"M  c #6A4927",
"N  c #6B4927",
"B  c #6E4B28",
"V  c #6D4A28",
"C  c #6D4A28",
"Z  c #684727",
"A  c #714C2A",
"S  c #754E2B",
"D  c #764F2C",
"F  c #734D2A",
"G  c #784F2C",
"H  c #704629",
"J  c #76502D",
"K  c #7A502D",
"L  c #7D522F",
"P  c #7B512D",
"I  c #7D5431",
"U  c #755030",
"Y  c #7A4730",
"T  c #100645",
"R  c #2E114A",
"E  c #582147",
"W  c #662742",
"Q  c #431947",
"!  c #882925",
"~  c #893D2B",
"^  c #873529",
"/  c #97372E",
"(  c #8C3C3C",
")  c #923D31",
"_  c #9A3735",
"`  c #902F2B",
"'  c #A83F3A",
"]  c #88482F",
"[  c #80542F",
"{  c #8A4C31",
"}  c #9D4E3D",
"|  c #974835",
" . c #835531",
".. c #8A5534",
"X. c #865933",
"o. c #8B5B35",
"O. c #8C5F3A",
"+. c #8B5639",
"@. c #915D37",
"#. c #95533A",
"$. c #935E38",
"%. c #9B5C3B",
"&. c #975438",
"*. c #A34238",
"=. c #A5493A",
"-. c #A7543D",
";. c #8E613B",
":. c #95613A",
">. c #9B653C",
",. c #99663B",
"<. c #A2653E",
"1. c #A3693F",
"2. c #954546",
"3. c #9D5D41",
"4. c #AC4544",
"5. c #AB4A45",
"6. c #A84B44",
"7. c #B34D4C",
"8. c #B14749",
"9. c #A55542",
"0. c #AE524C",
"q. c #AA5847",
"w. c #B5534C",
"e. c #B25D4D",
"r. c #B75847",
"t. c #B74E50",
"y. c #BA5454",
"u. c #BC5B55",
"i. c #BE5A5A",
"p. c #B95355",
"a. c #8D6947",
"s. c #9C6A43",
"d. c #976945",
"f. c #9E7A59",
"g. c #A56B42",
"h. c #AA6D43",
"j. c #A96644",
"k. c #B56444",
"l. c #BB634D",
"z. c #B46A47",
"x. c #AE7145",
"c. c #AA734A",
"v. c #A57047",
"b. c #B27246",
"n. c #B4754A",
"m. c #BB754B",
"M. c #B5794C",
"N. c #BC7A4C",
"B. c #BC6953",
"V. c #BA6653",
"C. c #BB7D52",
"Z. c #B77751",
"A. c #D2534D",
"S. c #C05B5C",
"D. c #C65148",
"F. c #C1744D",
"G. c #C47C4D",
"H. c #C87D4E",
"J. c #C26554",
"K. c #C56D53",
"L. c #C3635C",
"P. c #C76D58",
"I. c #C67353",
"U. c #CC7555",
"Y. c #C47C52",
"T. c #CB7C53",
"R. c #CB745B",
"E. c #CF7A5A",
"W. c #D17C5C",
"Q. c #D2755F",
"!. c #C1674E",
"~. c #C56461",
"^. c #C96A64",
"/. c #C86762",
"(. c #CE7362",
"). c #D47C65",
"_. c #D47967",
"`. c #E65955",
"'. c #B7845D",
"]. c #A08363",
"[. c #B98C6A",
"{. c #C48154",
"}. c #CD8455",
"|. c #C48559",
" X c #CA8659",
".X c #CC8A5D",
"XX c #D28556",
"oX c #D4845C",
"OX c #D48B5C",
"+X c #DA8E5E",
"@X c #D28857",
"#X c #DC905F",
"$X c #CF8D60",
"%X c #D38E61",
"&X c #DC8D63",
"*X c #D98664",
"=X c #DD9363",
"-X c #DC9669",
";X c #DD9769",
":X c #CD8E77",
">X c #E29565",
",X c #E3966A",
"<X c #E49A6B",
"1X c #EA9D6D",
"2X c #E69866",
"3X c #EB9D73",
"4X c #E89974",
"5X c #E08B76",
"6X c #ECA06F",
"7X c #EDA272",
"8X c #EBA579",
"9X c #F2A574",
"0X c #F4A877",
"qX c #F1A679",
"wX c #F5AA7B",
"eX c #F8AC7D",
"rX c #F5A877",
"tX c #BC9A81",
"yX c #BFA088",
"uX c #D3A084",
"iX c #F5AD82",
"pX c #F9AF81",
"aX c #F3AE8C",
"sX c #FAB286",
"dX c #FCB58B",
"fX c #FEB88E",
"gX c #F6B086",
"hX c #FFBB93",
"jX c #FFBE98",
"kX c #E8B296",
"lX c #E0BAAC",
"zX c #FFC09C",
"xX c #FEC4A8",
"cX c #FBCBB9",
"vX c #E6C0B1",
"bX c #FFD0C3",
/* pixels */
"                                                              + $ = w r r r > = & ; e y N D A v x y t t t r ; = $                                                                     ",
"                                                              - - 8 t y y t e - & - w y v A B v x y r r r e ; = $                                                                     ",
"                                                            n d d c N B N c t ; & & ; r x N N x y r > ; ; ; = $ $ %                                                                   ",
"                                          x c N D L  . . .K D D G  .o.o. .A d ; & $ & ; y x x y r ; = & = = & $ $ $ & - e r                                                           ",
"                                          d x v A K  .o. .L L L  . .X.X.[ A x e = & = ; e y t e ; - & $ & = - - ; - ; ; w e e                                                         ",
"                                          y y x v D X.@.o. .L D A B N N N N x r > ; ; ; ; ; ; - = & $ & ; w e r t t r w ; ; > r w = $                                                 ",
"                                          y y s c A X.$.@.X.L A v x y y d x x y r r r e ; = = = & & & - > r y s x x d r ; = ; e w - & &                                               ",
"                                        V v c v v A L  . . .L D B c s y s x x d y y t r w ; ; ; ; ; ; ; ; w e r y s d y e ; ; ; ; ; ; ;                                               ",
"                                x v B D K K K D A B B B A K L L L A c x x x x x x y t t t y y y y r e ; - = = - ; e t y y t w - ; r t e = $                                           ",
"                                x v V A G K L L K A v c v B D K K A c x x c c x x y y y x v v c x y t w ; = $ $ = ; e y d y e ; ; y s r - &                                           ",
"                                  v N N N n B D L D n x c v N n v x y s c N v x y d c N A D A v x y t e w ; = $ $ = ; e y y t r r y y r > ; = $                                       ",
"                                    c x d y d B L K B c x c x d y t t y v A N d y x V D L I D n x y t r r e ; = $ $ = ; e t y d s y t r r w ; & $                                     ",
"                                    t t r r y v D D B v c x x d s d x c n V n x x c V A K K D N v x x d y y e ; = = - ; e t d x x y r t y t r w w                                     ",
"                                    - ; ; e t x v B A B n c c v N B D D B v v n N N v v N N B B A B N v c d t e w w w e r t d x x y t y s x x c c                                     ",
"                                    & = ; e y x c N A A N v v B D L  .L A v n B A V v c c c N A D D D B v x y t t r r r r t y d y y t y x v B D A                                     ",
"                                  & = ; w t d v B A B N N N B A K K D D A A A B V N N N N N B D D D B v x s y y y y t t r r r e r y y x x v A D v e                                   ",
"                                $ = ; e t s c A L K B v N A D D D A N N D L K B v N A D A A D D D V v x y y y x d y t r r e ; - ; t x x x v A A x ; $                                 ",
"                                = ; e y d c N K  .L A N A G K D A V N B G  .K B v B G K D A D D A n x y t t y x x t e r t r ; & - r x x x v D K v e -                                 ",
"                                ; e t d c N A K L L K K L  .L A N B A K L L K A A D L L A N B D A v y t r t y x s e ; w y t ; & = e y d x N I X.D d r                                 ",
"                                r t y x v B D D K L  . . . .L B v B L  .L G D D G L  .L B v N A B x y r r t y x y ; = w y d e - - w r y x B X.$. .B x                                 ",
"                                r y s x v N A D L  .o.@.o. .L A N D  . .K A B A K [  . .D N N V n x t r r r y y t ; & w c n d e 8 ; w y c D X.@.X.D N                                 ",
"                                r t s x c c N D  .o.$.$.o.[ K D D K  . .D n n A K [  . .K A V v c y t r r r t t e - = r B K A c t ; ; r n K X.o.X.K A                                 ",
"                                t y x c c c N D  .o.@.@. .D B B D K  . .A v v B K [  . .L D B v x y t t y y y t e ; - y D  . .A d ; - r N L o.o.X.L D                                 ",
"                                y x v V B V A K  .X.X. .D c x c N D  . .A c v B K [  . .[ K A v x y t y x c c d y e w d K o.o. .v w = r N [ o.$.o.[ J                                 ",
"                                x c N A D D G L  . .L D v y y d c A I  .A v v B D L  . .L D V c x y t y v B N c s t t c I @.:.o.B e - r N [ @.:.o.L D                                 ",
"                                c c v N B D K  . . .D V c x d x v D  . .A v c N A K  . .D N x y t t y x n B v x y t y N o.>.1.>.K y ; t V L o.@.X.K A                                 ",
"                                c x x d c A K  . .L B v v n N V A K  . .A v x c N D  .L B d r ; ; r y x v v x y r r y B :.h.x.g.X.x r y B L X.o.I B v                                 ",
"                                x d y t x V K  . .L N c N D K J D L  .L B c x x c D  .K c r ; = - r x c x x x d y r t A >.b.b.g.o.v y x A L  . .D v x                                 ",
"                                y y t t d V K X.o. .B c B L  .L K K L D n x s x c D  .D d ; - - w y v v d s v D B y e B g.m.h.o.K v x c A K L L B x y                                 ",
"                                t t r t x V L o.$.X.A v A X.o.[ K K K A c y y s c D  .D y - - > t c B n s d K :.o.d ; Z h.N.1.L n c c n A K K D n y t                                 ",
"                                w e e t x V L o.:.o.A Z I :.>.X.K K L D x r r y c A L A y ; ; r y c V N v B $.x.>.x ; v h.G.g.L V c c V D K K D c t w                                 ",
"                                - ; w r x V L o.:.o.B N o.x.b.:.L [ o. .x ; ; y c A K A y e e y x x c B  .:.x.N.1.c ; v h.G.h.o.K N v B L [ L D x w -                                 ",
"                                $ = ; t x V L o.:.o.B N o.b.b.:.L  .@. .d ; - t c B A B x t y d x c N I >.b.G.G.1.c ; c g.G.m.>. .B v B I  .[ D d ; $                                 ",
"                                $ = w y c B L o.:.o.A v F X.X. .K [ X.J y = - r x v n v x y y y c I d.v.M.N.H.G.<.x ; c g.G.m.<.X.B v A  . .[ D c w                                   ",
"                                $ - e x v A L o.:.o.A x y t y v D D A c e = - t x c c c x x y t Z d.|.OX}.G.G.N.:.d ; v h.G.m.>.X.B v A  . .L D V                                     ",
"                                $ ; t v B D L o.:.o.A d r w r x N v y r w 8 r x B A A B N x y e x v.;X1X>X}.N.g. .x y J b.T.N.g.o.A v B K I L K K                                     ",
"                                $ ; d A K D L o.:.X.N s x v n v x e & $ 8 x F  .o.:.>.o.K c r ; s d.-X9X9X=Xc.U c N I >.G.}.G.b.:.J c v B D K L  .                                    ",
"                                $ ; c I  .K L o.:. .c y N  . .N t & X X r L :.>.g.b.N.x.X.c e - t d.%X9X0X;Xd.s t K g.m.G.G.N.x.:.D c x c N K  . .                                    ",
"                                $ e B  . .L L o.:. .c y c G A d w = + : b o.>.:.>.M.}.N.o.x r y C v.=X9X9X;Xv.v x X.h.h.g.>.:.O.I N x d x n K  .I                                     ",
"                                    K  . .K L o.:. .v t y s y 8 - ; t b  .:.o.K I v.OX{.X.d x K s.{.>X1X>XOXx.X.I o.>.o.A c x x x y y y x N K  .D x t                                 ",
"                                    X. .L G K o.@. .c r w w ; = = w d A  .X.K x x d.|.|.;.B I g.C..XOXOX{.m.1.o. .X. .B d 9 ; ; ; w r y x Z K  .B y e                                 ",
"                                    o. .L A A  .o.G y ; ; w > = * ; r y c c s e t I c.C.c.s.M..X%X{.c.s.O. .J B Z c c k k f @ + X & ; e y c G I n r ;                                 ",
"                                    o. .K N N K  .B r - ; e e ; - = - - - ; - - e N :.b.{.%X<X7X-Xc.I c d y t r e > w f l j 4 . . X = ; r x D I v w &                                 ",
"                                     . .D v v D L n w $ : 0 0 9 9 : < < X X + : q H o.x. X>X6X9X-Xs.v e 0 0 0 q 9 2 < g h h 4 O O + $ - e x D  .Z e $                                 ",
"                                    L K A v v A D c w $ @ 3 5 i h g 1 , o . O 4 j ] %.x.{.OX>X>X X:.x 0 3 3 7 j h 1 , , # # 4 5 4 @ $ = e d A  .G                                     ",
"                                    K D B c c B A c r : 3 6 7 ! _ W R T , . # i ` =.j.M.{.XX+X+X{.:.x 0 3 6 p ` z Q T , o O 5 j j q - ; e d A  .o.                                    ",
"                                    K D N x x n A V c d f p ~ -.r.2.E 1 1 # 5 l } k.C. X@XOX>X>X.Xs.A u q i ^ | ( W 1 1 # 4 l | | l q 9 r d A  .o.                                    ",
"                                    K D v s y c A L  .X...$.j.T.*XV.( a a j ^ | j.Y.OX=X>X>X1X9X;XZ.O.F n k { %.} ( z a a j | k.-.) j i u d A  .o.                                    ",
"                                    A A c y y x D X.>.h.n.M. X<X7X*Xr.*._ *.-.k.M..X>X1X1X1X9XeX8X$Xc.:.o.o.>.h.z.-.=.*.*.=.k.N.k.*.! p u y A  .o.                                    ",
"                                x c N v x y y x D :.n. XOXOX;XqXiX3XoXU.K.K.U.}.OX=X<X1X7X9XwXsXiX<X.X'.C.M.M.N.G.T.E.U.I.I.T.H.k./ ! i u y A  .o.                                    ",
"                                x x c x d y y x D >.{.>X1X1XqXsXdXiX8X<X,X>X>X>X<X<X<X1X9XwXsXdXdXqX<X>X=X=XOXXXOX>X7X3X<X=X+X}.k./ j i u x A  .o.                                    ",
"                                x x x d y y y c D s..X7XwXwXsXdXhXfXsXwXwX9X7X7X1X1X1X7XwXsXdXhXdXwX7X1X7X7X1X<X1XwXsXsXwX8X<XOXm.| ^ f u x B L  .                                    ",
"                                    y y y y x v D s.$XqXsXdXdXhXhXhXfXdXpXwX9X9X7X1X1X7XiXdXhXhXdXwX3X1X9XwXwXiXgXdXfXfXdXiX7X=XY.<.{ H c c B K L                                     ",
"                                    e r y x v n K s.%XwXdXfXhXhXhXhXhXhXsXeXwX9X7X1X<X7XiXhXzXzXhXiX1X1X7XwXsXfXhXhXhXjXhXdX8X&XY.g.o.J v v B D K                                     ",
"                                    - ; r x V B K s.$XwXdXhXjXjXhXjXjXhXdXeXwX9X7X<X>X1XwXfXxXcXxXaX<X2X7XwXsXhXjXjXjXjXjXdX4X).B.j.;.J Z c B D J                                     ",
"                                    $ = r v D D K s..X8XsXdXhXhXhXhXhXfXsXwXwX9X7X>X=X>X7XsXxXbXcXkX;X=X<X9XpXdXhXhXhXjXjXaX5X^.e.3.o.J v c B D G                                     ",
"                                      = r n D A D ,.|.7XeXsXdXhXhXhXfXdXpXwX9X9X7X=X}..X-X8XkXvXlXuX.X@X>X9XwXdXfXhXhXhXhXiX5Xi.9.+.I A N n V A A                                     ",
"                                        d A D N B ;.|.1X0XwXsXdXhXfXsXpXqX7X7X9X1XOXM.M.'.[.[.yXtX[.M.Y.=X7XwXpXsXfXhXhXdXqX_.y.} Y N Z B B N N v                                     ",
"                                          D A v c X.C.<X1X7XqXsXdXdXpXwX7X1X1X7X<X|.g.s.f.f.].].f.d.>.n.%X7XwXwXpXdXdXsXwX4X(.w.| H x c A A v x x                                     ",
"                                          K A c x I M.+X>X=X<XwXsXsXeXwX6X<X<X1X=XC.:.X.a.a.a.a.a.+.| q.oX7XwX0XwXwXwX3X5X*XR.l.9.G x v A A c d y                                     ",
"                                          K A x y F h.}.XXXX+X3XwXsXeX0X1X>X>X>X%Xn.o.L  .O.O.O...~ ` -.W.7X0X9X7X6X<X*X(.P.P.F.F.    V D B x y t                                     ",
"                                          K B y r N <.G.T.T.oX&X4X3X3X4X,X=X=X=X@XM.,.o.$.:.:.:.&.| / 5.W.1X3X<X,X&XoXR.L.i.B.m.G.      D N y e w                                     ",
"                                          K V t ; x >.G.W.E.(._._._._.).*X+X+X@X XG.M.M.M.m.N.N.z.q.4.r.W.=X&X).(.P.J.S.i.u.z.j.h.      G n t ; =                                     ",
"                                          J N r ; x >.Y.W.^.^.~.L.S.S.L.E.oXXX{.G.Y.}.}.}.}.}.}.T.l.w.u.U.oXE.L.u.w.7.y.u.u.q.:.:.      D v r = $                                     ",
"                                          B n d y A 1.T.E.^.~.S.i.p.p.p.J.R.Y.n.x.b.M.N.M.M.N.{.m.q.=.5.l.K.B.e.0.0.7.y.J.B.j.$.        B c r &                                       ",
"                                          v v n A o.b.T.R.L.S.i.i.p.7.7.u.L.V.j.:.:.>.>.>.>.1.g.<.| ` / 4.r.q.3.9.e.u.J.P.Y.m.          v c y                                         ",
"                                          x v A  .>.b.F.K.J.L.L.L.u.w.w.y.i.e.#.{ { ....&.%.%.%.&.~ ! ` ' 5.9.%.3.e.u.J.F.G.            x x                                           ",
"                                          x c B  .:.<.j.z.K.R.W.).R.l.l.u.S.0.| ^ ^ ~ | r.D.r.=.| ~ ^ ] } 9.9.-.9.0.w.e.j.h.            x c                                           ",
"                                          x x c     o.$.j.F.XX&X=XOXY.F.P.L.7._ ! ! ` ' A.`.A.' ) ] { @.<.j.q.5.5.8.8.9.%.:.            x x                                           ",
"                                          x x         o.j.F.E.%X>X=XOX}.R.~.t._ ` ! ` *.D.A.D.*.| { @.,.x.n.l.w.7.8.4.6.&.o.            x x                                           ",
"                                          y y           e.B.R.oX=X=X=X%X)./.p.4._ ) ] ] &.-.} &...$.>.x.N.Y.I.u.y.7.8.5.                y y                                           ",
"                                          r r             i.L.R.oX=X>X&X)./.i.7.5.} ..X.o.o.$.:.>.g.b.N. XXXR.L.p.7.5.5.                r r                                           ",
"                                          ; ; ;             L.P.R.W.OX*X)./.S.t.7.q.j.g.v.c.M.C.|. X.XOXOXXXP.u.w.6.} }               ; ; ;                                           ",
"                                          = =                 L.L.P.Y.Y.R.~.i.t.7.l.Y. XOX%X=X<X6X7X7X<X+XT.!.w.5.} &...                = =                                           ",
"                                          $ $                   i.V.m.m.K.L.i.7.7.J.oX>X1X7X9X0XwX0X7X>X@XF.k.9.} #.X.                  $ $                                           ",
"                                                                  z.h.b.B.L.S.7.w.K.&X1X9X9X0X9X7X1X>X@XN.x.<.&.#...                                                                  ",
"                                                                    1.h.V.L.S.7.w.K.&X1X9X9X9X1X>X+X}.G.b.1.:.o...                                                                    ",
"                                                                      j.V.L.i.7.7.J.oX>X1X1X<X>XOX{.N.b.h.1.:.X.                                                                      ",
"                                                                              8.7.l.T.OX#X=X+XOX{.N.x.h.                                                                              ",
"                                                                              4.7.r.F.}.@XOXXX}.G.b.g.1.                                                                              ",
"                                                                                                                                                                                      ",
"                                                                                                                                                                                      ",
"                                                                                                                                                                                      "
};
