/* XPM */
static char *galst43[] = {
/* columns rows colors chars-per-pixel */
"91 83 245 2 ",
"   c None",
".  c #160F0C",
"X  c #221D0C",
"o  c #2E0F09",
"O  c #26210E",
"+  c #2A220F",
"@  c #2E2510",
"#  c #312711",
"$  c #352913",
"%  c #3B2D15",
"&  c #3B2817",
"*  c #3E3017",
"=  c #3E3218",
"-  c #0E0C2B",
";  c #2F1330",
":  c #372230",
">  c #49190D",
",  c #55190C",
"<  c #4F150E",
"1  c #76150C",
"2  c #791818",
"3  c #6C110B",
"4  c #462916",
"5  c #572919",
"6  c #413017",
"7  c #453319",
"8  c #4A361B",
"9  c #4E391C",
"0  c #53331B",
"q  c #533C1E",
"w  c #5A341C",
"e  c #4B220F",
"r  c #652718",
"t  c #77261A",
"y  c #76361D",
"u  c #68341D",
"i  c #63192F",
"p  c #573E20",
"a  c #593F20",
"s  c #583726",
"d  c #472F25",
"f  c #692A20",
"g  c #7A2A22",
"h  c #673824",
"j  c #793728",
"k  c #74313A",
"l  c #410134",
"z  c #5D4122",
"x  c #554021",
"c  c #664625",
"v  c #634524",
"b  c #684726",
"n  c #684626",
"m  c #6A4827",
"M  c #6B4927",
"N  c #6E4A28",
"B  c #6D4A28",
"V  c #674727",
"C  c #724C2A",
"Z  c #754E2B",
"A  c #744D2B",
"S  c #784E2C",
"D  c #74472A",
"F  c #75512D",
"G  c #7A502D",
"H  c #7D522E",
"J  c #7B512E",
"K  c #7F4C33",
"L  c #7E5430",
"P  c #7B5633",
"I  c #130846",
"U  c #2C1149",
"Y  c #481B4A",
"T  c #672545",
"R  c #432140",
"E  c #8B0A08",
"W  c #940807",
"Q  c #86130C",
"!  c #94150A",
"~  c #861A19",
"^  c #951B1B",
"/  c #961615",
"(  c #910618",
")  c #A80806",
"_  c #B50907",
"`  c #A6180E",
"'  c #A71512",
"]  c #B6130A",
"[  c #8A291C",
"{  c #97261B",
"}  c #95321C",
"|  c #A92617",
" . c #B3221A",
".. c #8B2323",
"X. c #8D2B2A",
"o. c #852525",
"O. c #972927",
"+. c #873429",
"@. c #93332A",
"#. c #973828",
"$. c #8A3B34",
"%. c #9A3434",
"&. c #993835",
"*. c #9A2D30",
"=. c #A22B2B",
"-. c #A73428",
";. c #A33C3B",
":. c #A63837",
">. c #B3382C",
",. c #9D4C1F",
"<. c #85472B",
"1. c #964626",
"2. c #81532F",
"3. c #894C34",
"4. c #984736",
"5. c #825430",
"6. c #835531",
"7. c #895634",
"8. c #865934",
"9. c #8C5B35",
"0. c #8B5A3A",
"q. c #915D37",
"w. c #935E39",
"e. c #965438",
"r. c #A5473A",
"t. c #B74B37",
"y. c #A9573A",
"u. c #A85132",
"i. c #8E613A",
"p. c #956239",
"a. c #9A643C",
"s. c #9C683D",
"d. c #A36A3F",
"f. c #A3653E",
"g. c #A6551F",
"h. c #C6593B",
"j. c #923946",
"k. c #AA3E41",
"l. c #9B5642",
"z. c #924A42",
"x. c #A44242",
"c. c #AA4343",
"v. c #AA4B45",
"b. c #B24C4B",
"n. c #B14A46",
"m. c #A35C43",
"M. c #AB5648",
"N. c #B5544C",
"B. c #BA5B4C",
"V. c #B45848",
"C. c #BB5455",
"Z. c #BC5B54",
"A. c #B85855",
"S. c #B25651",
"D. c #986747",
"F. c #967351",
"G. c #AB6344",
"H. c #A56B41",
"J. c #AC6D44",
"K. c #A76347",
"L. c #B26D45",
"P. c #BB6B4B",
"I. c #B66449",
"U. c #AC7245",
"Y. c #AC744A",
"T. c #B47447",
"R. c #B4754A",
"E. c #BB754B",
"W. c #BC7A4D",
"Q. c #B6774C",
"!. c #BB6154",
"~. c #BB6557",
"^. c #BA7C51",
"/. c #C25D5C",
"(. c #CC5149",
"). c #C16C4D",
"_. c #C56544",
"`. c #C37C4D",
"'. c #C6734D",
"]. c #C36B55",
"[. c #C3635A",
"{. c #C56B5A",
"}. c #C76B58",
"|. c #C47453",
" X c #C97355",
".X c #C47C51",
"XX c #CA7C52",
"oX c #CC755A",
"OX c #CD7C5A",
"+X c #D17D5B",
"@X c #D27E57",
"#X c #C55F60",
"$X c #CB6868",
"%X c #CD7469",
"&X c #D97C7B",
"*X c #D3746B",
"=X c #E75951",
"-X c #B98056",
";X c #A08261",
":X c #BC9471",
">X c #C48153",
",X c #CB8354",
"<X c #C9875A",
"1X c #D3855A",
"2X c #D58B5B",
"3X c #DA8D5D",
"4X c #D48855",
"5X c #DB905E",
"6X c #E6945B",
"7X c #F49D5E",
"8X c #F8A05D",
"9X c #D88864",
"0X c #D59162",
"qX c #DC9262",
"wX c #DE956D",
"eX c #CE9176",
"rX c #E19565",
"tX c #E59A6A",
"yX c #EA9E6D",
"uX c #E69867",
"iX c #E7936E",
"pX c #EBA06F",
"aX c #FAA667",
"sX c #EDA272",
"dX c #E8A378",
"fX c #F2A575",
"gX c #F5A97B",
"hX c #F9AD7D",
"jX c #F3A778",
"kX c #FFB478",
"lX c #E48D88",
"zX c #EB9788",
"xX c #EF9F96",
"cX c #F6AB86",
"vX c #FBB283",
"bX c #FBB48C",
"nX c #FAB78A",
"mX c #F5A893",
"MX c #FCB592",
"NX c #FDB797",
"BX c #E8B893",
"VX c #F9AFA3",
"CX c #DB9685",
"ZX c #FFC394",
"AX c #FDCAA5",
/* pixels */
"                                                          O @ % 7 8 8 7 % @ + + +       8 8 q z v C A A m z 7 # +                                                                     ",
"                                                        % $ % 8 q q q 8 % # @ @ @ @     9 9 q z v n M m v a 7 $ @                                                                     ",
"                                                      N z a a v N N v a 8 % $ % % % 7 q q q p p q q q q p q 8 % % 7                                                                   ",
"                                    z v v C G 5.6.5.H A Z S L 8.9.6.S n a 8 7 7 7 7 8 q p z a q 8 6 % % 7 9 8 8 7 8 8 % # +                                                           ",
"                                      v v N A 5.9.7.2.H H H 5.8.7.5.G M z q 9 9 8 7 7 7 9 q 9 7 6 % # $ % 7 7 7 7 7 7 % $ $ $                                                         ",
"                                        v v N 5.q.q.7.5.G C N M m m m v v z q q 8 6 % $ % % % % % % % % $ $ $ $ $ $ $ % % 6 7 8                                                       ",
"                                          v N 5.q.w.9.5.A n z p q p z v v z a q 8 % # @ @ @ @ @ # % 7 6 $ # @ # @ @ # % 7 8 8 8 8                                                     ",
"                                        C N Z 5.9.7.L Z N m v v v z z z z z z q 8 * % $ $ $ # + @ $ % 6 6 * % % % % % % % 7 8 q 9 %                                                   ",
"                                z v N A H H 5.5.H G N m m N A S Z N v z z z z q 8 7 7 7 7 6 % # + + # % 8 q q q q q q 7 % % 8 q 9 % +                                                 ",
"                                z v m C Z G H H G C m v N A H 5.5.G M v z z a q q q q q q 9 7 $ # @ # % 8 p z z z z z 9 % % 8 p q * $ $                                               ",
"                                  v v m v v m A H G C N A H 5.5.2.G C m z q q z v m N m v q 8 6 % % % % 6 7 9 q p p q q 8 8 9 q q 8 7 7 8                                             ",
"                                    v v z q a N L 5.G A H 5.5.H G A A N z q q v C G H G N z q 9 8 8 8 6 $ $ % 8 9 9 9 q p a q 9 q q a q 9 8                                           ",
"                                    N m v z z n Z H H H 5.5.H Z C N C M v z z n C S G G C v v z a q q 8 % $ $ % 7 7 8 q z z q 9 q z v z a q 7                                         ",
"                                G G H G A N n n m C H 5.5.H A N v v v v n m m v v m m N N C C N m v z q 8 * % $ % 6 8 q z z q 9 q a v v n z 7 @                                       ",
"                              N C G H 5.5.G A m v N H 6.5.G C m v v v v N C N n v v v v N A A A C v z a q 8 % $ $ % 7 q a z q 9 q a v N C v 8 $ @                                     ",
"                            q z m C G 5.5.5.H C N C H 6.5.G C v v v N C C N m m m m m N C A A C m v a q q q 8 % % % % 7 q q q 8 q a v N A M q 7 %                                     ",
"                          8 9 q z m C G H 5.5.G A G 5.6.5.G C v v N G H C v v N C A A A A A C n z p q q a z q 8 6 $ # % 7 9 9 8 q a v M A C v a q                                     ",
"                          8 9 q z v m C G 5.6.H G H 6.7.5.A N m m C G G C n m A G S A C A A M v p q 9 q z z q 8 * $ $ $ % 7 8 9 q z v m N C m v v                                     ",
"                          8 9 q z v v m A 5.6.H G 2.9.9.5.N m C Z Z C N N N A H H Z M m C A m z q 8 8 q z z 9 % % % % % $ % 8 q z z z v v m N N m v z                                 ",
"                          8 9 q z v z v C 5.6.H G 5.q.w.5.m n Z 5.G m v m A H 5.5.Z n v N C v q 8 8 8 q z a 7 $ # * 7 * # $ 7 a z z z z z v N A C v v                                 ",
"                          q q z v v v v C 6.9.5.G 5.q.p.L V v G 6.G v v m A H 6.6.G N m M M v q 8 8 8 9 q q 6 # # 6 9 6 # # 6 q z z z z a z C G Z N m                                 ",
"                          z z v N N v v Z 9.q.8.H 5.q.p.L m v S 5.G n v m A H 6.6.H A N m v z q 8 8 8 9 9 8 % # $ 8 p 8 $ @ % 9 q z z p q z C 5.H A C                                 ",
"                          z v M A A n v Z 9.q.6.G H 9.q.5.N m A H Z m v N G H 5.5.H A N v z p q q q 9 9 8 8 % $ & 0 w 0 6 % % 7 9 a z q 9 a C 5.5.H A                                 ",
"                          z v N H G M v C 6.9.H N A 6.9.5.C M N C N N C Z H 5.5.H G C v z q a v v z a q 9 7 6 * 4 r t r w 8 * % 7 q z q 9 a C 5.5.H G                                 ",
"                          z v C 5.H N v N 5.5.C v N H 6.2.G C m v m C S H 6.5.H A M v z q q z m N n z p q 9 8 8 5 1 E Q y z 7 $ % q z q 9 a C 5.5.G A                                 ",
"                          z v C 5.L N v N H 5.C v V F L 5.H A m v v C G 5.6.5.A v z q 9 9 q z m N v a q w w 0 0 r Q W ! +.M q % 6 q v a q a Z 7.6.Z C                                 ",
"                          z v C 5.L N v N H 5.C v v C G 5.5.H N v v C G 5.6.G v q 7 % % 8 a v v v z q w r t w 0 r ! _ ` 1.G z 8 9 v M z q z G 9.6.C v                                 ",
"                          z v C 5.L C v C 5.5.C v c D <.2.6.H m v v N Z 5.6.Z z 7 % # % 9 z v z z z a h g g r 0 r ! _  .1.8.B q a m C v q z H q.6.M z                                 ",
"                          q z N L 5.A N G 9.9.F v y [ { #.2.F V z z v C H 5.C q % $ % 7 a n v p p V Z <.+.o.r 4 e E ) | u.p.F z z N C v q z G 9.L v q                                 ",
"                          8 q n H 5.G A 5.q.9.F v y ` ] | <.N z q q z n G 5.N 8 $ $ 7 q v N v q z L s.y.4.X.r 4 > 3 W | u.s.P v v N C v q z G 9.G z 9                                 ",
"                          8 q v G 5.H H 7.p.q.P v y ` _ ` } y w 7 8 p v Z H N 8 $ % 8 a v N m v A s.W.P.r.@.t e < 3 Q -.y.H.8.m v N C v p z G 9.Z q 7                                 ",
"                          8 q v A H 5.5.9.p.q.J v y ~ / ' ` ! r & = p v A G m q 7 8 q z v m A 5.s.^.0X+XV.&.[ 1 3 2 ..r.P.T.i.M v N C v z V 5.9.C 8 $                                 ",
"                          7 9 z C G 5.6.q.a.q.G v h g ~ ' _ ) 3 & = 9 v M C n a 9 q z z z v L s.W.0XtX9XB.:.^ E E ^ *.y.'.E.p.M v N A m v N 8.9.C 7 @                                 ",
"                          % 7 q M G 5.7.q.a.q.G v h g ..' ) W 3 4 = 7 8 z v v a q a z z q z 8.Q.2XrXqX+XV.:.^ W E ^ %.V.'.W.p.M v C G C v m H 8.C 8                                   ",
"                          @ % q m H 5.8.q.a.q.G v h +.O./ W E t q 7 % % 9 z v z z z z z q a 0.<XtXrX1X).r.*./ E E O.;.B. XW.p.N n S 5.A v v C H A                                     ",
"                          O # 8 m G 5.6.9.a.q.F v h +.*.^ E Q y c x 7 7 p m C C C M v q 7 9 0.<XyXqXXXI.:.O./ ! ^ =.c.!.XXW.p.N m G 5.Z v v N A G                                     ",
"                          O # 8 m G H H 9.p.9.C z h $.%.O.~ [ j S F m M G 9.p.s.p.5.M q % = P <XtX0XW.y.O./ / O.=.c.C.}.@X`.p.N m G 5.Z v v M A G                                     ",
"                          + # 9 m G G G 7.p.9.N p h $.:.*...o.<.9.9.9.9.p.d.U.E.T.p.N q % * P -XrX3XE.u.{ E ^ =.c.b.C.].|.T.9.M n G 5.Z v v N A A                                     ",
"                            $ q M A A G 8.p.9.N q h $.;.:.*.&.e.s.s.p.p.i.p.H.`.`.a.m q 9 z i.<XtX5X`.y.{ / O.:.c.k.r.r.e.5.N z v G 5.Z v v N A C                                     ",
"                              v C A A G 8.p.9.N q h $.x.k.;.r.m.H.s.a.9.G C 9.T.W.p.v p N q.Q.qXyXqXXXy.#.O.*.;.:.=.^ 2 e & * 9 v G 5.Z v v N A m a 8                                 ",
"                                G S A A 6.w.9.M q h +.:.;.r.x.y.f.a.9.H V z P U.`.s.A A p.W.2XtXtX3X`.f.&.X.@.%.=./ E 3 o . X 7 z Z 5.Z v v N C v q 7                                 ",
"                                2.G C N H q.9.v 7 r {  .O.j j $.1.<.D v z z L U.,XW.H.Y.>X0XrXrX3XW.s.6.j f g X.O.) ) 1 o X X % q C 5.Z v v C C z 8 %                                 ",
"                                6.H N m G q.9.z % , W _ Q 5 4 r g t 0 8 9 z L J.,X2X2XqXyXsXyX3X.Xs.F z 0 0 r t / _ _ E , # @ # 8 N 5.Z v v N C a % @                                 ",
"                                7.5.C m G 9.6.x $ < W ) 1 e 4 r 2 f : : & 7 n e.).1XuXsXjXfXtX1XT.8.z 7 4 e 5 t ~ ( ( 3 > X X + 7 N 5.Z v v N C v 6 +                                 ",
"                                7.5.Z C H 9.H q # > 2 ^ t 4 0 g o.i ; - - X 4 j r. XrXsXfXyXqX>XH.G q 4 > < r o.o.i l ; . . . X 7 N 5.C z a m A M                                     ",
"                                6.5.H S H 6.G z 7 5 g X.j s h +.@.T U I - . o r &.I.9XyXyXrX2XW.s.N 9 4 < , t @.k Y I - . . X # 9 C L N q q v C A                                     ",
"                                7.6.H G H 6.5.L Z K 3.4.<.j $.&.&.k R ; - X & f 4.I.1XqXqX3X>XU.9.M q 0 u g @.&.j.T Y : d 7 8 q v G 5.N q q z m C                                     ",
"                                6.6.H G G 5.9.H.T.T.J.G.y.4.x.c.x.$.h s d 9 a D q.J.XX2X2X,XW.d.9.N z n 2.e.y.c.k.j.j.z.0.0.8.L 5.6.5.M q 9 a v v                                     ",
"                              H 5.2.G A A H q.Q.2X3X,X.XP.N.b.C.A.M.w.8.J G 5.i.d.T.,X4X3X4X`.U.a.8.8.i.U.E.P.N.b.C.C.].|.W.T.H.a.9.5.n q 9 p z v                                     ",
"                            v C G G C M M A q.^.rXyXtX0XoX/./.$X%X%X<X-XU.d.d.T.W.,X3X6X6X6X4X`.W.^.-X<X0X0XoX[./.$X*X9XwXqX2XW.U.a.5.n q 9 p z v                                     ",
"                          z v M A C m v v C 9.^.tXfXgXsX9X$X$X&XlXzXdXyX3X,XXX,X1X0XuXuXaX8X6X3X3XwXsXsXjXsX9X$X$X&XlXzXjXsXtX1XW.s.5.n q 9 q z z                                     ",
"                            v N A C v z z M 9.R.0XfXhXcXzXlXlXzXmXmXcXgXyXrX3X3X3XrXuXaXaXaX7X6XqXyXgXhXhXgXiX&X&XlXxXmXbXcXsX3X`.f.5.n q 9 q p a                                     ",
"                              A A N z q a M 8.J.1XyXcXbXmXxXxXmXMXbXcXgXjXfXtXqX3X6X7XaXaXaXpXrXqXtXfXgXhXgXzXlXzXmXMXMXMXvXsX2XE.s.5.n q 8 9 9 q                                     ",
"                                C n a q a M 6.d.>XqXjXbXNXVXVXNXMXnXcXgXgXjXyXqX3X6X8XaXkXvXfXqX3XrXyXfXjXgXcXxXmXMXMXNXMXcXtX,XL.a.5.n q 8 8 8 8                                     ",
"                                v z a q z M 6.d.`.5XyXgXbXNXNXMXvXvXhXgXfXsXtXqX5XuXaXkXZXZXnXtX3XqXtXyXfXjXcXcXmXMXNXMXvXdX9X].m.e.H m z q 9 8 8                                     ",
"                                q q a z v C 6.H..X2XqXtXgXbXMXbXhXhXgXfXpXuXqX3X3XuXjXnXAXAXBXwX3X3XrXtXyXfXjXgXcXbXbXcXsX9X}.N.r.3.S m v a q 8 8                                     ",
"                                8 q z v M C 6.K.|.+X3XrXsXvXnXvXhXgXfXsXtXrX3X,X,X0XdXcXBXBXCX0X,X1XqXtXyXfXfXgXgXgXdXwXOX).B.N.v.3.A m v a 9 7 6                                     ",
"                                    m C C A 5.l.!.oX1XrXsXhXvXvXhXfXyXtXuXqX1XW.T.-X:X:X:X:X:XQ.T.>X0XtXpXfXfXfXsXtX0XE.y.r.n.C.M.0.Z m v p 7 $ #                                     ",
"                                    A A A A 2.l.S.}.9XrXyXfXjXjXfXpXtXqXrXqX,XL.a.D.F.;X;X;XF.D.J..X3XtXyXsXsXsXtX2XW.y.@.X.c.Z.S.0.A m v p 6 # +                                     ",
"                                    G A C N S z.C.}.9XqXrXiXiXrXqXqXqXqXqX3X'.u.#.3.D.F.F.D.D.K.I..X3XrXrXrXrXqX2XOXP.r.X.X.k.Z.S.7.N m m v 8 @                                       ",
"                                    G A N v D e.S.}.9XqX9X*X%XOX,X,X2X3X0X2X_.-./ } 7.0.i.0.l.S.~.oX2X3X0X3X1X,X.X].Z.c.%.%.c.C.M.K v m C N                                           ",
"                                    G A m z n 3.M.].1X9X+X[.[.~.|..X,X2X3X2X_.>.' O.e.p.q.e.l.M.Z. X1X2X2X2X,X.XP.V.v.k.;.;.v.M.l.D z v C G                                           ",
"                                    S A n z v K m.P.,X1X XZ.C.Z.].|..X,X2X2X'.t.>.t.L.R.m.v.x.x.n.P.XX4X2X2XOX].V.r.%.%.c.v.M.l.3.n a v C G                                           ",
"                                    G A v q p A w.J.`.XX).N.b.Z.[.{.|.`.,X1X'.V.n.B.XX.XI.v.;.%.;.y.E..X1X1XoX[.b.%.X.%.v.N.m.0.Z a q z C G                                           ",
"                                    G A v 8 7 v 9.f.I.I.B.N.C.[.}.{.|.)._.h.t.r.;.r.V.I.y.u.&.*.@.4.y.I.|.oX}.Z.b.;.%.r.M.S.K.7.v 8 7 q N G                                           ",
"                                    H C z 6 $ 6     r.r.n.C.[.}. X X].B.>.| | ..X.X.@.#.1.,.1.@.X.X.@.r.N.[.Z.b.b.b.b.M.G.G.J.    $ % q M G                                           ",
"                                    A C a % +       %.:.n./.oXOXXX|.!.n.=.W W Q ~ ~ ~ [ ,.g.,.@...~ ~ X.c.C.C.b.b.C.Z.I.K.s.      X $ 9 n A                                           ",
"                                    M m z 7         c.v.B.}.+X1X1X|.N.:./ W E ~ ......*.t.h.t.-...2 2 o.;.b.C.C.A.!.I.K.a.p.        $ q v m                                           ",
"                                    v v z           C.Z.].XX1X3X3X].v.*./ E E ^ @.@.@.:.(.=X(.:.X.2 2 o.%.n.C./.~.I.H.a.q.9.          z v v                                           ",
"                                    z z v             [.}. XOX3X3X Xn.:.O.^ ^ @.&.$.$.r.(.(.(.r.@.+.o.X.&.n.C.$X~.K.s.p.9.6.            z z                                           ",
"                                    z z v               [.[.}.+X1XoX!.b.k.:.&.4.3.3.<.3.e.y.e.e.3.e.e.4.v.n.C.#X~.K.q.9.                v z                                           ",
"                                    z z z                 Z.[.|.XX X{./.C.n.v.e.w.9.9.9.9.9.9.q.a.d.J.G.M.n.C./.~.m.9.6.                z z                                           ",
"                                    p p p                   !.L.J.P.{.$XC.b.M.G.U.U.Y.Y.Y.Y.U.U.U.T.W.P.N.n.N.!.I.D.9.                  p p                                           ",
"                                    9 9 9                     w.w.K.~.#XC.n.V.P.`.,X2X0X0X0X2X.X`.`.`.P.N.v.M.G.H.                      9 9                                           ",
"                                    7 7 7                       7.l.S.Z.N.M.V.P.`.4X3X0XqX0X1X,X`.`.E.L.M.v.m.f.d.                      7 7                                           ",
"                                    $ $ $                         w.l.m.m.m.G.L.T.W.W.>X>X>XW.E.T.U.H.f.e.e.e.                        $ $ $                                           ",
"                                    @ @ @                           7.9.a.d.H.H.H.H.H.H.H.H.H.H.d.a.p.9.9.7.7.                          @ @                                           ",
"                                      +                               7.p.d.s.a.p.p.p.p.p.p.p.p.p.p.9.9.8.8.                            + +                                           ",
"                                                                              9.9.9.9.9.9.9.9.9.9.9.                                                                                  ",
"                                                                              6.6.6.6.6.6.6.6.6.6.                                                                                    ",
"                                                                                                                                                                                      ",
"                                                                                                                                                                                      ",
"                                                                                                                                                                                      "
};
