/* XPM */
static char *slime02[] = {
/* columns rows colors chars-per-pixel */
"64 64 11 1 ",
"  c gray3",
". c #081000",
"X c #4A9C39",
"o c #428C31",
"O c #397B29",
"+ c #316B29",
"@ c #296321",
"# c #215218",
"$ c #184210",
"% c #103108",
"& c #102108",
/* pixels */
" .&&&%%$@$%%%&&&& .&&& ..&&&%%$@$$#$$$%$$%%&&&&&&&%$$%&%&$%&%& .",
"..&&&%%%$$#$%%&&&&.&&&...&&&%%%###$$$#$$%$$%%%&%$$%$%%&%&$$%%%&.",
".&&&%%%&&%%$#$%&&&&&%&...&&%%$$##$%%%%%%##$#$$##%%%%%%&&&&%&%%&.",
"&&&%%%&&&&&%$##$%%&&&%&..&&%$%&$$$%&&&&&&&%#####$$$$&&&&&&%%&%&&",
"&&%%&&&&&& &&$##$$%$&%$$&&&%%%$%$%&&&&&&&&&&%#@#@$$%&&&&&%%%&&&%",
"&%%&&&&&....&&$$$%%%&&&%$$$%%&%%$& ... .&&&&&&$###$$$%&%%%%$%&&&",
"&%%&&&.......&$$$%&&&&&&&$##%%%%%$&........&&&$$###@##$$$$%%%%&&",
"&%&%&........$%$%#%%%%&&%%$$%$%$%$$&.....&&&&%$%$@@@@@#@##$%%%%&",
"&%&&&.....&.%&$&#$$%%%%%%$$%%%$#$$%%&..&&&&&&%$$$$@@+++@##$$%%%%",
"&%&&&.&..&&&.%%$%#%%&%&&%%%$%%%$##$%%&&&&&&&%%$@#$$@+@@#@##$$%%%",
"&%&%&&&..&..%&&%$$%%&&&&&&%%$%%%$###$$%&&%%%%%$#$$$#@##$$$$$$$%$",
"%$%%&&&...&&&&%&$%%&&&&&&&&%%%%&%$$##$##%&&&%%%$$#%$##$%$%%%%$$#",
"###$%%&&&&&&&&&$$$&&&&&&&&&&&%$%&%$#@##@$%&&&&&%%#@$#$%&&%&&&&&#",
"$##$%&&&&&&&&&%%%&&&&&&...&&&&$$%%$#@@@@@#$&&&&%$$$##%&& .....&%",
"%$##$%%&&&&&%%%$&&%&&......&&&$$$##@@+@###$$$$%$$@$@#%&......&&%",
"%%%%$%%%%%%%%$$%&&&&.......&&&%$#@@+++@@#$$%%&%&%#$$$$%&....&&&%",
"%%&&%$%%&&&%%%$%&&&...&.....&&$$#@@@+@#@#$$%&%.&&%&%&%%&..&&&&&%",
"&&&&&&$$&&&&&&%&&&&...&&&...&&$$$###@@@#@$$%%&&&&%&&&&&$&&&&&&%&",
"&&&&&.&%$&&&&&%&&&&....%.%.&&&$%%%%%$@@#@#$$&&&&%%%&&&&&%$%%%%%&",
"&&&....&%%&&&&%%&&&.....$$$&$$%$%%%&%%#@@@#$$%&%%$%%&&&&&%$@#$%%",
"$&&&....&$%&%%&%&&&&&&&%$#$$&#$%&&&&&$$#@@@#$$%%$$$%%%%%%%$#@@##",
"@$$%&...&%$$$$#$%%%&%$%$#$@%$%&&&....&$$@@@@###$$#$%%%%&&&&$#@@#",
"@#$$%&..&$%$%$$$###$#####@#$%&&&......&&$##@@@@@$%%%&&&&&&&%$$##",
"@@#@$$%&$$#$$$%&&%$$#@##@@@$%&&........&%$#@@+@##$%&&&&&&&&&%$$#",
"#@@###$#$$$$#$&&&&&%%$$$##$%&&&........&&%$#@@##$%%&&&&..&&&&%$$",
"@#@#@$#$$$$##$%&&&&&&&%%$#$%&&&.......&&&%$$@##$$%$%&......&&&%$",
"@@@@$$$&&$$##$%&.......&%$#$%&&......&&&&%%$$#$$%&%&%&......&&$$",
"#@#$%%&&&&%$%$$$&.......&%$#%&&&...&&&&&%%$%$$$%%&&&.&%&&&..&&%#",
"@#$$$&%%%%%%%&&%%&......&&$#$%&&.&&&&&&&%%%%%$%%%&&&..&%$%%&%$$$",
"$$$%%&&%%$$%%&&&%$%&&...&&%$#$&&&&&&&&&%&%%%%$$%%&&&....&%$$$$#$",
"$#$$&&&%%$#$%&&..&%$%&&&&&%$##%%%&&&%%&&&&&&&&$$%&&&......&$$@##",
"@$$%&&&&%$$$%&&&&&&%$$$$$$%$@@#$%%$%%%&&&&&&&&%$$&&&.....&&&$$##",
"$$$$$&%%%%$%%&&&&&&&&$$$$$$#@+@@@#@$$&&&&&&&&%%%$$%&&&..&&&%%%$%",
"%%$$$$#$%&%%%%&&&&&&%$$$$##$$$$#$#@#$$$&&%&&&&%$$$&%%&&&&&&%&&&%",
"%&&%%$%#%%&&&%%%&&&&%$###$%%%%%%%%$$$$$&&&&&&&&%$%%%%&%&&&%&&&&%",
"%&&&&&&&%$%%&&&&%%%%%$###%%%&&&&&&&$%%&&%$&..&&%$$%%$$$$%&%&&&&&",
"&&&&%&&&&&&$&&&&&%%%%$#@#%&&&....&&&%&&..&%&.&&%$$$%$%$%$%$%&&&$",
"%&&&&&&&&&..&$&&&&%%%$##@$%&&&....&&&&&....%%&&%%$%%&%%%%%$%%%%%",
"%%&%&&&&&....&$%%%%%$$#@@#$%&&&...&&%&&.....&$&%%%&&&&%&%%&%$$%%",
"$%&&&&&&.....&&%%$####@++##$&&&...&&&&&..&&&&%$$%&&&&&&&&&%%&$$$",
"$$$&&&&......&&&%$#@@+O++@@#%&&..&&&%&&&&&&&%%$@$%%$&%&&.&&&%$$%",
"$$%%&&&&...&&&&&&%$#++++@+@@#$$&&&&%%&&&&&&%%##@##$$&&....&&&&%$",
"$%$$%&&&&&&&&&&&&$$$@@+@@@$#%#$$&&%%%&%&%%$#$$%%%$#$&......&&&%%",
"%%$$$%%&&&&&&&%&%%$#@@@#%%%%%%&&#$%&&&&&&%$$$%&&&&&%%&.....&&&%%",
"%%%%%%&%&&&&&%%%%%#@#@%$&&&%%%%%%%$%%&&&%$$%%&&&&...&$&....&&&%%",
"%%%$$$%%%%%%&%$%#$@$#$%%&&&&%%%&&&&$$%%&%$$%%&&&&....&%&...&&&%%",
"%%$$$$$$%$%$%$$#%#$#$&$&&&&&%%&&&&.&%$$$$$#$%%&&&......&..&&&&%%",
"%%%$%$%&%%$$$$$%#&$$.$&&..&&&%&&&&...&$$###$$$&&&&......&&&&&%%%",
"%%%%%%&%%%%&%%%&&&&.&&.&&.&&&%%&&&....&$$###$@%&&&......&$%&&%%%",
"%%%%&&%%&&&&&&%&&&&&&&&&&.&&%%%&&&.....&$$$#$$#$%&&&&&&&&$#%%%%%",
"%%%%&&&&&.&&&&&%&&&&&&&&&&&&&%%&&&.&....%$&$#$$%$%&&&&&&&%@@#$%%",
"###%%&&&&&&.&&&%%%&&&&&&&&&%%$%&&&&&&&.&&$%&$@$%%%$#%%&&%$@+++#$",
"@@#$$$%%&&...&&%%%%%%&&&&%&%%$%&&&&&&&&&&$%$$$$%&&&&$@#$$@+XO+@@",
"@@$%&&&&&&&.&&&%%%%%%%%&&&$%#$#%%%&&&&&&&$$%$%&&&&&&&&$#@+oXoO++",
"@#%%&....&.&&&&%%$$%%%%&&&&@@@%#&$%$%&$%%$%$%&&&&&&&&&&%#@+oO++O",
"@#%&&......&&&&%%$#$%%%%&&$$@$#%$%$$%$$%%%%%%&&&&&...&&&%#+++@+@",
"@#%&&......&&%%%%$$$$%%%%%%@##%$&&&&%%%%%%&%&&&.......&&&$#@@++@",
"##%&&&...&&&&&$%$$%%%%%%%%$$#$$&&.&&&&%%%&&&&&&.......&&&%$@@@@@",
"##$%&&&&&&&&&&%%$$$$%&&&%$%##$$&...&&&%$%&&&&&........&&&&$$##@@",
"$$#$%&&&&&&&%%%%%%&&%&&%$$##@#$&&..&&%%%%&&&&..&&.....&&&&$$$#$$",
"$$$$$%%&&%&%%%%&&&&&%%$$$$$@@@$%&&&&&&%$%&&&&..&&&...&&&&&$%%$#$",
"$$$#$%$%%%%%%%&&&&.&&%.%&%$$####%$&&&%%%%&&&&&...&&&&&&&&$$%$%$$",
"&&&%$#$$$$$%%%&&&..&&....&&&%$##$%%&%%$$%&&&&&&&&&$&&&&&$$%$%&&&",
"..&&&$@##$$%%&&&&..&&&...&&&%$$$###$%$$$%%%&&&&&&&$$$%&%%%%&%&.."
};
