/* XPM */
static char *tile09[] = {
/* columns rows colors chars-per-pixel */
"64 64 38 1 ",
"  c black",
". c #313921",
"X c #293118",
"o c #394229",
"O c #101800",
"+ c #081000",
"@ c gray13",
"# c #525239",
"$ c #424A31",
"% c #212908",
"& c #181818",
"* c gray16",
"= c #100800",
"- c #636B4A",
"; c #181008",
": c #101010",
"> c gray3",
", c #313131",
"< c #5A6342",
"1 c #6B6B52",
"2 c #393939",
"3 c #292108",
"4 c gray26",
"5 c #102108",
"6 c #737B63",
"7 c #7B6B52",
"8 c #312910",
"9 c gray29",
"0 c #523929",
"q c #635239",
"w c #73634A",
"e c #392918",
"r c gray42",
"t c #5A5A5A",
"y c #4A3921",
"u c #392910",
"i c #423121",
"p c #312110",
/* pixels */
"111<<<<<<<<<<<<<<<<<<<<<<<<<<<<Xoooo.o.........................%",
"1oo<<-111<#-1<<$$.o#6<###$.%XX.+o&%@O%@X%&%@O%&5@&X%X&O%&=O@O:O ",
"1o$<--11<<##<<#$<$.o###<<#X%X.o o%@%X@&OO@%@X,%@O%@%&++%@+%&+=+ ",
"<##<<<--<##$$##<<#Xooo$<#o%%X.o=.@X%X@&OO&%*X*%@O%&OOO:%&+@O:+O ",
"<##-<#<<###$o$#11<$oX%.o#$%%X.o+o@X@X@%;&5X*.%@&O@@O+:O@O+@%&++ ",
"10#1<<#<<#$o$#$<7-#$oXXo#$%XX.4=.,.XX@%%&O@X%@X&%@%&&O%%&;5%&+= ",
"<$<1<<<<#<#$#<o#1-<#$..#$.%X.o$+..,XX@%%@@X%&X%%@%@%X&%&OO+;&+O ",
"<<<<<<#<<1-$$<##<<##$.o#$XXX$#<;.oXo*XX&X%XX@@.XX*X%@%X&O&+=OO% ",
"<#<<<##<11<$$$<<<#o#$$o$..X.o#<O.2...*X&XX.*%X*.*..%,X@3%@O>OOO ",
"<#1<<##-1<<###<<#o0t##o.o$o..$#O.Xo*,X%@XXX*%@X..,.X,XX@XX%=++O>",
"<<<11<#<1<<<$<$#<0#<#$.o$#$4oXo:.XXXX@%@XX@pX&XX*oo*,XXX*XX++=& ",
"<<-11-<<1##$$#<##o#-<$.$#<<#$XX=.X&%%@O@%X&X*X%@..,o.*XX.*.&OO:+",
"<###-1<<<<$Xo$$#oo$--#X.$<<<<$. .%&@%X@%X@X*.o%@X.,o.X*X*.@%%;+ ",
"<.o#$####$X%%.$$$$#--#XX.$$$$o.+.O&%*Xo*X.X,o.XX@*oo@XX&X%@%%&+ ",
"<.$#$$$oo.XX.$#--##<<#.%%XXXXXX+.&O%X4o,X*..,.o@X@..X@X@X%@@X;O ",
"<$#<<$$oX%XX$<---#####X%%O88Xo$=.O%%,4.o,..*o,.XX&.X%,X2X%&,XO% ",
"<<<--<-o.ooo$$<11<#$#o%OOO%Xo##+.X@%X.2o.o2*.o.@XO@X%o*@%@XX*%X ",
"<$-<-<#$$$$$$$-6-<#$oX%+O%X.$#<O.,X%3@,o.oo,*oXX&O&X@..%%@*XXX& ",
"<$#<#####<<<<#<<##$o.X%%%X$<<<<O.X.%&&oo,o...,&%O&OXX*@O&XX@.%@>",
"<$$##o.##<<#<<#<#$o..oo.o$#<<<<:.e.@&%X.X*.XX@&O%&+%,;5;&XX%@X% ",
"<<1<<#$o$$-11-<$#ou.o########$#O.X@X%X@,%X&%@%O%@&OO%&;5@XX%@X%>",
"<o#<##$oo$-6166-<#.Xo#-<#oo$o$#=.XXX%,X2oX&%%@%%@%:&OOO%*@XO%@&>",
"<##<<<#$o#-11-<<<#Xo$$$o..o#o$#:.%i@X*Xo,.XX;@X.X@&+O&O%&&OO&O++",
"<##<#o##$o<-<##<-1#<-$o.Xo####<=.@@XXX,Xo.,.XX,o.@&+O%@&OO%&++= ",
"<$###o####<##$o#-1--#$.XXo$####=.&X@X.X,...&X,.$o&=+&%@%%@&OO=+ ",
"<$#######<#$##o#<61-<$.XX.oq<$#+.%@%*XX.X*.&XX,o.:=+O%@XX@%3O>5 ",
"<$###<###<o#<-##-1661#o...o####;.&O@X.*...*.XX2oX;:+O@XX*X%@%O+ ",
"<o$$###$<#$.#----1661<#$$$#<#$#+.&O%@,Xo..,X.X*o*&+OO@X..*%@O&O ",
"<.$$#<$$<#o.$-<##-11-<<<<<-#$#<O.%@XX*.o,,..X@X..&&O@%X2.*X%%@& ",
"<.oo#<#$<#o.o-<$#<--###<<<#$#$#;.%X*XX.o,oX**XXX%@&OX%,,...X@X&>",
"<o$$#<<<<<o.o-<$##<<<$oo#$$#<$#=.X@X.X2o.o,X*X.X&%&&%.Xo,.oX@@%+",
"X:=::+:=::+=:::O::+=:+>>=+>:;::=%> >+>>=>>: >+>=  >   +>=>>> >  ",
"ooo.o..........................%111<1<<<<<<<<<<<<<<<<<<<<<<<<<<X",
"o%*XXX@@3%X*XoX*.@%:%;%@%&%&%X& 10$##<1-<<<#<<7<ooo#<<-11<##<<$>",
"o:XX@X%@O@&X.X..@%@:O%@X%@%X&&% 1.o$#<-<<<#<<-1#ooo$#-1<<-1#XXo+",
".&%.X@X&+O@&XXo*.@3&O%@XX.@X&XO <XXoo#<<<##<<-<$..o$q11<---1#XX+",
".X%&XX@O+=&%@X.o*X&%%@X@o..*X%; <%XXoo<<#$#<#$oo...o#-<-1<<<<oX=",
".%@%*X&O;O&%@XX.2..@X@XX..2oX@: 1XX.oX##$$$$$$#$..XXo<--7<<$#<$+",
".X%@XX@%;@%X@@..X@X@%X@X.,.$o@& <X.o.X...o$#-1<$.oo.X<111ww##<<+",
".X%@*XX&%%X*@..X@%@O&XX@.o.2oX& <Xo.X@X.o$#<11<$.o$$o#1-11194#9 ",
".XX@&X%@X@..XX,X@3+&%@XX.,..o@@ <.oX@@Xoo$#<11<$Xo<###--166#o#9=",
".%@%&O@%%*X@.X.*&O;O%@*XXXXX,XX <.oX%%X#-1-1-<#$Xo#<<<-11111-<#O",
".*X&++=%@X%.,.X.&O;%@X*XX%*X*o& <.oX%X.$<---1<#$oo<#<<----1-<##+",
"..%&=++%@%@oX*X%@;%X,X.@X%@%X&X><oo..XX.$<<<-<#$.#<##<<<<--<##<=",
".@%O&+O@%XX.@X@&OO.,.o*%%@X%@%% <$##$.%%Xoo$<<$$$<<###$$$$##$$<+",
".%&OO@XX@.XX*X@%%X.4o28X&&%.@%O><#<<#.%%%Xoo###o#<<#$$$$##<1<<<=",
".%O;&&X.XX@X@X%&X.o**.X%@&%XX@& <$#<$.X%%Xo$#####$#$$######<<-1+",
".%&&&@XX%@,%XX&%.@o*..X&X3&X,%@ <.$#.XXXXXo$#$$$$$$$$$<#<###$<7:",
".&@=OX%@X%*.X@X%@.,oX.*@X%@@.%X <o.XXXX..X.oooo$##<<###<<##<o#1O",
".%X=%@%@&XXXX&@XXX$4o28X@X@XX%@ <$.X%X.ooo..o.#<----##<1-##<##<;",
".X@%%*@X%&XX%&@.X,yo.,X@X%XX*;% <$XXX.o$$###$o$$#<--##11<#$$#<<+",
".*XXXX@.@%@%O&XX.*o2$XX@@XX.@3&=<$X.oo$##<<#$##$$####$#<#$o$$<#>",
".,o.XX@.@O@O+&X.X*o*oo*X%X*,X%@ <o.o####<1-#$<#####$#$oooo$$o$$+",
".2.o..@.@3&++%@XX*XXX,oX@XX.@X@><oo$<<#<-1-#$#$<--<#$o..o$$$$o#=",
"..,o.XX@@O=+O@&%%X@%*.XX@&XXX&% <$#$###<-1-#$##111-#...o$$#<<#o+",
".o,2XX*.X;O=%@X%*@%%@%XX@;%@XX% <<<<$o$$<1<$o#-11-#o..o##--<<<#:",
"..o2oXXX@:OOX@.*oX@%&%@%@.@XX.o+<#<<<#o$#<$oo#1-##$$$o$$<11--1<:",
".,oo,o3@%>O%X,o,o*.%@&%X@.%*X.. <##<<<$$$#$$$#<#$##<#$o#<-11--<O",
".,o.o*;%&O@%*oo*o.,X%3&%@.X@X.,=<##<<<#$##$$#<$$#<<<<$$#<-11111:",
"..,..&@O%&@X..,.Xo*%@%O@&..%X@.><<<---<#$#o$##$o$###$$##<<1--<-+",
".@@XX;&%;:XX..*...*.*XX&XX,.%@% <<<---<<$..$$$#<<<<<<###<<-<<<<=",
".@%X&%&OOO@X%@...*o,o@X%@X,.%@X+<--<<<<<#.X..$<<----<$###<<<#<#=",
".&&%%@:++O@%.@.o,.@X..*%@%XX@@X><11------o..$$#<1111#$<1<#$o$$o=",
"r           >>+ >: >= >    >+ > X;&:;&5&=:>+::=+&;::+>;&::+:>=+:"
};
