/* XPM */
static char *tile04[] = {
/* columns rows colors chars-per-pixel */
"64 64 25 1 ",
"  c black",
". c #423121",
"X c #313131",
"o c gray16",
"O c #312910",
"+ c gray3",
"@ c #181818",
"# c gray13",
"$ c #292108",
"% c #390000",
"& c gray26",
"* c gray29",
"= c #181008",
"- c #101010",
"; c #392918",
": c #100800",
"> c #293118",
", c #313921",
"< c #420000",
"1 c gray32",
"2 c #212908",
"3 c #393939",
"4 c #5A4A31",
"5 c #101800",
"6 c #081000",
/* pixels */
"%:::%::<%%:::%::%<%:::%:::::=%%:#X***oooo**X*&*&oo&*3&*X3&**&3&-",
":::+:::%%+::+::+::::+::+::%::%:=*Xo.ooXoooX3oXoo.ooXoooXXoXXXoo-",
"<::::::::+:::::+::::+::+::%=::+$&o.oo.o.;oooX.ooXoX.o##ooo.oo.X+",
"::%%::%:::%:::::::::=:::%:+::+::&Xo.ooXo.oXooo.oXoo.>ooooXo.ooX+",
"::+::%%:=::::::+::::::::%::+::%:&o.oo.ooo.ooXooooooo.Xo.Xo#oooo+",
":+::::::+:::::::%%:::+::+::::::$&.o..X>oXoooXo.o.o#o.oXXXoX#o.o-",
"::+:%::::::+%::+::%+%+::::::::%:&X.oX.#.ooooo;.oX#oXoX.ooX.##oX+",
"<:::+:::::::%:::::%=::%::+%:::::&oX.Xooooooooo.ooooo.o.XoX.#XX@-",
"<:%+::++:::%::::::=::+::+::+::+:&XoXoXo.ooX.;oXooX#oooX.XooX.o@-",
"%%::=::+:::::::::::::+%:+::+%:::&o.oooXoXo..O.;oXo.#oX..oooXXo.+",
":%::=::::::+::+::+::+%:::::+::+=Oo..#XX#.o.O##.XoX.XooXoXo#oooX+",
"<::%+::+::::+::+::::::::::%:::::&o######o###oXo.XXo.o.##oX#.oo.+",
"::+:%+::+%::::+:+%%+%:+:::::+:::$o.@@#XoXXooX.Xo.o.Xo.o###>.Xo.+",
"::::::+::+::+::+:::::+::+::+:+:@&o####oXX.ooo.o.oXoXXoX#.ooooo.+",
":%=%%+::: ::+::::::%%+::%:=::::$&.o#o.ooXooX.ooXXoXX.o;.oooo..o+",
"<+::+:::::::::::::%:%:+:%:::::+:&o.;.o.ooooXoXXX.ooXo;.Xooooooo+",
"::%%:::+:::+::+:::%:::%=:%:::::+&o;;.oXo.#o.Xo..o.XXoX.ooXo.ooX+",
"::::%:+::+:::::+::::=::%:::::%::$o.#ooo.oXOXX.oXoXo#ooXX#o#X.oX@",
":::+::%=::%+::::::%+:%=:::+::+::#o####o######O#o######o#####o#@+",
"%::::::+:%=::=::=:%%+%:%:::++::=*.X#oo.Xo#oo#X.oo#o.o.X#oX#oX.o+",
"<%%::+::::%=:%:::+%:::+::+::+::+&ooXoXoXXooXX#o####>.ooXoooXo.o+",
":::+::+:::=%::%%:%+::+%:+%::::==Ooo#ooX.,.o.o####oXXo#oX.ooX.oo+",
":::+::%=::=::::::::::::%:%%::%::&,.o##oOo.o#Xo@#XX.Xooo#o.o..oo+",
"::%:::+%%::%:::%+:::::+:%%::::%:&.o.o#####ooo###Xoo>.ooo#O.oXoX+",
":::=:%:+:%:%=:::::::=:::%::::=::*XoXXo###o.>.ooX##..ooX.oooooXX+",
"<::::%:%+::::=:::::::::%::%:::::&oo.##oo##$.X.#O#OoXo.o#XoXoX#@-",
"<:::+::%=::%::::+:::+:%%+::%=:::Oo###oo###OOO#o..o#o####oo#o##--",
"%::::::+:%%::%=::+%:%=%::%:%%+::*ooo##.Xo..o#oo.ooo..X#XoXo.Xo.-",
":::+::::::::%=:%::%::=::::%:::::&o###>.o.X.XXo.Xo.Xo..oXoX..XoX@",
":::::::::+:%:%:+::::::::+:%=:%:+$##o.Xo.o>#oo.;oX.o.X.oXoXoXo#@-",
"<::::::::+:%+%::+:%::%=:::::%:::$ooooXoX#o.@#.o#Xo.oo#XXo###oo-+",
"::2:+::5=::$::@=::::2::@=$$:+:$O&+ ==@$=++++=+++$+-++=++@=@@+=-+",
";*&*O$@$&*O****$$&*O**$O**&*O*&*o%:::%:<::::%%:::<%:::%::::::%%:",
"&.o.ooXo.ooo..ooo.o.o#o.XoXo..X*+:+:::::%::::::::%+::+::%%:+%:%:",
"&.o..o.#X.#.X.#o#o.X###X.oX#..oX@:::+%:+::+::+:::+::+::%:%:+%:+:",
"&.o..o#.o.OXoo#oo.X#oXX#o.o#XoXX=:::%:%+::::::::::=::::%+%:+::+:",
"&oo..o#.o#..o#Xo#.#o..oo###Xo.X.=::::::%%+%%:%=%%:%::::%+%6 ::::",
"&Xo.o#OoX#oX#oXo##o.ooo.o.#.oo.o=::+::+::+:::::::%::+::+::+:::::",
"&oo.o#o.#oo.#.o.#o.oo..ooX###.o4@::::::::::::%+:::=:::::+:::+::+",
"&.XXOOXoX..X#oX#X#o..oo.o.#oX#o1+<:+::+::+%:%=::::%::::+::+::+::",
"&o.#.>.oXX.#XXoo.##.XXX.X#o.X##o@<::::++:+%::::::::+:::::+:%%=::",
"&o.O.o#o.oX#ooX.o.##..oo.#oX#o.X-<:::+:::::+:::::+::::::::::+%%+",
"*.o#.X#o..###X.o.o.o;,.oXO##oX.*+:%+::::%:::+::+::+:%=::+%:+::+:",
"oo#@$#####$.XoXo.oo..#O..O.,ooo.+::%=:::%:::::+::%:%:+::+%::::::",
"&o@=@oX.XoOoX.o..o.oo.###O.oo.o.-::+%::%+::+::+::::::=::=::::::+",
"o##@#o.Xo.#.oXo.o.o.oo#.o#o.ooX*@:::+::+::+::+::::::+::::::++:::",
"&o$.oo.Xo#oX.Xo.o.XXo#X#o#..oo.*$:::::%:::+:+::::%:%%+:%::=:+::+",
"&.#..X##X#oooo.o..o,#oo#o#.o.Xoo-<::=:::+::+:::::%=:%:+:::=::+::",
"o##oXo.o#oX.o.,.X.X#oXX#oo.Xoo.o+::%::::%:::=:::::::%=%::::::+::",
"&,#X.o..X#X.oo..oX#.o..#o#.X..o.+:::%+%:::::=::::%+%%:=:::::::::",
"o####;#########OO#OOO#$####O#oo.:::::::%::=:::+::%%:::::=:::+::+",
"&.#X.X.oO.o$.Xo.@.o.Xo#.X#.o.oo1-<% ::+:::%%:=::+%:+:%:%:%: :%+:",
"&o.#o.o.>o..#o##O#O,o#o.;.oo.o.X+:::%+::+:%=:%%:%=::::::::++::::",
"oo#oOX.;o.X#O@@#o..#$...O.o.ooo.+::+::+:::=::+:%=%::+:%::%::::::",
"&oo##oO.,>#..@$o..oO.O#O.o.XX.o1-<:+:::%::%:::%:::::%:%%:%:+::::",
"&,o.#@@$Oo,OO$O,o#;o...##oo..o.*$::%%:::%%::+:%=:%+:::%::%:+::%:",
"&oX.X#@$o.oX..,#O.X.oXX#ooOOooX1$:+:::%:::%:+::+:%:::=:::+:::=::",
"&o.##.o@@#XoX;O#O..oo.#oo..X##o4+::+::::+:%%:::::::::%+:%+%%::%:",
"oo##X#OO@O###o..,O;######o###@#o::::+::%:%@%%+::+%:%::::+:%::=::",
"&.X@#o.o.o.#..X.o.o.o#o..o.ooX#.+::::+::+:%%+%:%%:%:%::::::%+:%:",
"##O##o.o..oX#.o.oXo..#o..X.o.oo.+:::+::+::%:%::%=%:::::+:%:%%::+",
"##.X.X.o##O.X#oXo.o.o#o.ooo##O.*+:::+:::+:::%:+%:%:::::::%+%%:::",
"&ooX...@X.@@oX#..oXX#XXX@@@oX@X*+%:+:::+::+:::::=%:+::+::%=:%:::",
"o+@@@=@+++---+-@-+++@++-@-++@+-+-::+::+::+::+::+::+::+: :::+::+:"
};
