/* XPM */
static char *tile06[] = {
/* columns rows colors chars-per-pixel */
"64 64 21 1 ",
"  c black",
". c #292108",
"X c #181008",
"o c #392918",
"O c #312910",
"+ c #100800",
"@ c gray3",
"# c #181818",
"$ c #423121",
"% c #101800",
"& c gray13",
"* c #101010",
"= c #4A3929",
"- c #081000",
"; c #313921",
": c gray16",
"> c #313131",
", c #293118",
"< c #212908",
"1 c #422918",
"2 c #312110",
/* pixels */
"XX#XXXXoo#XXX#XXXOX#XXX#XXXXXXX;Oo$>$oOOo;=$$>$$oo;=o=>oo$=;=$$#",
"X%XXXX%..X*XXX%XXXO%+XXX%O.XXO..$$:$$$$$,$$o$:$o$o$:$OO$$:$$o$$X",
"oX%XXX.X%XXX%XXXX*OX++XX+..XX%+X$$:$$$$$:$$o$$:$$o$$:OOo$$:$o$$X",
"XO..XX.X+XOXX#XXXX*XXX%X.X%+X++@$$$$:$$o$$:o$$$o:o$$o$:$o$$$:$$X",
"+X#X.O..XX.XX#XXXX.XXX%X.XX@X%.@$$$$:$$o$$:$$$o$:o$o$$:$$ooo:$$.",
"+@+X%XXX+*XXX%.O..X%X@++X-O++X%.$$$:$$oo$:o$$o$:$oo$$:$$$$$&$$$.",
"*++X.XXX+%XX.XX*XX.XO+@XX%X+X%.X=$$:$$O$$:$$$o$:$O$$$:$$$$$Oo&$X",
"oXX%XXX+%XXX.X-*...XXX.+++.XX-X@$$$:$oo$o:$$$o$:o$o$$:$$$$$O$:.X",
"oX.X%X@+XX%.XX%XXX%XX%XX@+XX*XX@$$:$o$$$:$$$o$:o$$o.$$$:$$o$$:.X",
"X.O+X%X+++X*XX.X++.%XXO+XX+X..+@$$$:$$$o$:$$oo$:$$$oo:$$$$O$:o$X",
"...X%X+XX%++X#X++@X+XXXX%XXXXX+X&$$$O$:O$$$OOo:$$$$$:o$$$$Oo:$$X",
"oXX.XX+%XX%X+++@+XX%X.XXXX.XXX# $OO&..OOOOO&$$$$:$$$$$O&$$O$:$$.",
"X%XXO@XX%.XX%X@XX..X.XX.XX.%@XX@.$$#X.$$:$$o$$:$$$$$:$$OOOo:$$$X",
".X%XXX+*XXX+++*+XXXX%X+XX%X+++@#$oO.&o$$:$$o$$:$$$$$:$$oo$,$$$$#",
"X....XO-XX%X+X+XX%..O+X%..X%@XX#$$$O$:o$$$o:$$$$$:$$$$o:o$o$$:$X",
"o%XXX%XXXXX+#XXX*X.XXXXX..X%++X@=$$o:$$oo$,$$$$:$$$$$:$$o$o:$$$X",
"X.O.%XXX&XXX#XXXX%.X.X..X.XX+%.@$oOo:$$$$Oo:$$$$$:$$o$$:$$o$$:$.",
"XX*XO+X-XXX+XXX%XX.X%X.O*XXX@OX X;$.$$:$$$.$$:$$$$$&$$$$O:O$$$$&",
"XXX*XX..XXO+X%XXXXO+#.X.XX% X++@.oOO&oOoOO&oOOOO&.OOOO&OOOO&oO..",
"XXX%X++X*O.XXX-XXXO.X.X.XX+@+-.X$$$&$$$$$&$$O$$:$.$$$:$O$$O:$$$X",
"o...*+XX+X..O.%XXX.XXX%XXXX*+XX =:$$o$$:$o$$$&$O.OOo:$o$$o:$$$$X",
"XXX#+XX%XXX.%X....XX+X.XX..X%2X#.ooo$,$$o$:$OO.#.$$$oO$$:o$$$$:X",
"XX*XXX.XXX%XXX%X.X.X.XX.X..XX.X@$$$:OO$O$:oO$$#.$$$:o$oOO$$$:$$.",
"XX.*XXX.O-X.X+X.XX.XX.XX...%XX.+$$$:$O..OO$$&OOO$:oo$$$:Oo$$$:$.",
"XX%.XOXXXO..X+%XXX-XXX&X.XXXX%XX$$$:$$..#$$o$$:$OO$$:$$$o$,oo$$X",
"o*XXX...XX%.XX+XX-XXXXX&.X.XXXX%$$$:OO$$#..$$$,OOO$:$$$O$:$$$..X",
"o%XX@X+OXX%..XXXX#XXX%..XX%..XX*OoOO&$o..&OOo&$$$$oOO&.OOOo&o.XX",
"#.X%++XX......X%XXOXOXOXX..O.XX-$$$$&O$$$:$$o$$:$$$$$:O$$$$:$$$X",
"#XX+XX%XXX+XO.XO%.O.X.XX%XXXOXX@$O&OOo$$:$$$$o:$$$$$:$o$$$:$$$$#",
"XXXX*XXX+++.X.XXX%.XX.%XXX.X..X@XO&$$$$$:oOo$$:$$$$$:$o$$$:$oO..",
"oX#@X%XXX@+OX.+X+X.XX.%@XXO%..X X$$:$$$$O:$.O$$O$:$$$O$:$OoO$:X.",
"X . @ @XX@+.@@X*@++ .+@XX.#@ +.XX&XX&.OO##X#..##..#.#.##ooOoX&.X",
"&=$$#.XX=;.=>$$XX$=&$$X&$$=;O$$>XXXX#XXo#XXXX#XXXoXXX#XXX.XXX,X@",
"$$:$$$$O$$:$$$o:O$$$O&$$$$:o$$$oXXX%XXX%.XX*XX%XX.X+X%XX..XXO*.-",
"$$:$$$$O$$&$$$o$O$:$..O$:$$o$$:.oX*XXOXX%XXXX%XX%XXX@XXO%.XX.X+@",
"=:$$$$O$:$o$$$O$&$$o$$:o$$$O$:$.XXXO...X#XXXX%XXXO%XXXX.X&X+XX+@",
"$$$$:$O$$O$:$o$$O:o$$$$:OOO$$:$XXX%.XXX..XO.OO..O..XXX%.X.++X.X ",
"=$:$$OO$:O$$O$:$O.$$:$$$$$&$$$$.X++%X+XXX*XX.XX#X.XX+*XXX%X++XX+",
";$$$$&$$oo$:O$$$&$$$$$:$$$O&O$$oX++XX*XX+X%.X.++X%XXX#++X.++X%X@",
"=$:$OO$O$$$:O$$o$&$$$$$:$$O$$&.oX.XX+XX*XX...X%+X..X%.X++X*XXX% ",
"$$$O$$:O$$$O$:o$$O&$$$$$:o$$$&.XoO+X%X+@X+.XXX%X+XX+X.X*++X..XX@",
"$$:O$$o$:$$.$O$:$$OO$:$$$O$:O$$Xo.XX-XXX+%X+XX.X@+X%XXX%X.XXX..@",
"$$;.$$&$$$.&O$$:$$$$O$$$:O.o$$:1XXXXXX#X.X++%XXX+*XX..XXXO+X+%++",
"oO&...OOO&.$$$$:$$$$$&O$$&$$$:$XXX%.X%XO.XXXX@X+X.%.XX%XX.X+XXX@",
"$$X%.$$$:$O$$$:$$$$$:$...O$:$$$XXXX%.X..XXX%XX+XX.XX%X@X%.X%+XX@",
"oO.#.$$$$:O$$$$:$$$$$:.$$O$:$$$oo%XX++XX+*+X++@XXX%XX++XXX*+@X+@",
"$$.$:O$$$O$:$$$$$:$$$o$O$&$$$$$O.XX%XX.XX%XX@XX%X.XO.X*.OX%X+X.+",
"$$O:$$Oo$&$$$$$:$$$$O$:O$O$$:$$Xo..XXX%XXXX+X%XXXXX.OXX%.XXX*+X ",
"oO&$$$$$&O$$$:$$$$$O$:$o$O$:$$$XXX%.XX+XOX%X+XX%X.%X.X.X-XXXX%X@",
"$$#$$$$:$.$$$:$$$$&$$$$&$.$$:$O.XX*X.X.XX#XXXXX%X.X..XOX-XX.+#X@",
"oO&.oOoO&..OOOO&O.OOO&....&oOo:XXXXX+X%.X.XX-XX%X..XX*.XX.X++X@@",
"$$.$:$$$.$$&$$$$#$$$$:.$$.$$:$$oo..XX*++X....XXX%.XXXOX&X.*+@.X+",
"$$:O$$$$O$$:.$..&Oo$$O$:o$$$$:$.XXX..+%X+X.XX.&...XX*XX%XX+++%@+",
"ooO:O$$O$:$O.X#.$$$&.$$$O$:$$$$XX%XXX+XX*XXXX%XOX.XXX*OXX.%+OXX+",
"$:$..$&$$OO$:XX$$$:O$OO&$$$$$:$oOO%XXX..XX.X+%.XX%XX.X.OX.XX%.X@",
"$$$;.X.#O$$OO&.$$oO$$:$..$$:$$$oXX...X%XO.OX@X.XX.XXXOXXXO%+XX& ",
"=$$$:.X.$$O$$:$..$$:$$$O$Oo&$$$oX+XXXO.X#X.XX-XXX.X%XXOX#XXXX%.@",
"$$$O&$$X.#$$$OO&.$$$:$.$$$:$...oXX+@X%.XXX...X-+X.XX..X%.X..XX. ",
"oo&.$O&....O&$$$$Oo&O..OOO&O..X.XXX*+XX......XX%XOX.X#XXX%..XX.+",
"$$$#.$$$:$$.$$:$$$$$:.$$$$:$$$.#XXXX*+XXX%.OXXX..X.%.XXX%.XOXX&+",
".O&.O$$$:$$$o$:$$$$$:o$$$$:$$$..XX#XXX%+XX.X.XXOX.XXX#XXX.X.O%X ",
".O$:$$$$OO&$$o$:$$$$$O$$:$$o.O:oXXXX%XXXX+%X.XX.X&XXX%X+X.X..X#@",
"=$$:$$$.$$#.$$.$:$$$.$$:...$$#$o#XX+XX%XX+@.X*+XX.X-XXX+*.XX..X@",
"...&..X##.XX&#X.<X.#.#%.X.#X..#X@@@@@@ ++ @+ @@ @@ @+ @@@+X @@@@"
};
