/* XPM */
static char *woodx01[] = {
/* columns rows colors chars-per-pixel */
"64 64 44 1 ",
"  c black",
". c #4A3118",
"X c #523929",
"o c #5A4229",
"O c #392910",
"+ c #5A4A31",
"@ c #6B5242",
"# c #5A4221",
"$ c #635231",
"% c #523918",
"& c #635239",
"* c #6B4221",
"= c #312910",
"- c #292108",
"; c #4A3921",
": c #7B5229",
"> c #313131",
", c #73634A",
"< c #524231",
"1 c #845231",
"2 c #735A39",
"3 c #423121",
"4 c #734A29",
"5 c #422918",
"6 c gray13",
"7 c gray29",
"8 c #212908",
"9 c #5A5A5A",
"0 c #101010",
"q c #4A3929",
"w c gray16",
"e c #100800",
"r c #7B6B4A",
"t c #735A4A",
"y c #7B6B52",
"u c gray26",
"i c gray32",
"p c #525239",
"a c #392918",
"s c #393939",
"d c #181818",
"f c #8C5A31",
"g c #081000",
"h c #8C7363",
/* pixels */
"-&*X$<.o$3oo3XX;=r3o%;..##<X##=$ iOOOOOX3@o+;&.<-+OXX;Oo3$#<X.<.",
"=@o.&++#**o..X..=,Ooo..+.ooo.o#< ,O6O.-Xo$&XX,XX=,OO.XXX..$%X%.o",
"=@:<o@oXoX+XOo..=y.XoOXo.XXX.Xoo $OO.XOoo@1XXXXX @:#%XXOOo.oo:..",
"-&4o$@.o%$X.XO;.-r%oX;oo..$XO%o% ,3-.+=<o@&oXX&> $.%%4&XXX.o=4#O",
"-+1++$XXo@o%%<o-=,++XXO:.O:.X.oo @.=XXO<;$@+o+&O &.....&X.Oo.O$O",
"-&@@o1+O1*+ooo%.=,oooXo@X.toXo.o +.-XXO;XX&X+<X;e+OXOX+<@O;-oO.#",
"=+:*+4#O*ooXo.X.=2#o+.ooo.@XX.oX09o>+o;o$9@+$$++e+.5O+X.ooOXO1=@",
"=$@$;1#O*#*.+XXO=@$X$Oooo%oXo.o+e> =-= =OaX===O- +O.O%..#::.Xooo",
"=+11+1o#XXoXoX.+=@o$@.Xooo.XoXXo $5.OO6OO%OOO,X. &...Oo..%Xo+X@X",
"-&@1#@++X...oXXX=@o@@5oXXXOo&o.o &65wO=O=X...@..-@%.%O.>XOO$OXoo",
"-&@@+#%oX.+>7Xo.=,#o*.o....*ooOX0&O>>.6>6X.5.:oO ,:4%.OO>X.%$O.o",
"-&@:#.Xoo#..X...=$%$o.oX$XX*o+%O ,OXOX6O-XO..o.O $#*#4oX.%XO+@..",
"-&@&o$%#.#..%%OOO$#oooXX+Xoo$.o< &-O8<OOOX.OXXX. @X.OX9$+.%%.o..",
" @o@#@$%oo...X<X=@:3oX.XXX.*+;%.0763O;-O;.O+.oo. &oO..;#1o..X.oo",
"-&o,$$$+@+$ooo+o=2o$%%OXooX&+XXo $-O3O63XXO$qooO &=...O.#&XXX..o",
"-O-O=OO=O=--O=6w=@%4...o+#&#*o.o &5..-O>.XO+.+.O $OOO.....1+%Ooo",
"-@#ooo%%o#:%221,=@.oo.o..o*X$o.o 96OoOO>OXXX.o.. t+X..OX..##..XX",
"-$oo%o$.##*or,2@O2#o.XoX+oo.&++# $Ow+OOO.$.X.&..6@+&&&&OOOXXo...",
"-@o*Xooo.ooo2h,@=@**Oooo+o:oo@oX &OO.O=X=o.X.ooO 2.....+oOO..$XX",
"-$#*.:##.oooo@,$=$o+...ooX4o$@.o 7O5.O.O.o.o#*.. +.XX.o.4:.OO+@X",
"-@oo.:o@Xo.#*X1&=$O+XXooX.1++&XX &5X.O.O..XX.o%O +o..X..X.fo83.$",
"=@.o#o#ooX.#$+,:=$XXoooXoX@@o1oO @OX.w.OX+XX%$.> +OO.OO.Xo#*<=XX",
"=@Xo.o.o...%$Xy$-@o$+,+$,o22$2$og&O.XOOX.o<..o%X ,O.o%%O.%##o<;q",
"-@&X.o.$....*.,@ X=O=OOOO=OO=%O- &5Xo8OXX&X+X+XX @%..O%.OO%o::<a",
"-@*o#o#:%.X.oo@@ $.o*#@oo#++oo%% &.XXO;..&oX.XXX @4ooo%$XXo44X,;",
"=+oooo**%#XX*o*4 @.o*X*##%#o%o$. &5..-.OX+$oXoO%8$oXo..%o#..oX++",
"-@#####**oo.XXo* tXoo#:#ooo*Xooo $5oX->OO@+Xo@.o +..#..%$$oOXXX,",
"-@%ooo.+Xo..+X++ @oX+X$&o%#*.:## 75X+-O.XX+oX@OX +.XX.XX.oo@.#*+",
"-&oooo.ooo#oooo. @oo&X@+<ooo.:o@ &OX&OXX.$XoouOX +O6.XXX.Oo4o*.#",
"=&.o.&X+@o&#oO$X-@&X*.o$@o.o#o#o +.5o6>.O@.o.X.O +.XX+oo.o.@+X.%",
"=+.XX*Xoo.@.oXXo-@oX@oo+&oXo.o.o-+OXXOXO.4XXoXo. @o$$+$,o$++2$$o",
"-@oXX#.%$X**o.o.-@.oo+.ooo$X.o.$ &.OpOO.X@o.X..X O8OOOOO=O=-OOO-",
"-@#ooo%%o#:%o...-++o.%oXXX.o..o. &OXqO...9+%.XXX8+q+.$O.O+4#.%<.",
"-$oo%o$.##*ooX..-+o.o.oXX%.XoOo> &...-.OX+$oXo.% &+3.XO.5#*o+#.+",
"-@o*Xooo.oooXXXO8+*o.XX+XoXo..o. +5<X->5O@+Xo@O+-@O<+X.OOX&o.%OX",
"-$#*.:##.ooo.O.;-$o.O%.o.o.o..oo 7.X+-O;XXooX@OX 2..X..OXXXoXOOo",
"-@oo.:<@Xo.#o.o.-$oXO..*.o....XX &OX&OXX.+ooo7OXe@@=XXXXXX.$X.;.",
"=@.o#o#ooX.#o...-$o....XX.Oo...X +.O+8sOO@.o.X.O @@O3XX>...:XXXo",
"=@Xo.o.o...%oX..-,+XXX>XXXOXXOXX-+OXX5XO;:XXoXo. @oX.X+O>X=**.XX",
"-@&X.o.$....XXXO=&o.oooXoX.oX.X+ &.O+O55X@o.X..X +XoO.oXO.=*@.oo",
"-@*o#o#:;.X..O;.-$##XoXooo=+X.o.d&OOo5OOo@oOX+XX +O:.O.o.XO@o##*",
"=+oooo*4%#XXX.XX-,3XX&Xo.XXo..o.-+>6@.O..2o.o@.o &OO:OXXwwX&o.OX",
"-@#####**oo.X.o. 2.O.oX*#.Xo..XO8&OOo85XX2%.#1o. @O.1$.oO.XX@X5.",
"-@%ooo.oXo..+X+o-@O;o.o:..X&.Xo.-&O.>O>OX@.oOXoO 7X.o25%.XXX&+X.",
"-&oooo.ooo#oooo.-$XXXo#*ooX+X.XX &O>X5+-.4XX%XXX8&<O.+..o.XXo@.o",
"=&.o.&X+@o$#oO$X-$XoO%#ooX.ooXXX 96XXOXO.+#.ooX; @;O=.oX+XXXo+X.",
"=+.XX*Xoo.@.+XXo-@.XXXX*..XooXXX &O.uOX.O+o###.. 23;.Ooo.X...@XO",
"-@oXX#.%$X**ooo:-@#ooX@*ooooo##%0&OXX5.OX@+X.*O. +*<.O%$##%..4##",
"-@oX##O$.oo%%#%o $.o*+@oo##ooo%% 9O5X.OoO1oo.XOX $<#3..ooX.o.o.O",
"-@oo.o%o.oo.ooXX @.o*%*##%oo%o$. tO..OX+Oy+#.oO# @q:o..#.o.X..o.",
"-&XX.Xoooo:3ooXo tXoo#:#ooo*Xooo @.XXO.oX+4.X$XX &%%o@OoX+X.Oooo",
"-+&XO#o%#%oXXoXo @oX+X$&o%#*.:## @XXX.Xp;@9Xo&X. +Xoo@@.###...#4",
"-+:.X.oooXX.+XXo @oo$X@ooooo.:o@ &>XX.5&O,;;#+%% &.X*X@O:...OX**",
"-+@oXo.ooXo*oX.o-@$X*.+$@o.o#o#o &X>X.5%.,X.o@O&-@XO##*#.OX@X+.o",
"-+@XX.oXoXo.oXX$-@+X@o<o@oXo.o.o @X.XO...roO$+O@-@oO#%:4%%.XX..o",
"-$oXo.o+XXo.XX.+-@3oo+.ooo&X.o.& iX=+..oX,X.XoO& @+XXX;&Ooo.$XXX",
"-@.XoXXoX.o.o..3-@X.oo.:oo*o#o#407O.oO.o>@.o+ooo +o%oOo@oX+..+oX",
"-&Oo&o.oXX&XoX..-$$%o..o$.oooo*4 &65XO.X>+..oo.X &o@XX.o,....:3.",
"-+.*ooOXX.o.XXXO=$1.o.oo#######*0&OO+OXO.@oXoo.X &..@o..4oOo.o$o",
"=&X*o#%.>.o%.O;.=$*XXoo.%#%ooo.o07.6%.X>O4*oX@OX +O.o*#.OruXoX+@",
"=&oo&.oXX.X%XOXXO$oo.oo.oXoooo.o +OOXOo..*1o.o%X @OXX.o..ooX$..@",
"-&.*o%%..oooX.o.=@oo.oX.$X.o.&X+ &...OXXX@X&X&XX8@OoO..X.#4.4+;&",
"-@X&+XXoo...XXo.=@ooO@.%4..XX*Xo &5.+O%>>$o@.oX> +3o.+O.&%%*#&XX",
"-@&#*o.o@.oXo.oo=@%oXoOoo#oXX#.% &.OX.>XO@+oXoX+e+OXX.*.@o#4.@o#"
};
