/* XPM */
static char *woodx02[] = {
/* columns rows colors chars-per-pixel */
"64 64 42 1 ",
"  c #181008",
". c #5A4229",
"X c #4A3118",
"o c #523929",
"O c #392910",
"+ c #5A4221",
"@ c #6B4221",
"# c #5A4A31",
"$ c #6B5242",
"% c #523918",
"& c #635239",
"* c #635231",
"= c #7B5229",
"- c #734A29",
"; c #845231",
": c #312910",
"> c #292108",
", c #423121",
"< c #524231",
"1 c gray13",
"2 c #735A39",
"3 c #73634A",
"4 c #4A3921",
"5 c #422918",
"6 c #313131",
"7 c #212908",
"8 c #7B6B4A",
"9 c #735A4A",
"0 c #8C5A31",
"q c gray16",
"w c gray29",
"e c #525239",
"r c #392918",
"t c #7B6B52",
"y c gray26",
"u c #101800",
"i c #4A3929",
"p c #846B5A",
"a c #8C7352",
"s c #946339",
"d c #313921",
"f c #5A5A5A",
/* pixels */
":4::OOrOO:OX4oXOOOXX4OOX,:X4o::,X+,.o<#OX2,++4o.,..4XX<O.OX.4OOX",
"O4O,O4OOOO,O4%oX4XX%O5OX+:Xoo>Ooo.O.+ooXX3X+.#o.o=+.oo.O.XXX.XO%",
"OXOXOOOO:OOOOX%X:XO<:OXoO>O+X::XooO.@.ooO3%XX@Xo@@XXooOX%ooO$OXo",
">:XXXXOOO,X:+X%O:XX%:OoXOXXo%>O%oo>...ooX2.Xo@OXX=.XoXoO.%OOooOO",
">:O4X.XOOXO:OO%XXOXo>OXX>OX.X>OXX@>*..oXO$.OX&OXX;X:+O#6ooOOooX%",
":>O:OO4OOXOOXXOOXO#.>oXoO:X%OOooo*:;..OXX.%OX&4XX$oX.:.oX.O:.ooo",
">::XOOOXOOXXOOqOXX..>oo.OOO%OXXX@; $..o.X#*oo=XoX%.X.O<.o$XOX...",
">OO>OXOO.X%OqOOO.ooo:XXoX5X%75o:#&O$@@ooo&@XXooOXo.o&Xo.o.XX....",
"O>OOOq,:O#%OXOO:XXoX>XXoOX%5O5oO.@o#$@o.oX.+%.%X.XX@oooo.#oXo..@",
"O:::O:::::OXO::XXXXX:OO#Oq%X:OXXo#O$=.X.@X@.o&.o..o.oooo##o6#X.@",
"OOO::>>O::OO::7OOXo>>OX.X:%O:XXO#$X@@@+@@X=@+=,o#oo#XO4X.ooo@o+$",
"OOOO:>>:OOO::7,OXOo OXXoOOoO7OoO#9O$#...&o$.+..X*O.=ooOoo&X.@+X-",
"O1OO::>::X:1:OO,OXO7XO.XOOXO,OXX$#o#$&o*.X@@X*oo=X*;oXX.#$X@.@X&",
"OX:>O>OO:>7>OOOOOo:>,>oO:XX:XXXO$o.%3%%.*X$@X@@X$O&9XO%@Xoo$o%o&",
"OXX::OOO7>r:::O,OoO>:O.OXXXX7OOo$X.o$oo..+@..=..#o.*.Xo$XX..o.o$",
":XX5XOXO>:::O:,X:XO:OO<:XOXO>oXO#..o##o.*X+*%-.++X$$ooX-X%o$.#o$",
">Oq>X::X:>4>,X%:OO:OOo.OOOoO:Xo>@..+.o.+@X.=.-.%X+.-.%X*XoX@#w#&",
">>>:OXoO>O,OOX:O<O:OOX.O:OoX:OXX..$X=.@+@X%*o..*X$.#o#O2Ooo&$.o@",
">:::::oX<OOOO>>OX:>::XXO:OXX>O5Xo&$O$..o.o..*.#.X..$..X.Xoo$$X%$",
"O>O::OOOXX4X>>O+uO:O:X::XO%O>XXX#o9o$y.o..++-@+.X#@&&.X@Xo.&@X%.",
"OO>:OXO> :X%X4%>::O:OX::XX.O:OXOy#3o##o.X.++$.o.O;@.$oo.Xoo&oX..",
" OO:O:o::>>O#:>::OOOOX7OO1dX1OOOe#3oo&ooX...;#oX.;X@@X%.X.oo+++o",
"::OOOOOOOO :O>>:OOO#O ::OOX7>XOO$-;,+$OoX+..;.+.X$X.@X..o#&o.+XX",
"O::OOO7>O:X>O>OOOOOXO>O4XXOO:@XX=@;#X$oooo.o;...o#..@X++.o$OooOO",
".OO>OO>>O:>>OO::>O,oO::XOoO>:.::$$3++...o.X.;o&.-oo$@+...o$XooOX",
".XX>O>OO>>:OOO:>:>OX:O :,X>OOXXO=*3*+@.o#oO$&.$X@.o&.++..O$Xoo#X",
"X.O>:::OO>OO:O: :XOOOO:O+X>OOXOO*.3&X$.X@.O.3o@+$.o.#.X.oo$o#oX.",
":XO:>OOX:O:O>>:>O%XXu ,X+O:4OOOX%$$=,..X;#o3*o;o&&o+-.o#*X#X.O..",
">O<OOOXO5XO>>>:>XXX:::O4$:>O:OX%.;@-O$.+$*#*&+=.;...$@X#*O.X*%X*",
":X@XX5OOOX::>>:O%O:>>:O%#OO:OOXo+-@=.@..o.@.=+=+9.o&@;o..o.*#o.#",
"::XoXXOXXXOX>O:Xo:O7>>OooO7>OXOo+*o*X@.%.%@@+X3O$@@&#$o$....%.+*",
"OO>.@@%XXXXXOXX%XO:>>rO.4:>>:+:+.@+=X.*Oo..@#+$X2=.;.3+-XX.o..o%",
".oo.3O.o#%*.&o;;..<4=X.#oo#+++=+XO75:O7,>4OXX$XX.O#OoX.*#O.X.X.o",
"XXX+@;Oo..X$o@+.$.##-o@=..4+@+.#O1>5X::>OO4OOw>O.O.XooX$#XXXOO%o",
"OX++X.$.+..-X@O$;......@@@@+#++=O:15OO5O.4X4o.16.o#iooX&#O5oXo#o",
"#X+.o..#+X$X+.X@@;==.@.ooX$#+@@.:O7Oo761oo>O+#>ooOooOo#$#OX#O#..",
";@Xo.o.%O+.oooXXo*;*#$X..+@+;+$%:O>Oo1<1<#>oX#>X#O.XXo.$#O.%Oo*.",
"@+ooo+@oX+@o...O&&;0=*o&.=++*@$$O>O1<1OOoXOoo#O6oX@Xoo.*-OX.Xo.=",
"X.oO.@+@..Xo....X.2.t&&.+;@@;<-sO1,1%,OO,oooO$OO.X.OOoo&#5ooo%%-",
"X..X:X+o.&OX.+++.+-.;8=+@2$.&$22O1O,oO:O>oO<O..OoX.XX%o$#O#XXX.+",
"X+=%.O<.%o.oo@X@@@X&$=;=..$.@8;;,,XOXO1OO+OXO3oX%O#OXo#$oOe<X%.o",
"X+@@..X..%.X.X&o-@X&.*;;$@238$;;XO75:O7,>oOXX$XX.O*OoX.*.O<X.X.o",
"o.+-=...%....oooo.+@+@#;;=-@=@==OO566X161oXXX=.OoO#XoO.$oX<.Xoo#",
"@ooo$$.X..#@..*$+@oo.+$..@-.;*@@O<OoOo1O:oOXX#XX%X+++X#$oX#XO%X.",
"+X@o-$&X.X.o.ooo9o;.o+++.@-o@+=+OX>57<OOOoO5oooOXX.X%o.$oX.oOXX@",
"+@oo-*$&$.*..X.o9o+@ooXX%X+.X+@+O115Oi>5XXX#Xe.XoX.X&..-+X.XXOXo",
"+X.o..-p.o@$.=.%X=@$o.OooOXo.*$$OX>X5O15ooO#o#<OXX@X@..;+##ooo6o",
"X+.oo@$3.X=..$o++-=-o&X.oo*..@&&5XO5X7O6XoX#X#XXXX.X...$o+.X...o",
"@....o#$$+-X-@+....@.&@..2@-+#4XX61O#rO6OoooX#XOXX=O.O$$o%++o.o.",
";@X.Xooo.;..-@@.-+X2.+@;;;X.X$--OOO1#OOOX*5oX&XXXX$X.of;+*Xoo&o.",
"@++=+@+@@=++++@++@X@2-X;;..+-a+<XOOOXO:o:#XoX..OXo#O..#;X@XOX.o@",
"X+X+@+.&..;+.+.+X-.%*3X@-+80;++XO1OXOOX5X.X.+@XXXo#X++.=+.OX.X.=",
"o@o.&o#o@@3+&@+@+.&.+-;-..=@++.oOXOoXOXO6XooX.%OXo....%=.Xooo.+@",
".+@+;o...o&;..@..o%;X+*$o$+.X...XXOoXqXO%#oo%*X6oo.o..o$+Xo.O%+.",
"X+++...+++.-Xo..*oo$.X;#O0++X+*.OOOXoOOoX.+XX.%oX.-+..@=..Xoooo@",
"++++@@@@o#.$$Xo..oo..+.$ot.%X.*-OX6o.>Xoo&o#o#ooO$o%..*$.o+..o$@",
"$....@=+o&@;$+@.oooo&@.2O*$#o&o-XOXooOXXX&.oXoooO$oO#X&;%XX.@#$.",
"$.o..-.@@&@.9.@++@.&&$@$o#&*<@X-XXOXX>XOo#&.o.O%X$X.+=+2XoX.@o@+",
"...o.++2X;&o$$---...$$@$o#$=<*o.O7O+o>6OO$#o.$X.X$X..+.2o#o..+=+",
"-.$.--.0+=o;=;-+@&#o@@.;X$2-*&ooX1,o#>OXoo..o$Ooo%Oo##o3X..o#o*&",
"$.-X@&@@$+@++;.+.+.oX..$.@@=..#;5XOo&OooXe<..wOo.5oX.$oto...*o$<",
"o@-&&#&@;#oX+@$...#o6o.X-;--+.$@X>XO.16XO$4.X#XO*XXX.*X8&o*o@X.*",
".&.$.@-@@8X+=@;o&o@@+X.++$--%=;@X75ooOoOX=4o.#.X+.Oo.X.2@.#o$#<.",
"o*.2.@@@-0+&&@$.&.&$$XX...@.@.;@X,OO*O5Xo$.Xo<Xoo%Xo.X.8..X..#X."
};
