/* XPM */
static char *cc0059cf31994b68e29db68993761f36vyyvBZOdYDN2MUG2[] = {
/* columns rows colors chars-per-pixel */
"64 64 13 1 ",
"  c None",
". c #000000",
"X c #141413",
"o c #2F1C17",
"O c #28221F",
"+ c #382B2F",
"@ c #2F3233",
"# c #383F40",
"$ c #3F4748",
"% c #464C4F",
"& c #464D4F",
"* c #536265",
"= c #62797E",
/* pixels */
"&&&&&#&&&&##@@@X                        .####&&&&&&&&&&&&&&&&&&&",
"###########@@@@X                        .#@@@###################",
"###########@@@OX                        .#@@@###################",
"+++++++####@@@@X                        .#@@@###oooooooooooo+o++",
"###########@@@OX                        .#@@@##o+###############",
"########&##@@@OX                        .#@@@##o################",
"########&##@@@OX                        .#@@@##o################",
"&&&&&&&&*&&###@O                        X*###&&+&&&&&&&&&&&&&&&&",
"########&##@@@OX                        .#@@@##o################",
"&&&&&&&&*&&###@O                        X*###&&#&&&&&&&&&&&&&&&&",
"&&&&&&&&=&&###@X                        .*###&&#&&&&&&&&&&&&&&&&",
"&&&&&&&&*&&###@X                        .*###&&&&&&&&&&&&&&&&&&&",
"&&&&&&&&=&&###@O                        X*###&&&&***=*====*&&&&&",
"&&&&&&&&=&&###@O                        X*###&&&&&&&&&&&&&&*&&&&",
"&&&&&&&&=&&###@O                        X*###&&&&&&&&&&&&&&&*&&&",
"&&&&&&&&=&&###@X                        X&###############$&&&*&&",
"&&&&&&&&=&&###@O                        X*#################&&&*&",
"&&&&&&&*=&&####X                        X&#################$&&&*",
"=*======&&&###@O                        X&&&&&&&&#&#&#######&&&&",
"&&&&&&&&&&&####O                        OOOOOOOOOXOXXX.@####&&&&",
"&&&&&&&&&&&####@OOOOOOOOXOXOXXX                        .####&&&&",
"#######&&&&##################OX                        .&###&&&+",
"&&&&&&&&&&&$##################X                        .*###&&+&",
"&&&&&&&&*&&&#################@X                        .*###&&+&",
"&&&&&&&&&=&&&$################X                        .*###&&+&",
"&&&&&&&&&&*&&&&&&&&&&&&&&&###@X                        .*###&&+&",
"&&&&&&&&&&&*&&&&&&&&&&&&&&###@X                        .*###&&+&",
"&&&&&&&&&&&&#++++++###&&&&###@X                        .*###&&+&",
"&&&&&&&&&&&&&&&&&&&&&&&&&&###@X                        .*###&&+&",
"&&&&&&&&&&&&&&&&&&&&&&&*&&###@X                        .&###&&+&",
"&&&&&&&&&&&&&&&&&&&&&&&*&&###@X                        X*###&&#&",
"&&&&&&&&&&&&&&&&&&&&&&&*&&###@X                        O&###&&+&",
"&&&&&&&&&&&&&&&&&&&&&&&*&&###@O                        X&###&&#&",
"&&&&&&&&&&&&&&&&&&&&&&&=&&###@X                        O&###&&+&",
"&&&&&&&&&&&&&&&&&&&&&&&=&&###@O                        X&###&&#&",
"&&&&&&&&&&&&&&&&&&&&&&*=&&###@X                        O&###&&#&",
"&&&&&==================&&&####O                        O&###&&#&",
"&&&&=&&&&&&&&&&&&&&&&&&&&&###@X                        O&###&&#&",
"&&&=&&&&&&&&&&&&&&&&&&&&&&####O                        O&###&&#&",
"&&=&&&$######################@X                        O####&&#&",
"&=&&&#########################O                        O&###&&#&",
"=&&&$#########################X                        O####&&&&",
"&&&&#######&&&&&&&&&&&&#&#&##OO                        O&###&&&&",
"&&&&####@XXOOOOOOXOXOXOXOXOXOOO                        O####&&&&",
"&&&&####X                        .XOOOOOXOXOXOXOXOXOOOO@####&&&&",
"&&&&####X                        .##########################&&&&",
"&&&%###@X                        .#########################$&&&+",
"&*&&####X                        .&########################&&&+&",
"&*&&###@X                        .#######################$&&&+&&",
"&*&&###@X                        .&###&&&&&&&&&&&&&&&&&&&&&&+&&&",
"&=&&###@X                        .*###&&&&&&&&&&&&&&&&&&&&&#&&&&",
"&=&&###@O                        X*###&&&++++++++++#+######&&&&&",
"&=&&###@X                        .*###&&+#&&&&&&&&&&&&&&&&&&&&&&",
"&=&&###@O                        X&###&&+&&&&&&&&&&&&&&&&&&&&&&&",
"&=&&###@X                        .*###&&+&&&&&&&&&&&&&&&&&&&&&&&",
"&*&&###OO                        X####&&+&&&&&&&&&&&&&&&&&&&&&&&",
"&=&&###@O                        X&###&&#&&&&&&&&&&&&&&&&&&&&&&&",
"&=&&###OO                        X####&&#&&&&&&&&&&&&&&&&&&&&&&&",
"&=&&###OX                        X####&&#&&&&&&&&&&&&&&&&&&&&&&&",
"*=&&###OO                        X####&&&&&&&&&&&&&&&&&&&&&&&&&&",
"=&&&###OX                        X####&&&&******=====*=*========",
"&&&&###OO                        X####&&&&&&&&&&&&&&&&&&&&&&&&&&",
"&&&&###OO                        O####&&&&&&&&&&&&&&&&&&&&&&&&&&",
"++++oooXX                        XXoXXXX+X++++++++++o+o++o+o+ooo"
};
