/* XPM */
static char *brik08[] = {
"64 64 40 1 ",
"  c #4A4A4A",
". c #394229",
"X c #424A31",
"o c #313921",
"O c #392918",
"+ c #525239",
"@ c #423121",
"# c #523929",
"$ c #4A3921",
"% c #4A3929",
"& c #293118",
"* c #524231",
"= c #422918",
"- c #5A4A31",
"; c #424242",
": c #523918",
"> c #5A6342",
", c #392910",
"< c #4A3118",
"1 c #636B4A",
"2 c #5A5A5A",
"3 c #5A4221",
"4 c #635239",
"5 c #212121",
"6 c #5A4229",
"7 c #6B5242",
"8 c #6B6B52",
"9 c #312110",
"0 c #635231",
"q c #292108",
"w c #313131",
"e c #292929",
"r c #737B63",
"t c #393939",
"y c #636363",
"u c #312910",
"i c #73634A",
"p c #735A4A",
"a c #525252",
"s c #6B4221",
/* pixels */
"OOO ,$;#*@$$#.X+X=O@;=,oO#X.,*@Oe,,;@.XXo=XsO#.u;,;#-,:$*$#..3.,",
"OOO; @@6*$@O*oX+,@O;OO.o@<$;,#@@,$;@$&X+.X+3X.X3,#;X-@,$#$$.@:o,",
"O=&o.@@X$,.+:&X+OO,Ooo.;@:@X=:2,;$;;@&X+oo+3...q@23:+$,$$, oO+.,",
"@,;o@;,*%X@;@OX1O@#%+9=+@$$o##;;@X-.,&X+o@;:...Oo2aX+6$$$,;&@+><",
"@$@X@$@*#%X.OOX1=#:O O..o:$;#-.$,<X.#&X+Oo+:.@.$.+X:-$$,#.,w@*X,",
",@,=X@.*@.O.O&X8O::.o%OXO:$X,*X@=O.o@&X+O.>3o@@$O+XX.,#O,<=;O*X$",
"$O$=X@@#@@O.OOX1O##Oo,X.@<.o@#X@$,=.@&X+@@X:..$@o*.X.O3&,< OO+.,",
"&,OOX@@-$@&%%O.+,O6O.$$.%<Xo@#$%$=@.<&X1.@.3o.;$O*X.oO,,;=;wO>.,",
"O$=oX$=#@.-*@&.+,@@,.@%.@%Oo@#-@$=$.=&X1..X<o.o@,$*o@OO&#%oo,#o#",
"i<$o.=@#*.#*5&oX<=$@.@X@@==&@:#$O@..=&+1..;,.o.@,$$o@@@O:3.&O+&3",
"e&&&&&OO&&&&&&oXXXo&&&&&&&&&OOO&&&&&&.+r&o&&&&o&&&&&&&&&&O&&&&&O",
"+.ooo....ooooo..+88+...oooXXX.ooo..XX11r+X.ooX11+XXX..o&&o..XX++",
",,=<.=;*-*+-$%.@X11X++X.OO#&@+*$O@@.O%o@.-X$@.O=.++oo..&&$$o@-.$",
"<<O=.==-X%X*#%@oo+1*+*..@OX&@*:.OOOoO=.%XXX=@o.=<=Xo.oXo,#$&.#.o",
"====.oo4#@*-*+-O&X>--*1+.@$o@***O$%OOXX>X>*$#&=#=#+oo&Xo3:X&=+.=",
"O$=.X%%>#-#>+**;&.>-##X+**X.:--@O@@.@;X-++-#+><=,O...&.o##X..>.o",
"O=O..=#-#%*2**+;&.++*$%X2+6X@-@.OO.>O=#7+XX-X+.O&=X@X&oX$+X..>%@",
"O=....@4--#>-%$O&.+@ @+*-#:>O*@@=$&.$=#pXX+*XX.,=..4-&o+$#*oo>o$",
"O=Xo#;=7##X*4%XO&.>XX+>#-#*>,3>.@=..%o$4#X+-X.$=t.+#>&.1=:*oo>.@",
"O=#=...7#% ->#@q&X+X-+>+*#X.=6XXO#XX.o#-$%+*X.&,O.++&&X1<=#o.>.X",
"&&&&&&&&&&&&&&&&oX1oooo&&O&&&=oo&&o&&&&OO&&o&&5&&&oo&&X1&&&&&o&&",
"+X.oo.Xo.o..oooo.+8XXX.o.o.o.881+X+X.o&o..XX+.oo.XXX+X1r1+X.+XXX",
"++$@.$=4.# -*>#*O*@@**>+*3:.X+1+=$ +@.X>+>>7+.#3,#@X#@*oO,.=&+@X",
"+$X%X.@1+* 0++:-@@@@X+*++:*ooX++=%#+X@X>>>>7XX.#,o&..%X@%o.e&1=&",
"o$##+#X>***>+*X#;OX9XX>X*@Xo&X>#7X#1OX#-+++4+>.$:=X.**Xo@..oo>.&",
"X@@X.*X4#++>+*@$=#$#%@+X%;:o&X1.=#$+=$-*>++-+X.:X=oo+:#@$#:.o>&5",
"X;@..XX>*X+0-*$%O$$+.#XX@$@.&X1%==%..XX4+*+>+X@:$=.o+#$O$:$oO>.&",
"X$;$..*>*#->-*X#=y%>%.X+O$$.&X>$;#+X=+47+-+-X>.3$X..X##.=<+;.>>&",
"+,@@Xo-+*X->+*.@,#y*+X+X%9..&X+OO;$X$X:*>>>-XX.;=X;=X*$#O,:.&#.&",
"XO@@o&*#*@+>+*X.<#--+XXX@%@.&o>OO=#..=X%+>>0+X$$#$o.+#=$,.<;O1.5",
"X$@.&@%4+%****@O=---#oX.@2$q5oX@O$=.%.X*>>>o+X#<<=..X@=$O#,o&+&5",
"XX@&&&O&&Ooo.o&OO&&&,&&&&oO5&oX&&&&&&&ooo..o&&&&O,&&&=O&&&&&&&&&",
"+++...ooooX188++XXX..X+.Xo+oo+1XXX+X+X+X+88+.X++XX.o.XXo+oXXXXX+",
",$@oXO;7X.+X1++@OO>*XXX.-$+XO>@oO @...*>X+1X++#.O%..+# :=;#o=+o6",
",%@@o@ *#%X&+X:;OO2X-+>+*%%.@>@oO ...OX>oX+4++:O=#+.++#-,<%.o1o=",
"O@2X&@;#@@+&+X@X@O-#-+>+*%#o@1 oO$@+.%+-oX+>++#O@X+.+#.X=,%o;>Xt",
"O$#%o@;X.%*&XX&O@@2++-+*#;+oO-=@OX.X..#-oX++++#=$=+.+%=otOXo.+.o",
"@$#Oo...+;.&XXo;@,6O*->+*:*XO>;X&$*+. ->oX+>++-= X+.+=#o$;@..+X.",
"X#@..#o*.%@&XXOX#%$@>++X-*+XO-@@&$@X.;>+oX+4X+#%=+;.X#.o=;@.o+..",
"@$@X.@@-.@.&XX.%@$$@$+>+-#%.O*w.&X.#XX*+&.+-++%%=@..X.;@=w.oo+&X",
"@#*+o%@+.@&&XXO.@$#..X+XX@@oO*@@@&oXX.X&&.+-X+%# .....%@<O=&@+X@",
"&&&&&&&&&&&&X+o&&O&&&&ooo&&&&OO&&ooo&&&&&.1o&&O&oooo&&&&&O&&&&o&",
"+X+oXooXXooo+XXoooXXXXX++XXoooX++18+.ooo.18+XooX+>1+XXooXXXX+oXo",
"XoO$..1XX@o-.o..;$*%@o..@$.XO*%Xo>+oXX>+X>+X.+X$;$.o.XOXO= oX++X",
"X@@=.@+X@..-@&..O#6*@..o.%@&O2*o&XX.X.X>XX>+.XX=;#@oX@ XO;.oX++o",
"X;O..o@*.oOXooO@O*-*+@X..;oOO--@&.X.#oX+.X++..X<=$o.oo.+O,.oX++&",
"X$O..$.*oOO@o.o@O2*-*oo.@$XoO##@Oo..#oX+X+++..#,#=..oO$X=<.oXX+&",
"o$;..&.+.o@ooX;@OO#X*.&&.$O.;#*@&o..#.@*+XX+XX#;<.&o.O;X<;%.X.X&",
"+@@..o*+.@OoX+@O@$;.+o..+@X.O#@O&o.X-.X+X+X+..$O$=&.XO o*;$@..X&",
"o6@@o&X1.@&.XX@oO&$O.o>XX@X.O2..&o.X#.@+.+X+.o=u .o.+@%o:O@o.X&&",
"X@;.o@$+OO$....OOO@oXo+oX&..-$#&5o..X$.+X.>+.o%==...+..@@@$o.X+&",
"oo&&&&&&&&&&ooo&O&&oo&&&&&&&&&&&&.+o&&&o&&oo&&&=&&&&&&&O&O&&&&o&",
"Xoooo.XX...X>>+XXo+11X.ooo..XX.o.18+XXXXXXXXXXXX.oo.X.oo&&oo.X++",
",OOoo@% .O.o.o@%O@X+Xo.+.%XX@0XX&@o+#O+>..++.&X+XXo..O@o=;.o...&",
",@@oo@@X@X@ooo.%@@&XX..X*-X.@:..OO%.*OX>XX>*o.@oXXoo.#%.&$.o&...",
"XO@..@.-o@.ooO=$@@&oX.@X*$$.9@O.$@..#&.*XX>*ooO&.XooX##=<=$o&.X.",
",#@.o@@*o.X.oo<.=@OX.Oo.$2=o9$@XO$..*.XX.X+*&..&.X.o#=%=&;oo=+X@",
"@6@o&@@+oO@.ooO%==OX.ooo.$%oO=$XO@..+@+ooo+Xoo.&oX.o.%O.==o.@.+%",
"::;oo.O..O%Xo.=$=@OX.o..@#@&O#X+:##+:.@+.%o@o.@&oX...=O.,;.oX>>.",
"2$@OO.@@.O.-oo$=@#&XXo..$@XX@#%X$2#@X$++X@o@&.@&oX...%O@O$$oXX>+",
"$@$OoO @o..Xoo&.O-&X+o.o.$%o@*-#O$%.X@.X.oX.o..&oX$=.=X.&=@.X*>%",
"6@@o.OO@o&O&ooO=Oq&XXoX..;X@@$%@@$:.#.&o&.X..o55oXoX.@@.O=Xo.++.",
"5O&&&&&&&&&&&&&&&5&X+o&o&oo&O&&&OOO&&&&55&&&&&5&oXo&&&O&&=&&&&o&",
"oXoXooo.....XXoo...X+++XXXX+XXX+XXooXX.ooooo.X.o.+XXoXXXXX.ooXXX"
};
