/* XPM */
static char *brn04[] = {
"64 64 13 1 ",
"  c #423121",
". c #7B5229",
"X c #734A29",
"o c #6B4221",
"O c #5A4221",
"+ c #523918",
"@ c #4A3118",
"# c #392910",
"$ c #5A4A31",
"% c #524231",
"& c #523929",
"* c #5A4229",
"= c #4A3921",
/* pixels */
"OOOOO=O+OOOOO=++OOOO=+OO=O+OO=@@ @@ @@ @@ @@ @@ @.OOO=+OOOO=++OO",
"O .OO+O++OO=O+O++=OO+O+++++O+@@+++++++++++++++++@+.OO++++=O++++O",
"OO=+++O+OOO+O++OOO++++++O+O+@@+...OoooooooooooooO@=.OO+O++@.O+++",
"O+OO++O+@.=+OO+OOO+OOOO++O+@@+.oooOOOOOOOOOOOOOOoO@+.OO++O+o++O+",
"OOOO+OO+OO+O+OOOOOOO+O++O+@@+.oooOO+o+OO++O+O+OOOoO@+.OOO++OOOOO",
"O+OOOO+OO+O+O++O+O+OO++O+@@+Xooo$=+O+++++++OO++O+OoO@=.oOO++++++",
"OOO+O++++O+@.O++@.++OOO+@@+.OOO++OO+O++++O++O++O+OOoO@+.OO++++++",
"+OO@.=+OO++OO+OOO++O+++@@+.OO+O+O+OOOO++O+OOO+O++O+OoO@=.oO+++O+",
"OO++OO+O++OO+O++O+++O+@@+.OOO+++O=O+++OO+O++++O+O+O+OoO@+.OO+OO+",
"O++OOOOOO+OO+OO+++OO+@@+.OOO++O+OO++O+O++++OOO+++++++OoO@=.oO+++",
"O++OO+OOOOO+++oOOOO+@@+$oOOOO+OO++OO+O+O+OOO+++O++O+@+OoO@+.OO++",
"+OOO+OO+++OO+++O+O+@@+$oOO+=+OOOoO++O+oO+O+++@.O+O+O+ooOoO@=$oO+",
"O+++OO++OOOO+OO+O+@@+$oO++O@.=++OO++o++O+O++++o+++++ooooooO@+$oO",
"OOO+++OOO+++OOOO+@@+$oOO+O++++++OO++++O+++O+O+O+++O+oO+o@+oO@+$o",
"O++OOOO++++OOOO+@@+$oOO+O+++++O+O+++OOO+OO++O++O+Oo+ooo@+@+OO@+$",
"++++++++++++++++@+$oO++++++OOo+O+O+OOOOO+++O++O++OOoO+oo++@+OO@+",
"@@@@@@@@@@@@@@@@@$oOO+++O+O+++++O+O+++++OO+++oOOOOoOO+oooO+++++@",
"++++++++++++++++@+.$O+OO+O+OoO+O+OOO++O+OO+++OoooOOO+o+O@+O@+@@+",
"...Ooooooooooooo+@=Xo+++O++oOo+o+O+++OO+@.++OooooO+O+o++++@@@@+.",
".OoOO+++O++O+OO+o+@+.oO+O+++++O+O++O+O++O+OOOooO++Ooo++O+@+@@+$O",
"OO=++OO+O++O+O++Oo+@+Xo+++Oo+oOO++o+++O+O+O+oooOOOOoOO+@++@@+.oO",
"+O+O@.=+OO++O+OOO+oO@OXoo++O+oO+++OOOO+O+++OOOO+Oo+++O+++@@+$oO+",
"OO+OOOO+O++OO++oOOOo+@OXo+++OO+oOOO+O+++OOOO+++Oo+O+@+O@@@+.oO+O",
"+O+++O+O+O+OO+OO+OO+o+@O.o+++OOO+O++oOO+O+OOO+O+O++@O+@@@+.OOO++",
"O+OOO+OO+O+O+OO+OOO++oO@oXo++OO++O+++++++OO+o++O+@++@+@@+$oO++++",
"+O++++O+OO+O++OO+O+O+OoO@oXo+++O++OOO+OO+O+@O+O@+++@+@@+$oO+O++O",
"O@.O+O+O++++O+OooOO+OOOoo@oXoO++O++O+O+++o+++O+O++@@@@+.oO+O+O+O",
"O=OO+++O+O+o++OoooO++++OoO@+.oOO++++o+++O++@O+O+@+@@@+.OO+O+O++O",
"OOOO+OOO+O+OOOoooO++OO++Oo+@+XoOO+O+++O+OO++@+@O+@@@+.OOO+@.=+++",
"OOOO+OOO+++OoooooO++OOO+++o+@+XoOO+++++++@+@++@@@@@+.OO+O+OO+OO+",
"+O+++OO++++OoooOOOoOO+o+++Oo+@+XoOOO++O+@++@@@@@@@+.OO+O+O+OOOO+",
"+O+O+OO+OOoOooOOOOO+OOO+O++Oo+@++++++++@@@@@@@@@@+.OOO=O+++O+O+O",
"OOO+OO+++OOOO++OOO+++OO+OO+OOo+@@@@@@@@@@@@@@@@@@.OO=++++O+O++++",
"O+++O+OOOOO++++++++++++OO++O+@@+++++++++++++++++@+$oO++OO@X+OOO+",
"O++OO++@OOO++O+O+OO+OO++++O+@@+...XoooooooooooooO@+$oO+O++++++O+",
"+OO+++OOO+++OO+O++OO+O+OOO+@@+.Xoo+OO+OOOOO++++OoO@+$oO++++O+++O",
"OO++O+OOO++OO+@.=OO+O+OOO+@@+.ooO+OOO++++++++OO+OoO@+$oO+O+O+OOO",
"OOOO++OO+++O++OO+OOOO+OO+@@+XoOOO+O+++++++++++OOOOoO@+$oO+++OOOO",
"OO+O+OO+O+@.=O++@.=+OOO+@@+.OO++O+O++OO+++++++++O+OoO@+$++++O+++",
"O++O+O+OO+O+OO+++O+++O+@@+XoO+OO++++OO+++O+O++O++++OoO@+$oO++@.=",
"OOO+OO+O++++++@.O+O+O+@@+.OOoOOOO+OooO+O+O+++++OOO+OOoO@&$o++O+O",
"OO++O+O+++OOOOO=+O+O+@@+.ooooooOO+O++++o+++++OOOOOO++OoO@&$oO+++",
"O++O+O++O+@.=O++++O+@@+$Xo..oOOOoOOO@.O++OO+++OO+@.++OOoO@&$oO++",
"++OO+O+OO+O+OO++OO+@@+$..OoOOOOOOOO+O++O+O++OO+++++O+++OoO@&$oOO",
"OOO+O+OO+O+OO++OO+@@+$.oo.oOOooOOO+oO+++++O+o+OOOOOO+O+OOoO@&$oO",
"OOO+OOO++O+O+++O+@@+$.O.ooOoOOooOO++++O+oOO+OOO+O+++++OO++oO@&$o",
"OO+OOOO++++OOOO+@@+$.o.OOOOOooOO+OO++OOO+++++++++++O+O++OO+o+@&$",
"++++++++++++++++@+.oooOOoo+OO+O+O++O+OO+++++++++++O+OO+OO++O++@+",
"#@@@@@@@@@@@@@@@@X.ooOOOoOoOOOOoO+OO+++++&O+OOO++OO+O++O+++OO@@@",
"++++++++++++++++@+oXoOo+OoOoO++O+OO+OOOO++O@.+O++O++O+OOO+OO+@@+",
"...Oooooooooo$$$+@+ooO+oO+++O+OO+O++OO+&+OO++O++O++++OO+O+O+@@+$",
"ooo+O=O++OO++O+O$+@+oOOOOO+O@o++O+O+O+O+O+++O++O+O+@.O++OO+@@+$o",
"ooO+OOO+O++O++OOOo+@+oO+++O+++Ooo+O+++++@+++OO+O+OOOOO+oO+@@+$oO",
"OOO+OO+O+++O++O+OOo+@+oOOO++++++O++O++&+@.OOO+O+OOooOOoOO+@+.oOO",
"O+O+O+OO++O++O+O++Oo+@+oO+OoO++o++++++++=++*O++OOOOOooO++@+ooO++",
"O+++O++++O+O+OO++++Oo+@+oO+O++O++++++++++%*++OOOooOo+O++@OooO+OO",
"O+OO+O++O@.OOOo+O++OOo+@+oO++O+++++++++++++O+OOoOOoOOO+@+ooO++OO",
"++++OO+O++=+OOoOO++++Oo+@+oO++OO++++++++OO+++O++OoOOO+@+ooOO+O++",
"++O+O@.O+O+OOOO+@.OO+OOo+@+oOO++++++++++O+++++++OOOO+@OooOO@.+O+",
"O+++O+O=+O+OoOO++++++++Oo+@+oOOO+++++++++++O+++O+O++@OooO++++O+O",
"O+O+O+O+++OOOOO+++O++O+OOo+@+oOO+++++++++++++++++++@oooO+++++++O",
"++O+++O++Oo+++++OO+++O+++Oo+@+oO++O++++++OO+++OO++@OooOO+++++OO+",
"OOO++O++OOOO+OO+OO++O+OO+OOo+@+ooO++++O++++++++++@+ooO+OOO++++++",
"O+++OO+OO+OO+OOOO++OO++OO+OOo+@+++++++++++++++++@+ooOO++OOO++OOO"};
