/* XPM */
static char *brn14[] = {
"64 64 47 1 ",
"  c #181008",
". c #292108",
"X c #4A3118",
"o c #392910",
"O c #312910",
"+ c #4A4A4A",
"@ c #423121",
"# c #392918",
"$ c #293118",
"% c #313131",
"& c #292929",
"* c #212121",
"= c #4A3921",
"- c #312110",
"; c #291808",
": c #181818",
"> c #523918",
", c #313921",
"< c #524231",
"1 c #5A4221",
"2 c #424242",
"3 c #424A31",
"4 c #394229",
"5 c #525239",
"6 c #212908",
"7 c #5A5A5A",
"8 c #422918",
"9 c #5A4A31",
"0 c #4A3929",
"q c #393939",
"w c #101800",
"e c #100800",
"r c #635231",
"t c #6B4221",
"y c #5A4229",
"u c #6B5242",
"i c #5A6342",
"p c #523929",
"a c #636363",
"s c #525252",
"d c #635239",
"f c #102108",
"g c #6B6B6B",
"h c #7B5229",
"j c #636B4A",
"k c #73634A",
"l c #184210",
/* pixels */
".;::*:****:..8Xo.e ++.e.oo#Oo::.8$3,$$,$. OO==O;;;;;2&;;2#O@:e #",
"5#;&&%2&&**.@yXooOOX-#;.2%o@.=O..@3,$w$$$$#44,o;e ;#++-;#-oooooy",
", ;+++2&%*&2oo8w:e oO O#o==@.  >.XX-- -#o$$@8$. O;-#X7%&XXXo$@.X",
"  o>o#%%&:&%%1o::*.$$,3435,oXOO@..   o17%#eOeO:.&O;##-&:+7-o,.:$",
".OoX>>++%*:*.*:w $$:$4%3,X>o  ..9#. .=0o#%*  ::$$o*; ; &++7#o..$",
"Oo>>X5+$.&**.*::-8@$$@#@OoXo=.<==y#=#@,#@ ;%-.*5,$: *  ;;%+-O.  ",
".oX>X,o3$  &,<q0>>>o.O@oOoO...oXXO.o$$$  $@=+O:<o .@-&*-#%%-ow :",
" Oooo4O@$::o3k90=9Xo.OO;OO........ .;;;  oXoo. .w.>XX%&%%%**    ",
"$ .  $:.:.#3<p<y@8#o -.... .@::.>..#=XX;.oX#;  =:oXo-; &:;*&::  ",
",Xo$w . :@==<98=o=@$ &     :* #..@$=>XXo..O. :;X.63oOe X *:*** .",
"5Xo8.:: .@=<=8@=.O#$:**     .  1,$$<5>oO..O  ;$%;.$$$ *o *   &&q",
"oXX..... o==@#0@...@  **:; .: :@@::@,@#. .:.O$+$&..  .1,  *  .-+",
"XXX.O XoO.-o-@#@@.:@$12%&-#  Oop=,$ .$. o=oo1$a+*& .O&X>%$.  o1@",
">>X  8XX=:.o.Oo.:  *@32%:;  .O#=<#. . ..O. ..$$$%p*4>>&XooO..XXs",
"XXO. &@-# ....    .$==o%*-o>=;##Oo .X#1 ..X;-.---$$$;X>#+XOO -Xo",
" O. .O .:  .:::  .O..   -7>o-e;   .>.O ..;;;X--*..*.ooOO-%OO ;%-",
"   . .  .;....:: .89#. .XX#o-     .. .  o.  ;&%=.:3 #o ;-%;$  &%",
"Xo.o:..O2-oX@..: O==<O+OooOo ;--; .o ..Oo;X#-;-o::$oXXO;#&;. *&%",
"<Xo.:.@>XX=t9@...o.=#:o-..  .1XX-;-; .o>;-Xo% .  .O#Xoo;&&   *+X",
"=o....#yt+>y<=oo.O.  ::...  oXoo. ;;;;-.--O%% %2>7.2--; :;   -XX",
"+oo*.#==>XXX==#o. .>,:@=0>.;;Xo.  = .O....   Oa1@% & ;  &;  *;oX",
".O  .-@yX>#>>@##.- X8.0<0=@..O;; ;- ..oX>o. ;++o@# *   . .w$$$:*",
"# ...@=Xy>XXXoO  o>O6.=<<0# 9  :.X%&;..XX.O=-q-O@ *oO..O..&85=,.",
",o...@@@=ooooOO  .O.@.@@@=::$:$#,3<........oO..  *@+=O O;OXXX>X4",
".XXO.O#=o.oOo.   :.<#. ..  ,3,@,ir<#.@@=#.* $.. ..2@O. .O091>XX>",
"-#Oo...=#.*;..:.o@=0#. .&;.#....=0,@$$$=<.*q+<5$..OO&. X@59t11XX",
"XoO@.....:.&  :.@=X@...&&O:....@$##,.$ $04$=53+q.$$.. .X>h1t1XX>",
"oop@*...::   ...o8#o.. *&.X.:..#@.*2....#..+153,:$$*oXo-#X1a>XX>",
"Xo#@..*:.: :. ..#&;o.=@O&%o :##=0%&o.   *=.%%oX  $$oXjXo.o+>>>o#",
"XO..... $*=0>..$.&;.#=@$ &  .O@0<o.;..6:9O& O.  o=oo9r9=,>XoX>X1",
"+oo#.:..X:@0y@:..&&.O#@# O#=X;o=#o -.:..@q; ....O.X;.X<@@$oOoooo",
"&-  O  -X .#....:**&.   o11-- .     #: .-o...##*..X.ooooO&6.;-OX",
",.     .O     &+&*+7%& .=+22O***  .   w&   .%2+%;* XX- &####  *O",
">-;;--O.O;X#-&%2**%+7%X%O#$,*&%%$.#$%-O$-  .O7X2;;-X-# ##---#-%1",
"- ;XXX#;;-X#-:&**&%+%:2-.$*:$54X$*$4+X8.$ .oqoo&&& --*2.XX+2OO.4",
"  -X-#--;---%*q27s&*:*:&$$*:,4oo..#0O#8,$f.OO2&* *&&;OXX>>Oqq&*.",
";O-XXX#+;; **q77%%*7% O43,6..XoO  #0+>XXO w &. w && Oo#XXXXo@..&",
"$4>7XXX;X%&*&++22%*+o.,534$6.O..  :>X54.;.  .   #+2%%#--;-Xo,*  ",
".@4@+2-++7%+%q%%%*;O..$553$6..  .O >XooXO  .o+231s7-&%#O--OO@  *",
":$oo-2&%=%:2-&&*:;o,$.6$,,6 . .Ot3$w,,.O.  @0it++s@-;OOOOO *  w ",
"$ .  &*.    &;&  844$.w6$6 6XOo>>9X  . . .qXd+17%#-# %.  ; ;    ",
"oXo;*:; >-*%4=X.$6=4,.666666. ..XX#$  .f oX+i98++#-.*;*:       .",
">X--&*  +#;+5>Xo..O4$ww66  ..X.O@#4@.   .oXpX8l,2--;         6.O",
"OXX&&..&-;.35>XOw5w$.w6,$*   .OX#<=.....*@+4oOX#*&%  .;      ;O=",
"XX7;O X#&+$,%XXw:$ .w$45$*.  O>XXX>.# 34$.q,,XOqo* :.%--O..  O1=",
">=+  o=+7O$ $.  ,4@@$>9>,,#$$XX7>1X  oXX0*.o.OO.   .$43o-oO.;X@X",
"X3$. O#-X$. . ..O$ .$=>1>XO# o>O=X#. &oO# ....    .85<334X-O ->@",
" $*:$-*.,*.;X$5 .$3.OoO#@oO$*.oO #. .O .   $     .&=3575@,$- $@@",
"* :**.  @** .$$X. $ 8o..#O;.  .O   .,  ..=o ..  :.o333%X%%6.  .O",
"Xo.@ ..Oo.X#-.,,  OXXXO.o -;  .OXO.,$=O. o#.o.&  #XX=<2,X O.  .#",
"7@@$ .,1;%XoO .  .OoX5O.O;    XX>XO..  <@*&Oo8&...OoX,o&..    =9",
"+O.*..o1O%%-O oo>1 $88*:e.   O>>Xo..XOO@,.$.oXo&.O&%oo=& .   O<9",
"+2o 6#X>..:**O99#,   : :6.  .OXXX2@   .. 3@&ooO.. ..&O& ..  .#=@",
";%  .@o1>o.*&X=@oo     . . ...:=&O  X.<=.#.*4,O..O  ..$. . ...e=",
"O*;*.,XXX>O+%%ooO .oO;;O$$$,1>@.% $&.*%+* #,4q**f@<#w*   ..#1=o.",
"O#;.*,ooX. #%&6e .>XXO O.#X<X5X0@@$&=.O.$:OO#-.* .#     .$==+=8=",
"*+X#.@,X-.  &&.  =XOO. .OXuu=p<0.0=$@ *..O.O$.    ..:...O3ut+XXX",
"%2-o#*$X>. O++=...Xo6  0#pdudu53$88,.X#. .$$&. .o#X. =X.,<9gagX=",
"X2%o.. &=,&XX++-..... .X<urrr0Xr<@$4&  dO *    %o1+O@4oO<hrui+X1",
"O2+oO&&&O&$4>X+% >   *<@@Xit>XX<@@X@0##,#.#  ; O<XX%#@#$$4ri5===",
"X%2@*   &+.@@oX:*&*.#u0<.8XX11#@0@#@  .. X@ & $.#..  ..o.oX><<,@",
"X%.**$. X%& ..  %+qo<r9X89X#X1X<<#..0.>X.O..X.@..  #...O#XX-X545",
"+o,,. ..X-&:; ..%&*&.=@ooOOOO8X,X8O#..OX  #=1X ....#XX&;OOoO-#o@",
".@:*$  oXO;&X25 ;&+&qOOo;&;.6OOX.O  0...O*.<....    &;  $..$$O-X"};
