/* XPM */
static char *glow02[] = {
"64 64 45 1 ",
"  c #181008",
". c #292108",
"X c #313131",
"o c #292929",
"O c #423121",
"+ c #392918",
"@ c #4A3929",
"# c #312110",
"$ c #312910",
"% c #9C0000",
"& c #4A3921",
"* c #A50000",
"= c #524231",
"- c #523929",
"; c #B50808",
": c #394229",
"> c #422918",
", c #212121",
"< c #293118",
"1 c #BD0808",
"2 c #4A3118",
"3 c #291808",
"4 c #212908",
"5 c #D60808",
"6 c #730000",
"7 c #392910",
"8 c #5A4A31",
"9 c #840000",
"0 c #313921",
"q c #CE0808",
"w c #940000",
"e c #4A4A4A",
"r c #424A31",
"t c #6B4221",
"y c #181818",
"u c #525239",
"i c #635239",
"p c #393939",
"a c #DE0808",
"s c #5A4229",
"d c #842100",
"f c #635231",
"g c #424242",
"h c #EF0808",
"j c #5A5A5A",
/* pixels */
"o+XX+**;;;1**%., .O%*;111**%%*11;1;;1;11;1;11;1*,$.o,.#&+,X#X,.o",
"X$Xo.o**;1;1;****%;;;;115a511;;%%,+-&+%%*111;;*%o.oX$#oX#XXo.>X.",
"oX+#oX:%*1;1*%$==-$&%%*;aaq;;%.,>=oO+X>=%*;1;*.X.oX.,o4XoX.o&$X.",
"oX&#o&XX%;*%o:XXX+$O+O>%5a5%.,-=$@#.#oX=&%;1*%..XoooX<.X.o.O$ooy",
".o#&+..=%*%&..O.X#-&+#o%;;%ooX.XX.X.X..+@%11%.,.+.X.o$&#X.Xo.oo.",
"$X&.#$#XX%%.#o+&8+O#.%;;;>$X-..o.oX$X$o@$+;1%.o.<X.$.X#O@$o3.oX$",
"XooX.:O.=%*+##O+.X%;;1;*<X@.o...o#oX$O$@$&;1%O+X.O,X..o#+O.o.o.$",
"ooo.#o##Xo%%o.&%*11;%.o.X$>,.XO.oo.O$X$$X+*1%o#o .,.O.0O.+.ooXXO",
"X.o.$@#2+=%**;;;1;&..X&#.>oX.o..o.X#:+$O$<%;%.X..X,.o#X+O#O..Xo.",
"#O.X#X@O.=o*1*1%3XX#X.+:X4$o$.X..o.OOoo.$%*;%$.3X33X0.o:.+.$oo<O",
"3oo.o$$$.@$%1*%.XO=oo:#o#..O$o.o.$o+-+#O%151*#...o...Xooo.&+oo$$",
"+X..@.$&oo@$%1*..X.#o.@##$.O.o.o###&..%*1555;X+ X.X.+.Xo.O+.$ $o",
"$.<o$.O$oooXo%1%%@.&o0>:..O#o.&O+#o**;;;;151;o#@OO.XX.2XXoX..3>.",
"&$X.X+O3X..#8X%1%%%o#O#+.o.+O#&7X%*;;%%2@&+*;%O.O+.$.XoO$Oo.o<4,",
"$X.ooo.Oo.$#@X.;1;*%X.@+O2&O&&#X%;%%%X.>8o8o-1*%O+>4O.X$o$oX.O.3",
"X..OX$.#X..@+O#**;;1*%o#X$&O.o;;;%%+@&@7X===$%1;*$@@.o.o#O#o.<@.",
"&$X.+>4+$&+O@@%d;1%.%;11*%:.;***%:-+XX#-X#o>X@#1;%3#Ot2O..$X3o:o",
"$Xo.o#.O#=&+O.*5;%$..O+%1%;**1%4&+:&#@.$0o<XoXX%;1;$.Ot+O:<3.>X.",
"o#.o+O+-&2#o%%111%+.#o##%;;;1;%o.o.X#+&+XoX+>p+o%11;%O+f2OO.$ooo",
".&$$+=7o#%%***;****;1*;;1;;*;1*oX.$O+@Xo.@..+.$+O*;;1;%#=&O.$ooO",
"o<+&22%;;*%%%o&.3#@++@@+@++%;1;%ooo>XXXoo$$XX.o..%***;1%&O+O. +.",
"O7@##%*;;;*%o@oo+@XO-=O=O@=$%;1;%%$-XX#@@#X#X..y9%%$$%;1;%O2&+..",
"#O#%*;;*;%%oX@oXooO+@$+@+=e+&%%%1;%+X+&$o.......%%$>@$@*1;%++##O",
"o%**1%&%;*4XO.o.3,XXX+@@+oOgi+X99;;%oo.@O+:..#.9%%.-&=OX-*1%%&+#",
"***oo.oo*;%,X>4@ #X.XO++>+$&-@=8o9;;%.:+#O.@+.X%%o.XX#+u#+%*%;;*",
"&$7X@=oX%;*..oo..OX.X++-X7>op+>=-X9*;%oo&-OO.X%**+@X.oX@O=@o2X&.",
"$&@&=XX8.**%,o.Xo@#@.@@#@oo..X.+-e-9;1%&o++oX%*1*XX.3#.@oo+@=+X+",
".OX$+:#-@%**oO<ooo.XXoX+X#++...&$-&X91;%oo.%%;11*$-XXX.o+o$X+@@o",
".X.O..#@@.;;%o@#o.X.o.@++&+o.o.ooo===9*15***;511*3@.o,X.O#&o @X.",
"3$Xo.<o$=$%**@O$X#,.Xo$oX&.oo.oX.7-O=+%%11;;5a51*@X$oX+>&#+.ooX.",
"XOoX.O&.@=.**%O#oX.X+&O@+Xo...o.X$XXOe9%11;;;511*6X-XoX<o&yo.o..",
"oX...$o.@=.%;*XO#..o$$OoX.o..$o.Oo#$$-$%1*%o#%%;*%6o-oX$.....XoX",
"&.O...#0+X.%*%X++.X#$:XXo&#X.$$.:#:.&+$%;%o4&oX%*%%6.#X.XoX..Xo.",
"#o+X..oo+oo*;*.-.oX$o#+8&#XoooX$.:$Oo+-%%%.X4,<$%**w6#+X.oo.X.oo",
"3oO,O$o..X9;1;.OO.:o@@+$oo.&X<.OX$O$&$%%%.Xoo oX+=%**w++Oo@o$X3.",
".o$<O#.0..9;1;.+OX#+@o-7XXyo.O.oo.#&+$%%@#...X..@+=@%;wo+X$.O...",
"#oXOo..#Xo+9*;*O#@oX@XoXo$o.ooX+.#&+>*%%oXXX.o.X+@X==*;wX@O...o ",
"O$X7@XX..Xo.X9**@+XooX<X2@,oX$o++@+&*%%+X&.o.Xo...+=@=*1wX@#Xo.o",
"$X$X++.oyoX+@.*;;+.$@XXoo.o.o&+O+2%*%%$+X#@X.Xo$,.#.=@=*%#+-#X..",
"X.o&@..XX.#@+o9;1++:.XX#O#o2#O+O%*;%%.OooX@X.Xo,.yoXo=&%;%.O+XX.",
"so&o@&....#.X@ %;%@O@o@>43&2&+%**%%woOoX,....@.@.X,.o-@=%;*X+@oo",
"<o@<,X...oX#+oo9;;*+2t>+X#O-$%***%o:#@<+-..@..X.@X.o..@X%%*%3@@.",
"X.+O...o.ooX+-o9;11*Ot&&2-=+%*%%oo#o#+o+XXo$o<.o#@oX.o#r+%;*%o&#",
".Xoo#X.o##O@@@O%;5q*%O=&==&*;*#$X..@#&&@oX......X..o<+X#X+%*;%$@",
"+.o&.+O+@O@#+#%;55q;;;%@=O*151.#O.o&o$X+oo.O,.o.o..Xo<XX=@%;;%$#",
"&7@++=+@O+%;q1*;;q;;11;11115hq%O#-+&O+.X@.X.X..o.X..<O..$+X;;*%.",
"+-+++#+%;%;;;;%@X@-&i@O=$%;;q;%%O.OO-+8#X.$$.o#.X:....O+X.w*1**%",
".7>X**%**%+***>>++X@>o-@O-+@%5q;**%OoO7-Oo&$+.o.oo.OO:ooow%%;;1*",
"*****%%#@o%%;%&,o#o.pXo#@ou-+%5q1;***%.&&O&XO.o..X,o.OX.w%%%*15*",
"***%%.o=O=o%;%.ooo0.2>#oXoX--*q;uX@**;*%oO+>&.oXO#>++0.%*%@O%%1*",
"*%%X+r@o@+0%;-..X3Xo#o#@+.+r>1;-$8-eu%%*%#@->+#+>+>..%%%.X@oX%*%",
"%O7uO+$.o=$*%#X...@.2@+@oX@+*1i$Xo&&8-&%*%X+@@#+&..%*%%X@@$@$%**",
"XX&:#@.oX$%;%X. ..$7Xo@$@#o*1;8XooX&Xej=-**%$:ow%%**%@o@+o#@%%*%",
"o##o.o.Xo.%;@@o oo.@O$ooO.%1;@Xo..+2>>-e&O;1;111%%X>.X@$X$@6**:o",
"#X#X.ooo.X*%O...o##O$-oX$.;;@=.,>+>o&O@$@@X*111%+@8++@.O@#6**:..",
".XX& 4 .,%;@><4+.@$#@$X.$@;*=o...X2$oXr$o+O$*1%.XX>oo$O.6;*%.=++",
"o&$oX 4#X**+X..o,.oX$X#:X*;O$..#X..OO+o>#o+=$**6,o.@@#6;;*.Xo3+#",
"O.$X.,X$o;do.oO.+X.Xo$OO+;%o.X...XoOo$o#oXo-+&%*6$#O6%;;%#=X+Oo.",
"o.$#X #X%;+XoXXoXX<X#oO#*;@.$.$,.O..#..X.oO$=X@;16o6;11%.-.oo##+",
".XX#X#+o;*+.oyXoo.&o:O.$;%#o.,.$X$##XXooX.O$X+X%;11111%.O#&X.X .",
"+Xo.@>&%;%.ooyo.o.XoXOO%;X#ooo.ooo:$o.oO<@oX.$@%**;11;%##@##O.X$",
"O&s2+-.;*2X..o#o.o..#:%**#@.$X$..X.$.:o.@$:o.rX%*;11***%<#.+##2&",
"oX,o,.;**2.: .XO.o.oO+%*%%#&$$@O@@+OOO@O$@+&@+%*;%%.Xo%**%%..<X$",
";;*;;;;1*%@#$$#oo.o.%%*1*%%....O.o..X.....>4+*;1*.@=X@&@.%%****%"};
