/* XPM */
static char *met02[] = {
"64 64 23 1 ",
"  c #4A4A4A",
". c #424242",
"X c #4A3929",
"o c #313131",
"O c #393939",
"+ c #292929",
"@ c #423121",
"# c #4A3921",
"$ c #394229",
"% c #5A5A5A",
"& c #524231",
"* c #212121",
"= c #5A4A31",
"- c #392918",
"; c #523929",
": c #293118",
"> c #312110",
", c #636363",
"< c #422918",
"1 c #6B6B6B",
"2 c #313921",
"3 c #635239",
"4 c #635231",
/* pixels */
"##.#####.........#<@@##.#<@#<@.#*o++++ooo<@@.o@o+o##.##..#<#o@.#",
"# %     ..       X..  .#OXoo.. .+1%.. %% %% %%4  ..$.... . = . .",
"#= ..X...=....##..@.O... ...O...O   ..       .X. .@$O... XXXO.X.",
"#. +.+ ......... ..  X.. ..+@+ X@  +#+=..... .. .... X.. .X+O+.#",
"#..+*+...X..#........$X... +*+ X+ .@>@&..#.........$ ..    +*+ X",
"#. . =...X.X.$...XX. .O  . XO...+  ;;& ..X.X .. .XX. .o. ..XO...",
"#..X.==..X.X...X..X....... ... .@..X$  ..X.X .$. .XX.... .......",
"#. ......X...X..... XXX.X..X.. .+. .$. ..X.. X.......XX...XX....",
"@. ......X.X..X. ...@OXX.....O..o   .   X... .X.   .OOX...XOOOX.",
"@... $X..XXXXX...X...@XoXXX..oX$+. ......XXX.X...X.. @XOXXX+ +X.",
"@.X+.-.X@$X..X..X.X.oOX..oX-@+oX+..+.+ X@.X..X......OoX..oX+*+oX",
"@..+*:..X$.X.$XXX.XXXXXX.XX:*+oX+  O*O  .... .XX...X.XXX.XXX..oX",
"@...    ...... .X....... X...O..+.X.=& .XX.X...X.... ... .. .O..",
"@##X.....oXXX$X.XXXXXXo.. .O.O .+XXX.. ..oXX..X..XXXXXO.X.Xo.o..",
"@.XX. ...X.XXXXXXXXXXX....XoO..$+..X.. ..X.X.XXX.XXXXX....XoO...",
"@#... X$..X.XX$..XXXXoXXooooX..$+  .......X..X$..XXXXo..OoOo....",
"@..X  ......X.X.  .....X.O.O..X.O%.X .........X. .X.XX..XO.O..X.",
"@.#X..X....XX$.X ..XXoXXXXoX.X..@..X..X....X..$X....XoXXXXoX.X..",
"@..+O-XXXX..X........$X.X$.-@+.O@. -X+XX.XX$...$... .$X.X.X+.+.O",
"@.#+*+XO.XOX....O....X.....;*+..@..+>+XO.XOX....O.$.XX....&+*+..",
"@# X $XXXo.X.....O.. .X...X&=...OX X..XX.o.X.....O....X ..&&&...",
"@.X....XXXOXXXo@Xo.X ...XX.. ..o@.X....X.XOX.XO@Xo$X....XX.. ..o",
"@.XX.o.o.X.oXXooO..X...OXXXoXXoO@..X.O.O.XXo.XOo@.$XX..OXXXo.XoO",
"@#XXXo.XXX.o.$ooOo.o.XX.XXXXO.o @X.XXO.X.XXo..OoOo$o$XX.XXXXO.oX",
"@..X.X ..XOX.o O.O.X.XX....XXX. O..XXX.  XOX.O.O.O X.........X..",
"@o#.XX..XX.oX$.o.o.oO$X........ @oX$XX$..XXoX$XoXo2oO$X.XXXXXX.X",
"@+.+@+X.OXOoX$.o.o.X.XXX.XO-.+X.@+.+X+X.OXOoX.XoXo #XXXX.Xo+.+XX",
"@o.+*+;XOXOo.$.oOo...XXXXXX:*+X @o.:>:XXOXOo.$$oOo..XXXXXXX+*+XX",
"@oO.&;OX.o.oO$OoOoO$O$.X.X.$O.o @oO.OOO. OXOO.OOOOO.O... X..O.Oo",
"@oooXXXXXXoXO+O.O$O$.o.O.... .O @OOOXXXXXXoXOoO.O.O..Oo..XXX..oo",
"@o;#XXXXOoOoX@oo..O$O$o.OX.XXXX OO.X.XXXOoooX@+o..o.O.o.OX.XXXX.",
"@o...........X...............  %Oo.X.OXXOO..OXX..O..O.O.O..oXoXo",
"+o+++oooo@@@.O@ooOXX.XX..X@XO@.X*O+++oooo@@@.O@ooOOOoOOOOX@XO@.X",
"+,%.. %% %% %%3  ..$.... . = . .+,%.. % %% %% ,%     %%  . = . .",
"o%  ..       .X. .@$O... XXXO.X.O%  ..       .X. .@$O... XXXO.X.",
"@. +#+=..... .. .... X.. .X+O+.X@. +X+=..... .. .... X.. .X+O+.X",
"*%.@>@&..X.........$ ..    +*+ X+%.@>@&..X.........$ ..    +*+ X",
"+  ;;& ..X.X .. .XX. .o. ..XO...+  ;;& ..X.X .. .XX. .o. ..XO...",
"@..#$  ..X.X .$. .XX.... .......@..X$  ..X.X .$. .XX.... .......",
"+. .$. ..X.. X.......XX...XX....+. .$. ..X.. X.......XX...XX....",
"o   .   X... .X.   .OOX...XOOOX.o   .   X... .X.   .OOX...XOOOX.",
"+. ......XXX.X...X.. @XOXXX+ +X.+. ......XXX.X...X.. @XOXXX+ +X.",
"+..+.+ X@.X..X......OoX..oX+*+oX+..+.+ X@.X..X......OoX..oX+*+oX",
"+  o*O  .... .XX...X.XXX.XXX..oX+  O*O  .... .XX...X.XXX.XXX..oX",
"+.#.=& .XX.X...X.... ... .. .O..+.X.=& .XX.X...X.... ... .. .O..",
"+#XX.. ..oXX..X..XXXXXO.X.Xo.o..+XXX.. ..oXX..X..XXXXXO.X.Xo.o..",
"+..X.. ..X.X.XXX.XXXXX....XoO...+..X.. ..X.X.XXX.XXXXX....XoO...",
"+  .......X..X$..XXXXo..OoOo....+  .......X..X$..XXXXo..OoOo....",
"o%.# .........X. .X.XX..XO.O..X.O%.X .........X. .X.XX..XO.O..X.",
"@..X..X....X..$X....XoXXXXoX.X..@..X..X....X..$X....XoXXXXoX.X..",
"@. -X+XX.XX$...$... .$X.X.X+.+.O@. -X+XX.XX$...$... .$X.X.X+.+.O",
"@..+>+XO.XOX....O.$.XX....&+*+..@..+>+XO.XOX....O.$.XX....&+*+..",
"o# X..XX.o.X.....O....X ..&&&...OX X..XX.o.X.....O....X ..&&&...",
"@.X....X.XOX.XO@Xo$X....XX.. ..o@.X....X.XOX.XO@Xo$X....XX.. ..o",
"@..X.O.O.XXo.XOo@.$XX..OXXXo.XoO@..X.O.O.XXo.XOo@.$XX..OXXXo.XoO",
"@#.XXO.X.XXo..OoOo$o$XX.XXXXO.oX@X.XXO.X.XXo..OoOo$o$XX.XXXXO.oX",
"o..XXX.  XOX.O.O.O X.........X..O..XXX.  XOX.O.O.O X.........X..",
"@oX$XX$..XXoX$XoXo$oO$X.XXXXXX.X@oX$XX$..XXoX$XoXo2oO$X.XXXXXX.X",
"@+.+X+X.OXOoX.XoXo.XXXXX.Xo+.+XX@+.+X+X.OXOoX.XoXo #XXXX.Xo+.+XX",
"@o.:>:XXOXOo.$$oOo..XXXXXXX+*+XX@o.:>:XXOXOo.$$oOo..XXXXXXX+*+XX",
"@oo oOO. OXOO.OOOOO.O... X..O.Oo@oO.OOO. OXOO.OOOOO.O... X..O.Oo",
"@oOoXXXXXXoXOoO.O.O..O.o.XXX..oo@OOOXXXXXXoXOoO.O.O..O.o.XXX..oo",
"o..X.XXXOoooX@+o..o.O.o.OX.XXXX.OO.X.XXXOoooX@+o..o.O.o.OX.XXXX.",
"o .    .  .  .  .  .  .  .  .  .Oo............... . .. .   ....o"};
