/* XPM */
static char *met05[] = {
"64 64 14 1 ",
"  c #181008",
". c #293118",
"X c #212908",
"o c #392918",
"O c #4A3118",
"+ c #392910",
"@ c #312910",
"# c #424242",
"$ c #313131",
"% c #292929",
"& c #212121",
"* c #424A31",
"= c #313921",
"- c #291808",
/* pixels */
"-%...%###%$..##%..$%$&$X&%&&&...-%...%XXXXXXXX&@&.X&&&%.@.%@..%.",
"-%%%%%%%%%@%%@%%%%%%%%@@%%%%%%%.-.%%%%%%@%&%%%&+%%%%%%%%%%%@@%%.",
"-%%@-=-%%%@%%@%-=-%%%@%@%%-$-%%.-.%@-$-%%@%%%%%-*-@%%%@@%@-$-%%%",
"-%%@- -%%%@%%%%- -%%%@%@%%- -%%X-X%%- -%%@@%%%%- -%%%@@%%%- -%%%",
"-%%%+O+%%@%%%%+O+%@%@%%@%%+O+%%X-X%%%@%%%%%%%%%%%@@@%%%%%%%@%%%%",
"-%%%@+@%%@%%%%@+@@%@@%%@%%@+@%%%-X%%%%%%%%%@@%%%%%@@%%%%%%@@%%%%",
"-%%%%%%%%%%%%%%%@%%@@@%@%%@%%%%%-.%%%%@%%%%%@%%%@%%@@%%%%%%@%%%%",
"-%%%%%%%%%@%%%%%%%%@@@%%%%%%%%%%-.%%@%@%%%%@@@%%@%%%@%%%%%%%%%%%",
"-%%%%%%%%%%%%%%%%%%@%%%%%%%%%@%%-.%%%%@%%@@%%%%%%%%%%%@%%%%%%%%%",
"-%%%%%@%%%%%%%%%%%@%%%%%%%%%%@@X-X%%%%@%%@%%%%%%%%%%%@@@@@%%%%%%",
"-%%%%%%%%@%@%%%%%%%%%%@%@%%%@%@@-X%%%%%%%@%%%%@@%%%%%%@@%%%@@%%%",
"-%%%%%%%%%%@%%%%%%@%%%@%@@@%%%@@-X%%%%@@%@@%%%%@%%%%%%%%%%%@@@%%",
"-%%%%%%%%%%@%%%%%%%%%@%%%%@%%%@@-X%%%%%%%@%%%%%%%%@%%@%@@%@%%@%%",
"-%%%%%%%%%%@%@%%%%%%%@%%%%@%%%@@-.%%%%%%%%%%%%%@@%@%%@@@%%@%%%%%",
"-%%%-=-@@@@@%%%@%%%@@%@%%%-$-@@@-.%%-$-@%@%%%%%%%%%%@@%@%%-$-%%%",
"-%%@- -%@%%@%%%%%%%%@@@%%%- -@@@-X%%- -%%%%@%%%%%%%%@@%@%%- -%%%",
"-%%@+O+%%%%%%@%@%%%@%%%@%@%%%@%X-XX%@%%%%%%%@@@@%%%%%%%@%@+O+%%%",
"-%%@@+@%%%%%%@@%%%%%%%%@%@%%@%%X-XX%@%%%%%%%@@@@%%@%%%%@%%@+@@%%",
"-%%%@%%%%%%%%%%%%%%%%@%%%%@%%@@@-X+%%@%@%%@@@%@@%%@%%%@@%@%%%%%%",
"-%%%@%%%%%%%%%%%%%%@@@%%%%@%%%@@-.++%%@@%%@@@%@@%%@%%%@@%%%%%%%%",
"-%%%@%%%%%%%%%%@%%%%@@%%%%%%%%@@-.++%%%%@@%@%%%%%%@%%@@@%%%%%%%%",
"-%%%@%%%%%%%%%%%%%%%@%%%%%%%%%@@-.O+%%%%%@%%%%%@%%%%%%@@%%%%%%%%",
"-%%%%%%%%%%%%%%%%%%%%@%%%%%%%@%X-=OO%@%%%@@%%%%@%%@%%%%%%%%%%%%%",
"-%%%%%%%%@%%%%%%%%@%%%%%%%%%%@%X-=OO%@%%%@@%%%%@%@@@%%%%@%%%%%%%",
"-%%%%%%%%@@%%%%%%%%%@%@@@%%%%@%X-.O+%%%@%%%%%%%%@@@@%%@%%%%%%%%%",
"-%%@-=-@@@@%@%%@%%%%%%@@%%-$-@%X-.+@-=-@%%%%%%%%@@@@%%%%%%-%-%%%",
"-%%O- -+%%%%%%%%@%%%%@@@@%- -@%X-+@@- -@%%%%%%%%%%@%%%@%%%- &%%%",
"-%%++O++%%%%@%%%@%%%%%@@@%%%%%%X-+@@+O+@%%%%%%%@%%@%@%@%%%+O+%@%",
"-X%%+++@@%%%%%%%%%%%%%@%%%%@%%@@-@%%+++@%@@%%%%@@@%%@%%@%%@+@%%%",
"-X%%%%%@@%%%%%%%%%%%%%@%%%@@%%@@-@%%@+@%%@%@%%@@o@%%@%@%%%%%%%%%",
"-+@%%%@%@@%%%@%@%%%%%%@%@%@%%%%X-@@%%%%%%%%@%%@@@@@@%@@%%%%%%%%%",
"-+@%%%%%@@%%%@@@@%%%%%@%@%@%%%%X-@@%%%%%%%%@%%o@@@@%%@%@%%%%%%%%",
"-%%@%%%%@%%@%%%%%@%%%%%@@@%%%%%X-X%%%%%%%%@%@%@@@@@@%%%%%%%%%@%%",
"-%%@%%%%@%%%%%%%@@%@%%%@@@%%%%%X-X%%%%%%%%@%@%@%@@@%@@@%%%%%%@%%",
"-%%@%%%%%%%@%%%%@%%@@%@%@%%%%%%%-X%%%%@%%%%%%@@@@@@@%%@%%%%@%%%@",
"-%%@%%%@%%%%%%%%%%%@@%%%@%%%%%%%-X%%%%@%%%%%%@@@%@@@%@%%%%%%%%%+",
"-%@%%%%%%%%%%%%%@%%%@@@%@@@@%%%%-+@%%%@@@%%%%%@@%@%@%@@%%%%%%%%%",
"-%%%-$-%@%%%%%%%%%%%@@%@@@-=-%%%-+@%-%-@%%%%%@@%%@%%@@%%%%-%-@%%",
"-%%%- -@@@@%%%@@%%%%@%%%%%- -@%%-%@@- -%@@%%%%@%%@%@%%%%%%- -%%%",
"-%@@%%%%@@@%%%@@%%%%@%%%%@&&&%%X-%%@+O+%@@%%%%@@%@%@%%%@%%%%%%%%",
"-@@@@%%%@%%%%%@@@@@@@@%%%%%@@@%X-%%%@+@@@%%%%%@@@@@@%%%%%@%%%%%@",
"-@@%@%%%@%%%%%@@%@@%@%%@%@%@@%%X-X@@%@@@@%%%%%%@@@@%%%@%%@%%%%%+",
"-%%%@@@@%%%%%@%%@@@@@@@%@%%@%%%X-@@@@%%@@%@%%%%@@@%%%%%@%%%@%%%%",
"-%%%@@@@%%%%%%%%@@@@@@%%@%%@%%%X-@@%@%@%@%%%%@%%@@%%%%%@@%%%%%%%",
"-@@%%%@@@@%%%%%%%%%%@@%%%%@@@@@@-@@%%%%%%%%%%%%@@@%%%%%%@%%%%%@%",
"-@@%%%@@%@%%%%%%%@%@%@%%@%%@@@@@-@@%%@@@@%%%%%%@@@%%%%%%@%%%%%@%",
"-%%@%%%%%%%%%%@%%@%%%@%%%%%%%@@@-+@@@@%%%%%%%@%%@@%%%%%%%%%%@@%%",
"-%%%%%%%%%%%%%%%%@%%%@%%%%%%@@@@-@@@@%%%%%%%%%%%@@%%%%%%%%%%@%%%",
"-%%@-%-%%%%%%@%%%%%%%@%@%%-%-%%@-@@%-=-%%%%%@@%%@%%@%@@@%@-=-@%%",
"-%%@- -%%%%%%@%%%%%%%@%@%%- -%@@-+@%- -@%%@%@%%%@@%@%@@@%O- -+%%",
"-%%%+O+%%%%%%@%%@%%%%@%%%%@%%%%X-%%%&&&@%@%%%@%%%%@@%%@%%++O++%%",
"-%%%@+@@%%@%%@%%%%%%%%%%%@@%@%%X-%%%%@@%%%%%%@%@%%@@%%@%%%+++@%%",
"-%%%%%%@@%%%%%%%%%%%%%%%%%%@%%%%-%%%@@%@%@%%%%%%%%@%@@@%%%%@%%%@",
"-%%@%%%%@%%%%%%%%%%%%%@%%%%@%%%%-%%%@@%@%@%%%%%%%%@%@@@%%%%@%%%+",
"-%%%%@@%%%%%%%%%%%%%%@@%%@%%%%%%-%%%@@%%%@@@%%%%%%@%%@%%%@@@%%%%",
"-%%%%@@%%%%%%%%%%%%%%@@%%%%@%%@%-%%%@@%%%@%@%%%%%%@%@@%%%%@%%%%%",
"-%%%%@%%%%@%%%%%%%%%%%%%%%%%@%%%-%%%%%%@%%@%@@@@%%%@@%@%%%%%%%%%",
"-%%@%%%@%%%%%%%%@%%@%%%@%%%%%%%X-%%%%%%@@%@%%%@@%%%%@%@%%%%%%%%%",
"-%%@%%%%%@@%%@%%%%%%%@@@%%%%%%@@-$%%%@@%%@%%%%@%%@@%%%%@%@@%%%%%",
"-%%@-%-%%@@%@@%-=-%@%@@@%%-%-%@@-$%%-=-%@@@@%%@-$-%%%%%@%@-%-%%%",
"-%%@- -%%%%%%%%- -@%@@@@%%- -@%@-$%%- -%%%@%%%%- -@%%%%%%@- -%%%",
"-@%%@%%%%%%@%%%%%@@%%@@@%%%%%%%@-%@%%@%%%%@%%%%%%%@%%%%%%%%%%@%%",
"-XXXXXXXXXXXXXX@@X@@@@@@XXXXXXXX-@XXX@@XXXXXX@XXXXXXX@XXXXXXX@XX",
"----------------------------------------------------------------"};
