/* XPM */
static char *rok08[] = {
"64 64 20 1 ",
"  c #010101",
". c #212121",
"X c #4A4A4A",
"o c #181818",
"O c #101010",
"+ c #424242",
"@ c #393939",
"# c #313131",
"$ c #292929",
"% c #181008",
"& c #292108",
"* c #312910",
"= c #5A5A5A",
"- c #100800",
"; c #636363",
": c #212908",
"> c #4A3921",
", c #313921",
"< c #392910",
"1 c #081000",
/* pixels */
"&-%<%**ooo:$X#++X#####$$#o. o.#+#+=XX++$#.o       o-oooooooo-OOo",
"$#..o.o...o#X##+#X+$$$.$$$o&o$XX#####$#$$.o    oooo.OOOOOOoOOOo.",
"..$oO.oo..o#X####$$...$$$#o*o$X###+###$#.ooO  ...$$oo....oo$.$.o",
".$$.$.#$%.o++#$#$$$...$##$$o.>####$+#X#$.oo% .#+#XXXXX$#$$$$##..",
"####$$$#&.o##$#$$$...$$X$$ooo.#@+$#X#=X#..oO .+#X+##+X+X=X#X=X##",
"##.+++X$.%o.##$$....$##$$..%%o.+##XXX;=#.%O  .+#+$..X+##+=X=+#.$",
"##$$#$#.o.O.##$$++##++$##$$% O.@X#XX==;#.$o O#+++#XX+$$$#+X+....",
"+$$$#$$o%oo.####+#.$#$$$$$.Oo.%.#XXXX##..o O&#XX+X$$#.$$XX.$$#$$",
"$#$#$$ O&Oo.#+$#$.$$$$$$..o%&%Oo..o..ooO    *#X##...#$#$$.$##$.$",
"$$$.$%oOOO ###$#.$#+$$$.ooooOoO oOOoOOO     o..#..#$$+$X.$#$$#.$",
"...$o...oo..#+.$$$#+#$.ooo.%%  OOOOOo&&.oO  .o.#..$##$$$.......$",
"..oO.OooO %.X+++++#$.#ooo.#%  o..%.o.#+X+.O $.$$$#$...OOOooooo.$",
" oo   oOo&O$++$.$$$##$##..#.% %$.$+#X+#+#$oO.o.o...+.o  Oo&O%Ooo",
"%o %O&Oo%%o.$###$$#X+..X#.#oo .$+X##$#$$+$o % ...%o:.ooooo%OOO*%",
"o%oo*%..o&$o$#X.$#X#.oo.+$.o% o$+X@$$$##$o  o&&OoooOoo%%% &OoO&%",
"..&&...&ooo$.#.$$$##oo...X#.% ..++$$$#..o   & oo.$oo.ooo%OO.o..O",
"$..$....$%$oo##$$$$.o.##..#.&OO.@.......$o  %.$#+.o.o$#$.$$$$$..",
"####@+++@ooOO$#..#....#$...o   .##..$#+@$*.O%$=X$.o.$#+X=XX#++##",
"##$#.$+$$oOoo...#$$$$##.....  Oo##..o$@$$*o&o=+$#o-$XXX+##+#..#.",
"+$$+##,@@$oO .$$$#.....o.%     oo...$o.$o$oOOX#$$o .X#$$#$...#$#",
"$X$$$$$..%O%.o......oOoOo    o    o.*ooOoo  .##..o .X#$$$..$.$$#",
"+##$$.$..o oooooo.o.oooO    OOOo    oOO    o.+...oo$#$$$..$$$$#+",
"$$..$..$o.oO...ooOoO      o.oo..#XX#@...o Oo.#X$.Oo.+..$...$###+",
"$$..$.$.oo O.XX=;X#.ooOOO.$#XX=X=X+X+#$$.% o#X=#$o%..$.o.o.##X+#",
"..$......O &X##+X=;XooOO.+X=X+#X$@##$$$$$o%.+X#.ooo.$..o..$$$$#$",
".$$.$#.Oo& O+#$$$#X;XooO$;=X##$..$$$$@$.o%o.#@.$...o$$..o$...$..",
"..$$..o*o O%@,$.$+$$#OOO$=+#$..$$$$#@++>.o*$#+##$:oooOo..oOooooo",
".oo..o%OoOoo@@$@@..oo Oo$X#$..$$$@#$+#$.oOo$##+#%%ooO O%OO  OoOO",
"O%%%%o%o%o.%@$+XX@+.oOOo$X$...$#$@@$+$$OO%%.#+=#.Oo  oo%O O Oo  ",
".o.o.@XX#$oo$+@++++X+oO..#$...$#+$$##@$o % o+X;#.o.o$##$oO Oo%  ",
".$+XX+$@X+. ++$.@@$+X%OO.#$...$###$#$$.ooOOo+;=#.%o.#XX=#$%OoOoo",
"o++####@@X.o@$$..$@$+o O.#$#.##+$#$.$+$ooo&$X=$$o%O.###X=XX+#.%.",
"$+###$#$@+$O.$@++$$#@% &$##X$$#$#$#$.#$OoOo#X$$X.*O#+$.#X#$XX$oO",
"$+#$.$.#$$o-.$$@$.#o.o  .$#XX#..$@$$.$oOOO..#$+$.oO#...$#$$#++..",
".#+$.#$$$#.1@@$$.@$#o.  ..+X+#...$X$..O%OO.$+#$.oOO#.#$#$..#$$o%",
"O###..#$$#o%@+@.@.+$X@  O$X++#..$#@..oOoOOo$X$.ooO #@$$#$#$.+$o ",
".##.o..#$$.o$+@.$++@@$% O.++#$$.....oOOoO o.#..oOO +@$#+....$.OO",
"$#.####$##.-$+$$$$$$$$%  .@#..#..oOoooOO  o.oo.%O  $$$$oo.$$Oo.&",
".##..$#$@X.O$+$@++X@$oo Oo$@$..ooOoooO    OoO..OO  O*.o ooooOO&O",
"..#$#+#$##.O.+@$@+#$..% %%%.%ooooO         OOOO OO Oo      oo.%&",
".###$$..$+. .@..$@.@.oO OOOOOOO O        OOOOOOO.oo........$.$OO",
".$#$#$#.$$oOo$.$@.@$..O    OOooo...#+#..##.##$.###+XXXXX#++#$.Oo",
".#+X####X.&OO#@$@$@$.oO    O$..$X=;===;;=+XX=====XXXX+XXX+###$o.",
".##$#$$#@%  o#$$@X@@o.O   O$.@X;;=XXX++XX#XX+XXXX+X+##$#$+##$.&o",
"o$#$..#$$.O o@$@@@@+..O  oo.#==XX+X###+#..$.##$$##+#$$$$#X#$.O%o",
".#...#$.$.  o#$@@.@@$.O  o%#XX++X##$$#$........$$$##$..#+#$..o.*",
"o$#$#$$$o%  .$+$$+$.. O   O#X+#X#X#@@$.......$#$..$....#$...$.*.",
".$$$...oo   O..$$$$..o%   O#X##.$+#$$#$.$##+.+$$$..#.......#$.o&",
"o.o.&Oo     Oo#$$...O%    O.##...$.$..$$+X+#X+#$$$#X#......$$$%%",
"...oOo       .$o...oO     Oo.#$.$.$.$.#$$@++XX##.$##$.....$..$%o",
".o.o         ooo&oOo       O......$.$$@$$#+X#.oo$..$....$.$.$oOO",
"...$+XXX#$%oo&ooO&          %OOo%oo...$.$##$.o  o...$......$oo o",
"o.$++###XX+$$%%o.o&&o ooOoO       %OoOOO.oooo    oo.ooooooo. O%o",
".$+##$#++###X==X####$$...%.oo.o       O OOO            OO%o%  oO",
"o$##+$$#$+###X=X+@XXX+@$.....$$.oo    OoOO  O     o   OO%o   OOO",
"o$#X.$$..$$.#+XX#$+X+##....###+#$.O  ooO OOOOOoO&o O O O    O oO",
".$++$$$$$$$.$X#.$.$.$$....#$$#@$.&o  .@++#.Ooo%.o ooOO   O. Oooo",
"o$##$+#.$$..##....$......$$@$#@$.o  .$@@@X+#$.Ooo$#######$$$oo..",
"o$$....o..$.$$..o.$.$..$..#..@.oO  oo$######+$oo.$##$.#+@@#..$Oo",
".$$.ooooo..$$.ooo...oo........o    %.$$##$$$#$.O.....$$@#$..#.o.",
"%...oOOOoo...oOOOo..ooo......o O  O%oo.$$$$$...Oo.#$$#$$$..$#$o.",
".o&O%%OO oo*o   &*oOoooooooo%     OOO.oo......oOo...$.....$#$.%o",
"O...o%OOO Oo.$##XX==X+$o            O&&OOOOoooO -o..$..$..$..%%o",
" Ooo%oO  O&.$XX++XXXX++@$o    .$@@+XX#@$.oOOOO   -oo.......oooOO"};
