/* XPM */
static char * wall_blood_00_xpm[] = {
"64 64 37 1",
" 	c #010101",
".	c #464D4F",
"+	c #383F40",
"@	c #141413",
"#	c #382B2F",
"$	c #62797E",
"%	c #4B3F38",
"&	c #242624",
"*	c #3E3936",
"=	c #2F1C17",
"-	c #28231F",
";	c #536265",
">	c #211F1D",
",	c #1B100E",
"'	c #322320",
")	c #4D3835",
"!	c #280601",
"~	c #330802",
"{	c #470B01",
"]	c #521006",
"^	c #390901",
"/	c #382D28",
"(	c #4B342D",
"_	c #50241C",
":	c #3B4446",
"<	c #2B1F23",
"[	c #1C1C1B",
"}	c #140403",
"|	c #2B2A27",
"1	c #292A28",
"2	c #241A16",
"3	c #1C201F",
"4	c #10100F",
"5	c #090909",
"6	c #2C2723",
"7	c #574243",
"8	c #4E595A",
/* pixels */
"                                                                ",
".............+.+..........+.+++@ ..........................+.+..",
"+++++++++++++++++++++++++++++++@ .++++++++++++++++++++++++++++++",
"+++++++++++++++++++++++++++++++@ .++++++++++++++++++++++++++++++",
"+++++++++++++++++++++++++#$.+++@ .+#$.++++++++++++++++++++++++++",
"+++++++++++++++++++++++++#..+++@ .+#..++++++++++++++++++++++++++",
"+++++++++++++++++++++++++###+++@ .+##+++++++++++++++++++++++++++",
"++++++++++++++++++++++++++##+++@ .++++++++++++++++++++++++++++++",
"..........................%%...&@$..............................",
"++++++++++++++++++++++++++#+++*@ .++++++++++++++++++++++++++++++",
"...........................%...&@$..............................",
"..........................%....@ $..............................",
"...............................&@$..............................",
"...............................=@$..............................",
"...............................&@$..............................",
"...............................-@$....................+.........",
"...............................-@$...................+..........",
"...............................@@;.................++;..........",
"...............................>@$...............*#+;...........",
"...............................,@;............+'=-)....+........",
"...............................&@$.........+*!~{)....++.........",
"...............................,@;......'~~!]^....*#+;..........",
"...............................&@;......{]{~...++#').....+......",
"...............................@@;....../~..++~~]).....++.......",
"...............................@@;.......~!~!{{.....+//;........",
"...............................@@;......({{{^....+~~=%..........",
"...............................@@......./^^..+*~!~{)............",
"...............................@@;........!~~!^]_...............",
"...............................@@........{]]{/..:...............",
"...............................@@;........^^....................",
"...............................@@........^^/....................",
"...............................@<........^^.....................",
"...............................-@......../^.....................",
".........................#$+...@-..#$+....^.....................",
".........................#++...-@..#++....^.....................",
".........................##....@-..##.....^.....................",
"...............................--.........^.....................",
"$$$$$$$$$$$$$$$$$$$$$$$$$$$$.$.>-.$.$$$$$$].$.$.$$$.$.$.$.$$$$$$",
"                                                                ",
"                                                                ",
">@ @[@@@[@ @[@@@[@ @[@@@[@ @[@@@[@ @[@@@[@ }[@@@[@ @[@@@[@ @[@@@",
"|@ ||[@11@ 11[@11@ 11[@11@ 11[@11@ 11[@|1@ 21[@11@ 11[@11@ 11[@1",
"1@ 11[[11@ 11[[11@ 11[[11@ 113[11@ 11[[11@ !1[[11@ 11[[11@ 11[[1",
"1@ 11[[11@ 11[[11@ 11[[11@ 1|[[11@ 11[[11@ !1[[11@ 11[[11@ 11[[1",
"1[@11[[11[@11[[11[@11[[11[@11[[11[@11[[1&4}!1[[11[@11[[11[@11[[1",
"1@ 11[[11@ 11[[11@ |1[[11@ 11[[11@ 11[[1|} !1[[11@ 11[[11@ 1|[[1",
"1[@11[[11[@11[[11[@11[[11[@11[[11[@11[[11}5!1[[11[@11[[|1[@11[[1",
"1[ 11[[11[ 11[[11[ 11[[11[ 11[[11[ 11[[1&! !1[[113 11[[11[ 11[[1",
"|[@11[[11[@11[[11[@11[311[@11[[1|[@11[[11}}}&[[11[@11[[11[@11[[1",
"1[@11[[1|[@11[[11[@11[[113@11[[11[@11[[11[}!1[[11[@11[[11[@11[[1",
"1@@11[[11@@1[[[11@@11[[11@@1[[[11@@11[[11@}![[[61@@11[[11@@1[[[1",
"13@11[[11[@11[[11[@11[[11[@1|[[11[@11[[11,}21[[11[@11[[11[@11[[1",
"[@ 1[[[1[@ 1[[[1[@ |[[[1[@ 1[[[1[@ 1[[[1@4 !,[[1[@ 1[[[1[@ 1[[[1",
"1@@[1[[1|@@[1[[11@@[1[[11@@[1[[11@@[1[[16}}}=[[11@@[1[[11@@[1[[1",
"[@ 1[[@1[@ 1[[@1[@ 1[[@1[@ 1[[@1[@ 1[[,2,} !,[@1[@ 1[[@13@ 1[[@1",
"[  [[@ [[  3[@ [[  [[@ [[  [[@ [[  [[4 ,}  }}4 [[  [[@ [[  [[@ [",
"$$$$$$$$$;$$$$;$;$;$;$;;;;;;$;$;$;$$$$7]7]]]]$7$$$$$$$$$$;$$$$;$",
"........+................+.............*.'^/....*.:.....+.......",
".+.....+...............++...............*#^.....::.....*........",
"+..$+......$+......$+..+...$+......$+..:..^{*...:..$+.8:...$+...",
"..#++.....#++.....#++.+.+.#++.....#:+.....~~+..+..#++.....#++..+",
"+.##......##......##...+..##......##......~!..++..##......##..+.",
"......................+.............*..../^^/.+..............+.+",
"#======#=#=#######=#=#@#@#@@@@#@#######!!!!!~!~=#======#=#=#####"};
