/* XPM */
static char * wall_10_xpm[] = {
"64 64 22 1",
" 	c #010101",
".	c #464D4F",
"+	c #383F40",
"@	c #382B2F",
"#	c #62797E",
"$	c #3B4446",
"%	c #3E3936",
"&	c #242624",
"*	c #2B1F23",
"=	c #28231F",
"-	c #1C1C1B",
";	c #9F7315",
">	c #855A00",
",	c #536265",
"'	c #A08648",
")	c #1C201F",
"!	c #2C2723",
"~	c #211F1D",
"{	c #2F1C17",
"]	c #241A16",
"^	c #889C9E",
"/	c #141413",
/* pixels */
"                                                                ",
"......+.+.+.+++@......+.+.+.+++@......+.+.+.+++@......+.+.+.+++@",
".++++++++++++++@.++++++++++++++@.++++++++++++++@.++++++++++++++@",
".+@#.+++++@#.++@.+@#.+++++@#.++@.+@#.+++++@#.++@.+@#.+++++@#.++@",
".+@..+++++@..++@.+@..+++++@..++@.+@..+++++@..++@.+@..+++++@..++@",
".+@@++++++@@+++@.+@@++++++@@+++@.+@@++++++@@+++@.+@@++++++@@+++@",
".++++++++++++++@.+$%+++++++++++@.+$++++++++++++@.++++++++++++++@",
".++&@@@@+@++.++@.++*@@@@+@++.++@.+%&@@@@+@++.++@.++=@@@@+@++.++@",
".++@--;;;>-&,$+@.++@--;;;>-&,++@.++@--;;;>-&,++@.++@--;;;>-&,$+@",
".++@-;';>---,%+@.++@-;';>---,++@.++@-;';>---,++@.++@-;';>---,%+@",
"#..@;';>----,..+#..@;';>----,..+#..@;';>----,..+#..@;';>----,..+",
".++@;;>----;,++@.++@;;>---);,++@.++@;;>----;,++@.++@;;>----;,++@",
"#..@;;---=;;#..+#..@;;---!;;#..+#..@;;---=;;#..+#..@;;---=;;#..+",
"#..@;---=;;;#..@#..@;---~;;;#..@#..@;---~;;;#..@#..@;---=;;;#..@",
"#..@----;;;>#..+#..@----;;;>#..+#..@----;;;>#..+#..@----;;;>#..+",
"#..@---;;;>-#..@#..@---;;;>-#..@#..@---;;;>~#..@#..@---;;;>-#..@",
"#..@--;;;>-&,..+#..@--;;;>-&,..+#..@--;;;>-*,..+#..@--;;;>-~,..+",
"#..@-;';>---,..+#..@-;';>--~,..+#..@-;';>---,..+#..@-;';>---,..+",
"#..@;';>----,..+#..@;';>----,..+#..@;';>----,..+#..@;';>--~~,..+",
"#..@;;>----;,..+#..@;;>----;,..+#..@;;>----;,..+#..@;;>----;,..+",
"#..@;;--~~;;#...#..@;;---~;;#...#..@;;---{;;#...#..@;;---~;;#...",
",..@;---{;;;#..+,..@;---*;;;#..+,..@;---&;;;#..+,..@;---&;;;#..+",
"#..@----;;;>#...#..@---~;;;>#...#..@----;;;>#...#..@----;;;>#...",
",..@---;;;>~#..+,..@---;;;>~#..%,..@---;;;>-#..+,..@---;;;>-#..+",
"#..@--;;';--,...#..@--;;';--,...#..@--;;';--,...#..@--;;';--,...",
",..@-;;';---#..+,..@-;;';---#..+,..@-;;';---#..+,..@-;;';---#..+",
",..@;;';----,..+,..@;;';----,..+,..@;;';----,..+,..@;;';~---,..+",
",..@;;;----;,..+,..@;;;---);,..+,..@;;;----;,..+,..@;;;----;,..+",
",..@;;----;;,..@,..@;;----;;,..@,..@;;----;;,..@,..@;;----;;,..@",
",..@;---);;;,..+,..@;----;;;,..+,..@;----;;;,..+,..@;----;;;,..+",
",..@----;;';,..@,..@----;;';,..@,..@----;;';,..@,..@----;;';,..@",
",..@--->;';-#..+,..@--->;';-#..+,..@--->;';-#..+,..@--->;';-#..+",
",..@--;;';--,..@,..@--;;';--,..@,..@--;;';--,..@,..@-~;;';--,..@",
",..@~>;';---#..@,..@->;';~--#..@,..@->;';---#..@,..@->;';---#..@",
",..@>;';~---,..@,..@>;';~---,..@,..@>;';&~--,..@,..@>;';&~--,..@",
",..@;;;&~-->#..@,..@;;;&~-->#..@,..@;;;=--->#..@,..@;;;~--->#..@",
",..@;>---->;#..@,..@;>--]->;#..@,..@;>---->;#..@,..@;>-~-->;#..@",
",..@>---->;;#..@,..@>---->;;#..@,..@>---->;;#..@,..@>---->;;#..@",
",..+----;;';#..@,..+----;;';#..@,..+----;;';#..@,..+----;;';#..@",
",..@---;;';-#..@,..@---;;';-#..@,..@---;;';-#..@,..@---;;';-#..@",
",..+--;;;;--#..@,..+--;;;;--#..@,..+--;;;;--#..@,..+--;;;;--#..@",
",..@-;';;---#..@,..@-;';;---#..@,..@-;';;---#..@,..@-;';;---#..@",
"...+;';;----#..@...+;';;)---#..@...+;';;----#..@...+;';;---)#..@",
",..@;;;-~--;#..@,..@;;;----;#..@,..@;;;----;#..@,..@;;;----;#..@",
"...+;;----;;#..@...+;;---~;;#..@...+;;----;;#..@...+;;----;;#..@",
",..+>----;;;#..@,..+>----;;;#..@,..+>----;;;#..@,..+>----;;;#..@",
"...+----;;;>#..@...+----;;;>#..@...+----;;;>#..@...+----;;;>#..@",
",..+---;;;>-#..@,..+---;;;>-#..@,..+---;;;>-#..@,..+---;;;>-#..@",
"...+--;;;>-*#..@...+--;;;>-&#..@...+--;;;>-*#..@...+--;;;>-*#..@",
"...+-;';>---#..@...+-;';>--~#..@...+-;';>---#..@...+~;';>---#..@",
"...+;';>----#..@...+;';>----#..@...+;';>----#..@...+;';>----#..@",
"...+;;>---~;#..@...+;;>----;#..@...+;;>---~;#..@...+;;>----;#..@",
"...+;;---=;;#..@...+;;---~;;#..@...+;;---=;;#..@...+;;--~~;;#..@",
"...+;---=;;;#..@...+;---{;;;#..@...+;---=;;;#..@...+;---~;;;#..@",
"...+----;;;>#..@...+----;;;>#..@...+----;;;>#..@...+----;;;>#..@",
"...+---;;;>-#..@...+---;;;>-#..@...+---;;;>-#..@...+---;;;>-#..@",
"....,,#,####^..@....,,#,####^..@....,,#,####^..@....,,#,####^..@",
".+......+......@.+......+......@.+......+......@.+......+......@",
"+..............@+..............@+..............@+..............@",
"...#+......#+..@...#+......#+..@...#+......#+..@...#+......#+..@",
"+.@++..+..@++..@+.@++..+..@++..@+.@++..+..@++..@+.@++..+..@++..@",
"..@@......@@...@..@@......@@...@..@@......@@...@..@@......@@...@",
"...............@...............@...............@...............@",
"/@////@/@@@@@@@@/@////@/@@@@@@@@/@////@/@@@@@@@@/@////@/@@@@@@@@"};
