/* XPM */
static char * wall_00_xpm[] = {
"64 64 20 1",
" 	c #010101",
".	c #464D4F",
"+	c #383F40",
"@	c #141413",
"#	c #382B2F",
"$	c #62797E",
"%	c #242624",
"&	c #3E3936",
"*	c #2B1F23",
"=	c #2F1C17",
"-	c #2C2723",
";	c #211F1D",
">	c #28231F",
",	c #536265",
"'	c #1B100E",
")	c #1C1C1B",
"!	c #1C201F",
"~	c #292A28",
"{	c #2B2A27",
"]	c #3B4446",
/* pixels */
"                                                                ",
".............+.+..........+.+++@ ..........................+.+..",
"+++++++++++++++++++++++++++++++@ .++++++++++++++++++++++++++++++",
"+++++++++++++++++++++++++++++++@ .++++++++++++++++++++++++++++++",
"+++++++++++++++++++++++++#$.+++@ .+#$.++++++++++++++++++++++++++",
"+++++++++++++++++++++++++#..+++@ .+#..++++++++++++++++++++++++++",
"+++++++++++++++++++++++++##++++@ .+##+++++++++++++++++++++++++++",
"+++++++++++++++++++++++++++++++@ .++++++++++++++++++++++++++++++",
"...............................%@$..............................",
"++++++++++++++++++++++++++++++&@ .++++++++++++++++++++++++++++++",
"...............................*@$..............................",
"...............................@ $..............................",
"...............................%@$..............................",
"...............................=@$..............................",
"...............................-@$..............................",
"...............................;@$..............................",
"...............................>@$..............................",
"...............................@@,..............................",
"...............................>@$..............................",
"...............................@@,..............................",
"...............................%@$..............................",
"...............................'@,..............................",
"...............................%@,..............................",
"...............................@@,..............................",
"...............................@@,..............................",
"...............................@@,..............................",
"...............................@@...............................",
"...............................@@,..............................",
"...............................@@...............................",
"...............................@@,..............................",
"...............................@@...............................",
"...............................@%...............................",
"...............................>'...............................",
".........................#$+...@%..#$+..........................",
".........................#++...>@..#++..........................",
".........................##....@>..##...........................",
"...............................->...............................",
"$$$$$$$$$$$$$$$$$$$$$$$$$$$$.$.%>.$.$$$$$$$.$.$.$$$.$.$.$.$$$$$$",
"                                                                ",
"                                                                ",
")@ @)@@@)@ @)@@@)@ @)@@@!@ @)@@@)@ @)@@@)@ @)@@@)@ @)@@@)@ @)@@@",
"~@ ~~)@~~@ ~~)@~~@ ~~)@~~@ ~~)@~~@ ~~)@~~@ ~~)@~~@ ~{)@~~@ ~~)@~",
"~@ ~~))~~@ ~~))~~@ ~~))~~@ ~~))~~@ ~~))~~@ ~~))~~@ ~~))~~@ ~~!)~",
"~@ ~~))~~@ ~~))~~@ ~~))~~@ ~~))~~@ ~~))~~@ ~~))~~@ ~~))~~@ ~{))~",
"~)@~~))~{)@~~))~~)@~~))~~)@~~))~~)@~~))~~)@~~))~~)@~~))~~)@~~))~",
"~@ ~~))~{@ ~~))~~@ ~~))~~@ ~{))~~@ ~~))~~@ ~~))~~@ ~~))~~@ ~~))~",
"~)@~~))~~)@~~)){~)@~~)){~)@~~))~~)@~~))~~)@~~)){~)@~~))~~)@~~))~",
"~) ~~)){~) ~~))~~) ~~))~~) ~~))~~) ~~)){{) ~~))~~) ~~))~~) ~~))~",
"~)@~~))~~)@~~))~~)@~~))~~)@~{)!~~)@~~))~{)@~~))~~)@~~)!~~)@~~))~",
"~)@~~))~~)@~~))~~)@~~))~~)@~~))~~)@~~))~~)@~~))~~)@~~))~~!@~~))~",
"~@@~~))~~@@~)))~~@@~~))~~@@~)))~~@@~~))~~@@~)))~~@@~~))~~@@~)))~",
"~)@~~))~~)@~~))~~)@~~))~~)@~~))~~)@~~))~~)@~~))~{)@~~))~~)@~{))~",
")@ ~)))~)@ ~)))~)@ ~)))~)@ ~)))~)@ ~)))~)@ ~))!~)@ ~)))~)@ ~)))~",
"~@@)~))~~@@)~))~~@@){))~~@@)~))~~@@)~))~~@@)~))~~@@)~))~~@@)~))~",
")@ ~))@~)@ ~!)@~)@ ~))@~)@ ~))@~)@ ~))@~)@ ~))@~)@ ~))@~)@ ~))@~",
")  ))@ ))  ))@ ))  )!@ ))  ))@ ))  ))@ ))  ))@ ))  ))@ ))  ))@ )",
"$$$$$$$$$,$$$$,$,$,$,$,,,,,,$,$,$,$$$$$$$$$$$$$$$$$$$$$$$,$$$$,$",
"........+................+.............+.+......+.+.....+.......",
".+.....+...............++...............+........+.....+........",
"]..$+......$+......$+..+...$+......$+..+...$+...+..$+......$+...",
"..#++.....#++.....#++.+.+.#++.....#++.....#++..+..#++.....#++..+",
"+.##......##......##...+..##......##......##..++..##......##..+.",
"......................+.............+.........+..............+.+",
"#======#=#=#######=#=#@#@#@@@@#@########=#=##=#=#======#=#=#####"};
