/* XPM */
static char * wall_02_xpm[] = {
"64 64 14 1",
" 	c #010101",
".	c #464D4F",
"+	c #383F40",
"@	c #3B4446",
"#	c #9F7315",
"$	c #62797E",
"%	c #1C1C1B",
"&	c #141413",
"*	c #292A28",
"=	c #1C201F",
"-	c #2B2A27",
";	c #536265",
">	c #382B2F",
",	c #2F1C17",
/* pixels */
"                                                                ",
".............+.+..........+.+.+............................+.+..",
"++++++++++++++++++++++++++++++++++++++++++++++++++++++++++++++++",
"++++++++++++++++++++++++++++++++++++++++++++++++++++++++++++++++",
"++++++++++++++++++++++++++++++++++++++++++++++++++++++++++++++++",
"++++++++++++++++++++++++++++++++++++++++++++++++++++++++++++++++",
"++++++++++++++++++++++++++++++++++++++++++++++++++++++++++++++++",
"++++++++++++++++++++++++++++++++++++++++++++++++++++++++++++++++",
"................................................................",
"+@++++++++++++++++++++++++++++++++++++++++++++++++++++++++++++++",
"................................................................",
"................................................................",
"................................................................",
"................................................................",
"................................................................",
"................................................................",
"................................................................",
"................................................................",
"................................................................",
"................................................................",
"................................................................",
"................................................................",
"................................................................",
"................................................................",
"................................................................",
"................................................................",
"................................................................",
"................................................................",
"################################################################",
"################################################################",
"################################################################",
"################################################################",
"................................................................",
"................................................................",
"................................................................",
"................................................................",
"................................................................",
"$$$$$$$$$$$$$$$$$$$$$$$$$$$$.$.$$$$.$$$$$$$.$$$$$$$.$.$.$.$$$$$$",
"                                                                ",
"                                                                ",
"%& &%&&&%& &%&&&%& &%&&&%& &%&&&%& &%&&&%& &%&&&%& &%&&&%& &%&&&",
"*& **%&**& **%&**& **%&**& **%&**& **%&**& **%&**& **%&**& **=&*",
"*& **%%**& **%=**& **%%**& **%%**& **%%**& **%%-*& **%%**& **%%*",
"*& **%%**& **%%**& **%%**& **%%**& **%%**& **%%**& **%%**& **%%*",
"*%&**%%-*%&**%%--%&**%%**%&*-%%**%&**%%**%&**%%**%&**=%**%&**%%*",
"*& **%%**& **%%**& **%%**& **%%**& **%%**& **%%**& *-%%**& **%%*",
"*%&**%%**%&**%%**%&**%%**%&**%%**%&**%%**%&**%%**%&**%%**%&**%%*",
"*% **%%**% **%%**% **%%**% **%%**= **%%-*% **%%**% **%%**% **%%-",
"*%&*-%%*-%&**%%**%&**%%**%&**%%**%&**%%**%&**=%**%&**%%**%&*-%%*",
"*%&**%%**%&**%%**%&**%=**%&**%%**%&**%%**%&**%%**%&**%%**%&**%%*",
"*&&**=%**&&*%=%**&&**%%**&&*%%%**&&**%%**&&*%%%**&&**%%**&&*%%%*",
"*%&**%%**%&**%%**%&**%%**%&**%%**%&**%=**%&**%%**%&**%%**%&**%%*",
"%& *%%%*%& *%%%*%& *%%%*%& *%%%*%& *%%%*%& *%%%-%& *%%%*%& *%%%*",
"*&&%*%%**&&%*%%**&&%*%%**&&%*%%**&&%*%%-*&&%*%%**&&%*%%**&&%*%%*",
"%& *%%&*%& *%%&*%& -%%&*=& -%%&*%& *%%&*%& *%%&*%& -%=&*%& *%%&*",
"%  %%& %%  %%& %%  %%& %%  %%& %%  %%& %%  %%& %%  %%& %%  %%& %",
"$$$$$$$$$;$$$$;$;$;$;$;;;;;;$;$;$;$$$$$$$$$$$$$$$$$$$$$$$;$$$$;$",
"........+................+.............+.+......+.+.....+.......",
".+.....+...............++...............+........+.....+........",
"+..$+......$+......$+..+...$+......$+..+...$+...+..$+......$+...",
"..>++.....>++.....>++.+.+.>++.....>++.....>++..+..>++.....>++..+",
"+.>>......>>......>>...+..>>......>>......>>..++..>>......>>..+.",
"......................+.............+.........+..............+.+",
">,,,,,,>,>,>>>>>>>,>,>&>&>&&&&>&>>>>>>>>,>,>>,>,>,,,,,,>,>,>>>>>"};
