/* XPM */
static char * wall_03_xpm[] = {
"64 64 27 1",
" 	c #979578",
".	c #79735E",
"+	c #818556",
"@	c #807B6A",
"#	c #67625C",
"$	c #666A62",
"%	c #756F64",
"&	c #4F4C48",
"*	c #4E595A",
"=	c #464D4F",
"-	c #3E3936",
";	c #322320",
">	c #4D3835",
",	c #382D28",
"'	c #2B1F23",
")	c #2C2723",
"!	c #342A15",
"~	c #28231F",
"{	c #9F7315",
"]	c #4B3F38",
"^	c #574243",
"/	c #211F1D",
"(	c #242624",
"_	c #2F1C17",
":	c #616257",
"<	c #93968B",
"[	c #322E1D",
/* pixels */
"   .+@@@@#@@@@@@@@@@.@@@@#@@@@$.   @@@@.@#@@@@@@@@@@@@@@%$@@@@#%",
"@&&&*&&&&&&&&&&&&&&&&&=&&&&&&&&&@&&&&&&&&&&&&&&&&&&&&&&&&&&&&&&&",
"@-%;&&&&&&&&&&&&&&&&&&&&&&&-@;&-@-@;&&&&&&&&&&&&&&&&&&&&&&&-@;&>",
"#>,;&&&&&&&&&&&&&&&&&&&&&&=>;;&&$-;;&&&&&&&&&&&&&&&&&&&&&&&-;;&&",
"%--&');-;>';;;;!;>'-~>----;~-&&-@>-=~;;-;-;;;;;;;-;-;-----)~-&&-",
"$&&&'>&&&&=&&&&&&&&&&&&&&&&-&&&-#&&&;>&&&&&&&&&&&&&&&&&&&&&-&&&>",
"#&&&;&&&&&&&&&&&&&&&&&&&&&&#&&&;#&&&;&&&&&&&&&&&&&&&&&&&&&&#&&&;",
"#&&&;&&&&&&&&&&&&&&&&&&&&{&#&&&-#&&&~&&&&&&&&&&&&&&&&&&&&{&#&&=]",
"#&&&>&&&&&&&&&&&&&&&&&&&&&&#&&&;#&&&>&&&&&&&&&&&&&&&&&&&&&&$^&&;",
"#&&&;&{{{{{{{{{{{{{{{{{{&{&@&&&;#&&&'&{{{{{{{{{{{{{{{{{{&{&@&&&;",
"&&&&]&&&&&&&&&&&&&&&&&&&&&&@&&&;&&&&-&&&&&&&&&&&&&&&&&&&=&=+&&&;",
"#&&&&#$%#@#@######@#@#@@@@@@&&&;#&&=&##@#@#@######@#@#@@@@@%&&&;",
"=-.;&&&&&&&&&&&&&&&&&&&&&&&-@;&/&-%;&&&&&&&&&&&&&&&&&&&&&&&-@;&~",
"#];;&&&&&&&&&&&&&&&&&&&&&&&-;;&;#-,;&&&&&&&&&&&&&&&&&&&&&&&>;;&;",
"&->&&&&&&&&&&&&&&&&&&&&&&&&-]&&)&>>&&&&&&&&&&&&&&&&&&&&&&&&>-&&~",
";(/~~/')(_((_)/(;_)/~~~;/~'(/_~/!/(/)((;_~/)(_~/;)/~~~~;/~~/)/~~",
"   @%@@@@$@@@@@@@@@@@@@@@:@@@@#.<  @.@@@@$@@@@@@.@@@@@@@@$@@@@#@",
"@&&&&&&&&&&&&&&&&&&&&&&&&&&&&&&&@&&&&&&&&&&&&&&&&&&&&&&&&&&&&&&&",
"@-@;&&&&&&&&&&&&&&&&&&&&&&&-@;&>%-@[&&&&&&&&&&&&&&&&&&&&&&&>@;&-",
"#-;;&&&&&&&&&&&&&&&&&&&&&&&-;;&&#>;;&&&&&&&&&&&&&&&&&&&&&&&-;~&&",
"@--&(!;>;]';;;;;;-;-;-----;(-&&-@--&);;-'>;;;;;;;>)-_-->--)~-&&-",
"#&&&'-&&&&&&&&&&&&&&&&&&&&&-&&&-#&&&;-&&&&&&&&&&&&&&=&&&&&&-&&&-",
"#&&&;&&&&&&&&&&&&&&&&&&&&&&#&&&;#&&&;&&&&&&&&&&&&&&&&&&&&&&#&&&'",
"#&&&;&&&&&&&&&&&&&&&&&&&&{&#&&&]#&&&;&&&&&&&&&&&&&&&&&&&&{&#&&&-",
"#&&&>&&&&&&&&&&&&&&&&&&&&&&#&&&;#&&&-&&&&&&&&&&&&&&&&&&&&&&#&&&;",
"#&&&;&{{{{{{{{{{{{{{{{{{&{&@&&&;#&&&;&{{{{{{{{{{{{{{{{{{&{&@&&&;",
"&&&&-&&&&&&&&&&&&&&&&&&&&&=@&&&;&&&&-&&&&&&&&&&&&&&&&&&&&&&@&&&;",
"#&&&&##@#@#@######@#@#@@@@@.&&&;#&&&&##@#@$.######@#@#@@@@@@&&&;",
"&-.;&&&&&&&&&&&&&&&&&&&&&&&-@;&'&-@;&&&&&&&&&&&&&&&&&&&&&&&]%;&)",
"#-;;&&&&&&&&&&&&&&&&&&&&&&&>;;&!#-;;&&&&&&&&&&&&&&&&&&&&&&&-;)&;",
"&>]=&&&&&&&&&&&&&&&&&&&&&&=->&&~&>-&&&&&&&&&&&&&&&&&&&&&&&&-]&&~",
";~/(/)/;/)(_~/)(;_~/)/~;~'/~~//(;~/(_();('~_(~~/;)_(~/);~~~~_~~~",
"   @@@@@@#@@@@@@.@@@@@@@@$@@@@#@   @@@@@@#@@@@@@@@@@@@@.%$@@@@$@",
"@=&&&&&&&&&&&&&&&&&&&&&&&&&=&&&&@=&&&&&&&&&&&&&&&&&&&&&&&&&&&&&&",
"%].;&&&&&&&&&&&&&&&&&&&&&&&-@;&-.-@~&&&&&&&&&&&&&&&&&&&&&&&>.;&-",
"$];)&&&&&&&&&&&&&&&&&&&&&&&>;;&&#>;)&&&&&&&&&&&&&&&&&&&&&&&-;;&&",
"@>-&/;;-;>;;;;;;;-;-)-->->;/-&&-@>-&/;;-;>);;;;;;])-;>----'~-&&-",
"#&&&;-&&&&&&&&&&&&&&&&&&&&&-&&&-#&&&;-&&&&&&&&&&&&&=&&&&&&&-&&&-",
"#&&&;&&&&&&&&&&&&&&&&&&&&&&#&&&;#&&&;&&&&&&&&&&&&&&&&&&&&&&#&&&;",
"#&&&;&&&&&&&&&&&&&&&&&&&&{&#&&&-#&&&;&&&&&&&&&&&&&&&&&&&&{&#&&&-",
"#&&&-&&&&&&&&&&&&&&&&&&&&&&#&&&;#&&&-&&&&&&&&&&&&&&&&&&&&&&#&&&;",
"#&&&)&{{{{{{{{{{{{{{{{{{&{=.&&&;#&&&)&{{{{{{{{{{{{{{{{{{&{&@&&&;",
"&&&&>&&&&&&&&&&&&&&&&&&&&&&@&&&;&&&&>&&&&&&&&&&&&&&&&&&&&&&@&&&;",
"#&&&&##@$@$.######@#@#@@@@@@&&&;#&&&&##@#@#@######@#@#@@@@@@&&&;",
"&>@;&&&&&&&&&&&&&&&&&&&&&&&-@;&(&>@;&&&&&&&&&&&&&&&&&&&&&&&>@;&/",
"#-;;&&&&&&&&&&&&&&&&&&&&&&&-;;&;#-;~&&&&&&&&&&&&&&&&&&&&&&&-;~&;",
"&--&&&&&&&&&&&&=&&&&&&&&&&&--&&_&>-&&&&&&&&&&&&&&&&&&&&&&&&->&&~",
")~~/~~/;'/_((_(_;~~~~_(;)(~_(~/))/(/~_(;_((_(_(/;/(_((_;~~/(((_(",
"   @@@@.@$@@@@@@@@@@@@+%@$@.@@$%   @@@@.@#@@@@@@@@@@@@@@%$@@@@#@",
"@&&&&&&&&&&&&&&&&&&&&&=&&&&&&&&&@&&&&&=&&&&&&&&&&&&&&&&&&&&&&&&&",
"@]@;&&&&&&&&&&&&&&&&&&&&&&&-@;&-@]@;&&&&&&&&&&&&&&&&&&&&&&&-@;&-",
"$-;;&&&&&&&&&&&&&&&&&&&&&&&];;&&#-;;&&&&&&&&&&&&&&&&&&&&&&&>;;&&",
"%>-&';;-;>';;;;;;-;-;>----;'-&&-%]-&/;;>;-;;;;;;;-;-;-----;/-&&-",
"$&&&;-&&&&&&&&&&&&&&&&&&&&&-&&&-$&&&;-&&&&&&&&&&&&&&&&&&&&&-&&&-",
"#&&&;&&&&&&&&&&&&&&&&&&&&&&#&&&;#&&&;&&&&&&&&&&&&&&&&&&&&&&#&&&;",
"#&&&;&&&&&&&&&&&&&&&&&&&&{&#&&&-#&&&;&&&&&&&&&&&&&&&&&&&&{&#&&=>",
"#&&&-&&&&&&&&&&&&&&&&&&&&&&#&&&;#&&&>=&&&&&&&&&&&&&&&&&&&&&$&&&;",
"#&&&;&{{{{{{{{{{{{{{{{{{&{&@&&&;#&&&;&{{{{{{{{{{{{{{{{{{&{&@&&&;",
"&&&&-&&&&&&&&&&&&&&&&&&&&&&@&&&;&&&&-&&&&&&&&&&&&&&&&&&&&&&@&&&;",
"#&&&&##@#@#@######@#@#@@@@@@&&&;$&&&&##@#@#@######@#@#@@@@@.&&&;",
"&-@;&&&&&&&&&&&&&&&&&&&&&&&-@;&(&-.;&&&&&&&&&&&&&&&&&&&&&&&-@;&~",
":-;;&&&&&&&&&&&&&&&&&&&&&&&-;;&!#-;;&&&&&&&&&&&&&&&&&&&&&&&>;;&;",
"&>>&&&&&&&&&&&&&&&&&&&&&&&&--&&'&->&&&&&&&&&&&&&&&&&&&&&&&&->&&~",
"~(/~~~(;/)/~~'(';(_~(_(;/~''/~~~;~~~/~(;_)/~(_)/;(_)/~(;~~/(/~~~"};
