/* XPM */
static char * wall_light0_01_xpm[] = {
"64 64 21 1",
" 	c #010101",
".	c #464D4F",
"+	c #383F40",
"@	c #141413",
"#	c #62797E",
"$	c #382B2F",
"%	c #1C201F",
"&	c #1C1C1B",
"*	c #4B3F38",
"=	c #242624",
"-	c #3B4446",
";	c #3E3936",
">	c #1B100E",
",	c #28231F",
"'	c #211F1D",
")	c #2B1F23",
"!	c #536265",
"~	c #2C2723",
"{	c #2F1C17",
"]	c #292A28",
"^	c #2B2A27",
/* pixels */
"                                                                ",
".............+.+.+.+++@ ......+.+.+.++++  ++.+.+...........+.+..",
"++++++++++++++++++++++@ .+++++++++++++++  ++++++++++++++++++++++",
"++++++++++++++++++++++@ .+#++++++++++#++  ++++++++++++++++++++++",
"++++++++++++++++$#.+++@ .$+++$$$$$$+$+++  ++$#.+++++++++++++++++",
"++++++++++++++++$..+++@ .+++$$$$$$$$++++ @++$..+++++++++++++++++",
"++++++++$+++++++$$++++@ .++$$$%&&&$$$+++@ ++$$$+++++++++++++++++",
"+++++++$@$++++++++++++@ .++$$&&++&&$$+++ @+++$$+++++++++++++++++",
".......***............=@.++$$&+&&+&$$+++@ ...**.................",
"+++++++$$$++++.+.++-;-> .++$$&+&&+&$$+++ @+++$++++++.+.+.+++++++",
".......**.............=>#..++$+&&-$++...@ ....*.................",
".......***............@ .++$$&+&&+&$$+++ =...*..................",
".......**.............,@#..++$+&&+$+;...,@......................",
".......**.............'>#..++$+&&+$++...>=......................",
"........*.............=@#..++$+&&+$+....,@......................",
".......**.............)@#..++$+&@+$++...@,......................",
"........*.............=@#..-+$+@&+++....=@......................",
"........*.............>@#..;+$+&&+$++...@'......................",
"......................'@#..-+$+&&++++...,,......................",
"........*.............>@!...+$+&&+$++...>)..................+!..",
"......................,@#..++$+&&+$++...=,.......+.........+#...",
"......................@@!...+$+&&+$++...>'......+#.........!....",
"......................=@#..++++&&+$++...=,......!........+......",
"......................@@!..++$+&&+$++...>=.....!......+.+.......",
"......................@@!..++++&%+$++...>,...........+!+.+!.....",
"......................@@!..++$+&&+$++...@~..........+#+.+#......",
"......................@@!..++$+&@+$++...@=.........+#..+!.......",
"...+..................@@!..++$+@&+$++...,'.........!..+.........",
"....+.................@@...++$+&@+$++...>{......................",
"...++.................@@!..++$+@&+$++...=,......................",
"..+++.................@@....+$+&&;$++...@~......................",
"..++..................@=!..++$+&'+$++...'=......................",
"..++-.................=>...++$$++$$++...==......................",
"...+............$#;...@'...+++$$$$+++...,{..$#+.................",
"....+...........$++...~@...!++++++++!...={..$++.................",
"................$$....>'....!++++++!....,=..$$..................",
"......................=,..#...!!!!...#..'~......................",
"###################.#.{=.$..........$...={.#.######.#.#.#.######",
"                       =................'                       ",
"                        ..##########.#..                        ",
"&@ @&@@@&@ @&@@@&@ @&@                     @&@@@&@ @&@@@&@ @&@@@",
"]@ ]]&@]]@ ]]&@]]@ ]]%@                  @ ]]&@]^@ ]]&@]]@ ]^&@]",
"]@ ]]&&]]@ ]]&&]]@ ]]&&]@@ @&@@@&@ @&@@@&@ ]]&&]]@ ]]&&]]@ ]]&&]",
"]@ ]]&&]]@ ]]&&]]@ ]]&&]^@ ]]&&]]@ ]]&%]]@ ]]&&]]@ ]]&&]]@ ]]&&]",
"]&@]]&&]]&@]]&&]]&@]]&&]]&@]]&&]]&@]^&&]]&@]]&&]]%@]]&&]]&@]]&&]",
"]@ ]]&&]]@ ]]&&]]@ ]]&&]]@ ]]&&]]@ ]]&&]]@ ]]&&]]@ ]]&&]]@ ]]&&]",
"]&@]]&&]]&@]]&&]]&@]]&&]]&@]]&&]]&@]]&&]]&@]]&&]]&@]]&&]]&@]]&&]",
"]& ]]&&]]& ]^&&]]& ]^&&]]& ]]&&]]& ]]&&]]& ]]&&]]& ]]&&]]& ]]&&]",
"]&@]]&&]]&@]]&&]]&@]]&&]]&@]]&&]]&@]]&&]]&@]]&&]]&@]]&%]]&@]]&&]",
"]&@]]&&]]&@]]&&]]&@]]&&]]&@]]&&]]&@]]&&]]&@]]&&]]&@]]&&]]&@]]&&]",
"]@@]]&&]]@@]&&&]]@@]^&&]]@@]&%&]]@@]]&&]]@@]&&&]]@@]]&&]]@@]&&&]",
"]&@]]&&]]&@]]&&]]&@]^&&]]&@]]&&]]&@]]&&]]&@]]&&]]&@]]&&]]&@]]&&]",
"&@ ]&&&]&@ ]&&&]&@ ]&&&]&@ ]&&&]&@ ]&&&]&@ ]&&&]&@ ]&&&]&@ ]&&&]",
"]@@&]&&]]@@&]&&]]@@&]&&]]@@&]&&]]@@&]&&]]@@&]&&]]@@&]&&]]@@&]&&]",
"&@ ^&&@^&@ ]&&@]&@ ]&&@]&@ ]&&@]&@ ]&&@]&@ ^&&@]&@ ^&&@]&@ ]&&@]",
"&  &&@ &&  &&@ &&  &&@ &&  &&@ &&  &&@ &&  &&@ &&  &&@ &&  &&@ &",
"#########!####!#!#!#!#!!!!!!#!#!#!#######################!####!#",
"........+................-......+.......+.......-.+.....+.......",
".-.....+...............++..............***.......+.....+........",
"+..#+......#+......#+..+..*#+......#+.*.*..#+...+..#+......#+...",
"..$++.....$++.....$++.+.+.$++..+..$++..*..$++..+..$++.....$++..+",
"+.$$......$$......$$...+..$$*.....$$..*...$$..++..$$......$$..+.",
"......................+....**........*........+..............+.+",
"${{{{{{${${$$$$$$${${$@$@$@@@@$@$$$$$$$${${$${${${{{{{{${${$$$$$"};
