/* XPM */
static char * knife_logo_xpm[] = {
"100 100 72 1",
" 	c None",
".	c #737373",
"+	c #5B5B5B",
"@	c #545454",
"#	c #474848",
"$	c #434343",
"%	c #37393A",
"&	c #3B3B3B",
"*	c #4B4B4B",
"=	c #646363",
"-	c #6C6C6B",
";	c #333333",
">	c #252729",
",	c #232323",
"'	c #2B2B2B",
")	c #423D3C",
"!	c #595554",
"~	c #6B6866",
"{	c #1B1B1B",
"]	c #3D3936",
"^	c #353638",
"/	c #35312E",
"(	c #26282B",
"_	c #2D2926",
":	c #3E4142",
"<	c #524D4B",
"[	c #161718",
"}	c #171819",
"|	c #100F11",
"1	c #080707",
"2	c #020202",
"3	c #070708",
"4	c #0B0B0B",
"5	c #131313",
"6	c #454749",
"7	c #44413E",
"8	c #2F3032",
"9	c #1D1F20",
"0	c #0F1011",
"a	c #1B1714",
"b	c #25211E",
"c	c #2A2523",
"d	c #5B5956",
"e	c #615E5C",
"f	c #1F2021",
"g	c #3D3E40",
"h	c #7B7B7B",
"i	c #4A4644",
"j	c #070808",
"k	c #1E1916",
"l	c #716E6D",
"m	c #110E0C",
"n	c #2C2E31",
"o	c #221D1A",
"p	c #0F0F10",
"q	c #73706F",
"r	c #312D2B",
"s	c #2D302F",
"t	c #9C9B9B",
"u	c #898685",
"v	c #D4D4D4",
"w	c #C4C3C3",
"x	c #F4F4F4",
"y	c #B8B6B6",
"z	c #ABABAB",
"A	c #54504E",
"B	c #F0F0EF",
"C	c #999695",
"D	c #8B8887",
"E	c #16120F",
"F	c #64605E",
"G	c #696664",
/* pixels */
"                                                                                                    ",
"                                                                                                    ",
"                                                                                                    ",
"                                                                                                    ",
"                                                                                                    ",
"                                                                                                    ",
"                                                                                                    ",
"                                           .+@#$%%&$*+=                                             ",
"                                      -@;>,'';%&)&$$$$$$$#!=                                        ",
"                                   ~&,{'%&%]^;/''('_(';;&:$*<<+                                     ",
"                                 $,['%&%',}|11222222212345{>'^6**+                       !&&        ",
"                              -;}}%78>}42221|}{9,,,,,9{}042214}>;$#!                  .&9>$8&       ",
"                             ;5{$$'[4224a>_b{5555550|55{bc',[4214}'&6@              d'>&&&=>*       ",
"                           $5[&$(5121[,>{},$e         -d;95[,'c[4215'%&@          6>f;g::&+4h       ",
"                          b|;i'|22j}'k}%l                  +'0m>',421}';%=      '{n;gggg%6<4        ",
"                        +5}$%5122o'[f=                        +}4{n,424b;'$  @o4}%^88%%^;*^,        ",
"                       $4>$'122}'}9l                             _4,'}125>[p44}}>'nn;%^;&6p+        ",
"                      %4'${224'{k.                                 {p'>422215}99f>,n;;;8g^p         ",
"                     ;4'$522}'5*                                    #442225}}9}{{9nnn'n'$5;         ",
"                    %1'&522,o,                                       &2405[{[}}9}'''>>';*4          ",
"                   &1'$424>9#                                       #p{}502p55p9'>'>>>'g}'          ",
"                  72'$424,>.                                       %5f}5p32323}(>f>,,9n%5           ",
"                 *1'$025,;                                        >5{}0j2232p9>f,{f99>n>$           ",
"                =1'6424,%                                       q55}540423p},9f99{{{9',f            ",
"                5{#}24o;                                       *554542230},f99{9{{[}9>[=            ",
"               >5$,21{'                                       ;145j4324{ff99[}[}[}5{,}%             ",
"              $4&'22{>-                                     .,422221p{f>>999[555[55f[}              ",
"              5'7425,#                                     !5222220[{>,ff99}[[55559k1,              ",
"             ;[*[21'c                                     gj22215}[,>ff9{{5[[5[509f44[              ",
"            -4&r12>5                                     '12234}5[(,ff{{{}}55555[fp2p{%             ",
"            s}#020,^                                    ,22142235>f9f9{}}[5}555[>p332,{             ",
"            [&(22'5                                   q[21j22224>f{{[[[[[0500p['01{,24,%            ",
"           )}$525f*                                  =43322222pf{{[[[[5000000}nf2'&852b}            ",
"           >^r12'5                                  dj0422221{9{}}[}555500009f1j- @%,25{@           ",
"          =}i}24,#                                 #22322222,9{{{}}[5554005f52[    $;41_{           ",
"          7>%42_[                                 ;3|22222499{9{[[[55pp00f9{4$     *$}2{5           ",
"          ,&c13>&                                ,432222209999}[[550pp5}>}4'       -#'14>$          ",
"         -}$}2}5                               .}4f12221[99}99[[[55pp5ff5f=         #;52'{          ",
"         *';41c,                              @4>f54224{f9995[[555pp9,}[&           d${1{}          ",
"         ;;'14,$                            t&[5f[[4j5{f{9[9[50p0p599[>-            -*'14,+         ",
"         >&,25[                            u'5f{[[5[{ff9{[[5[504p9>95$               #;42c'         ",
"         ,&{2{[                          v-,'f}{}[}>f{9{[5555500,(5f-                #$52>[         ",
"        ->&52,'                         w+5}>{{}[f>ff{}[55000p[(fp;                  *$}2{[         ",
"        ='%42>)                       xy#>{{}[[[>>,f{}}5000ppf(5p!                   <6,2[k         ",
"        +;;43o+                      xz%p{{}}[{>>9{{[5550p05,93f                     @#>24b.        ",
"        A&;14{-                     Bt',([}}[9>,f99[[550pp9{44@                      !$'14>+        ",
"        *&'15}               @'%    C{4}}}[[f,ff{}[[[5005'[2{                        +$s1j'*        ",
"        #&'2[[             #5[gk$  D5[[[[[[,,99}{[555509n'4$                         !g;31'$        ",
"        #7'2[[            {5^#:-,w-44524[{>f9{{[[5[5p59n0}                           !&;42'$        ",
"        #$(2}}           '4%g9124'122221}fff9{[[55505f53^                            @%;42'$        ",
"        *$'2[}           52}j22222442224999}9}}550[}9p5=                             A%;41'$        ",
"        +$'15}           522222j122223p}{{{}}}555[9fp&                               $&s12'@        ",
"        =$'14o-          '122224322240{}{{[}550[{f}9=                                7%'1j>=        ",
"        -$;14,!          =4j0422222244[}}[}005}{}[&                                  ;g>14,         ",
"         $%42>%           5455422222225{[550}}[4f-                                   '${2[{         ",
"         $&52>,          '20}}[3212221[{[50}}4|$                                     ,$}2}}         ",
"         #$[2b[        $[125[999222212[[[}f04>                                      +og52,,         ",
"         !6{2}}      A{22335[9f>022243[99>}4*                                       $';42c$         ",
"         -#'14>$    >33p5[[[f9f>>322p20f90,                                         '%'11,.         ",
"          #^42'5  6m2p[{,9[99f9>f922p2[[3$                                          }&,2[}          ",
"          *$52,5${12[99>>9}4[f9f>,p2339p(                                          @o%52>'          ",
"          +#o245124[,>,>,}p224[[>f924[f99                                          ('/j1>@          ",
"           #;4222{{,>,f99}222223{99[[9>n}-                                        q5%,255           ",
"           *%4220>f(>,9{5422222239(fff(^n;                                        &k^52,(           ",
"           +,124,>,>>99{p04222222p(n(nn(g,                                        4';249=           ",
"           =5255(>>,>9}5225p222222[((((ff0;                                      $[%k2}{            ",
"          +}20{}(,9{}}5512224124>425>f9[44}                                      4'^13b!            ",
"         f122[9,,9{53555422222[.  [2[90322{                                     '5%}2}>             ",
"        >j432[f95952230p32222[     [255222@                                    @1;/24{+             ",
"       +4[p225[5140322244222{       '0024&                                     4{742[;              ",
"       ;5f512j4222342222222'          !!                                      {[${20>-              ",
"       '[>9422222222322221&                                                  _1$'11{#               ",
"       n['f42222222222220+                                                  ;3%%42[;                ",
"       &}'>4222222222222$                                                  &4;$424'=                ",
"       -4{>{42222222221{'                                                 &jr$421>$                 ",
"        {4>'>5222222512{''                                               ;18$m21('                  ",
"        -j0'8n{02245}'41{''                                             >4%$022>{                   ",
"         @j1[{5124  4,>11b''d                                          }4)&422>[.                   ",
"          -}1222>   -4,,12}8'$                                       @45$;421c}~                    ",
"                     =0>,4258/^=                                    ,2>*'j2j'}-                     ",
"                      =5,>424_%;#                                 &4E%${224'}                       ",
"                        >b([125s%$*.                            $45'7/423}'n                        ",
"                         ;{>b523{;&$A=                       +_0{':;52259_g                         ",
"                          ;[9>{42j}'&#*@=                -*'}{'%&;}120},,#                          ",
"                          F%{5{>b4115>;$#**#@++=--==!#&'_c'^%%/>5220}{{,&+-                         ",
"                       -=+A#/{|5k>,[114[,'&7$#*##$$:$:7&&%;',52225b{}a9s:#@!+G.                     ",
"                     -e!<$:%s_{544[,,{m2144[},''';';''>,}|4222|{9{5||{,'/^&#*!+G                    ",
"                    -=@*6&;s',f}5m14|}>>,[41222111113222214[,_{54445[{9>_;%$$*+=-                   ",
"                    -=@<6&%/'>,{}[|444445{'''>o}[5555}b('>b[4044405}{b>'s;&$#@+=-                   ",
"                     .G+!*$$^8'',{}}5544411445[{9f,,{[54444444|5[{b,>'8;&$*!+=-                     ",
"                        .=+!<#$&^;;'_,,{{}[550p4444444555[}{b,>('';;%:#<!+=-                        ",
"                             -G=+!@#$$&&^;;;''''''''''';;;;%&&$$**@+==-                             ",
"                                      .-G==++++!+!d!+++++e==--q                                     ",
"                                                                                                    ",
"                                                                                                    ",
"                                                                                                    ",
"                                                                                                    ",
"                                                                                                    ",
"                                                                                                    ",
"                                                                                                    "};
