/* XPM */
static char *_[] = {
/* columns rows colors chars-per-pixel */
"40 64 75 1 ",
"  c None",
". c #000000",
"X c #010101",
"o c #020202",
"O c #030303",
"+ c #040404",
"@ c #050505",
"# c #060606",
"$ c #070707",
"% c #080808",
"& c #090909",
"* c #0A0A0A",
"= c #0B0B0B",
"- c #0C0C0C",
"; c #0D0D0D",
": c #0E0E0E",
"> c #0F0F0F",
", c #101010",
"< c #111111",
"1 c #121212",
"2 c #131313",
"3 c #141414",
"4 c #151515",
"5 c #161616",
"6 c #171717",
"7 c #181818",
"8 c #191919",
"9 c #1A1A1A",
"0 c #1B1B1B",
"q c #1C1C1C",
"w c #1D1D1D",
"e c #1E1E1E",
"r c #1F1F1F",
"t c #202020",
"y c #212121",
"u c #222222",
"i c #232323",
"p c #242424",
"a c #252525",
"s c #262626",
"d c #272727",
"f c #282828",
"g c #292929",
"h c #2A2A2A",
"j c #2B2B2B",
"k c #2D2D2D",
"l c #2E2E2E",
"z c #2F2F2F",
"x c #303030",
"c c #313131",
"v c #323232",
"b c #333333",
"n c #343434",
"m c #353535",
"M c #363636",
"N c #373737",
"B c #383838",
"V c #393939",
"C c #3A3A3A",
"Z c #3B3B3B",
"A c #3E3E3E",
"S c #3F3F3F",
"D c #404040",
"F c #414141",
"G c #434343",
"H c #444444",
"J c #454545",
"K c #464646",
"L c #474747",
"P c #484848",
"I c #4A4A4A",
"U c #4F4F4F",
"Y c #505050",
"T c #535353",
"R c #5E5E5E",
/* pixels */
"                                        ",
"                                        ",
"                                        ",
"                                  u     ",
"                                 2      ",
"                                    *4  ",
"          42****2               k   @.4 ",
"        *........*4           aa*hqa@.2 ",
"      :............@:       4@...:  @@u ",
"     *...............@:2:*2*.....n k:4  ",
"    :...........................*   u   ",
"   :...........................@        ",
"   @..........@99*.............q        ",
"   4..........2   :.........@22         ",
"    :@.......4     2@@......ua          ",
"      *....@9        Z9*@..*u9          ",
"       ::4:             *.@aq           ",
"                       2*9qu            ",
"                       4bDhu            ",
"                      uZ UZ             ",
"                      kLhh2:*9          ",
"                     aL9:@...2          ",
"                     9n@....*           ",
"                    ab:.....@2          ",
"                    hq.......*          ",
"                   bb@.......@          ",
"                   Zk*.......*          ",
"                  TDh@.......h   kk     ",
"                  Du*.......:   nhn     ",
"                 99@.......@h  Tb       ",
"                ka@........9  aIRn      ",
"            bu  L2........@  :knZ:      ",
"         49:@.@4Z:........4 :q442       ",
"       q@...:*...........*Z4***4a       ",
"      :.....@@...........@::2..9        ",
"    b@......@*.............2..*         ",
"    4.......::...............@          ",
"   k........:4..............*b          ",
"  q........aU:............@qDI          ",
" h@...@...4 h.............4hbI          ",
" h2:.@@.@4 n@..............*L           ",
" Lu9..@*4 L:.......4D4@...:D            ",
"  k:..2k nh........a   2::              ",
"   a@.9  :@........n                    ",
"     9  :.........2                     ",
"       9..........k                     ",
"       @.........4                      ",
"      2..........4                      ",
"      @..........                       ",
"     :..........:                       ",
"     :.........@                        ",
"     a.........2                        ",
"     L........*                         ",
"     a@......@                          ",
"     Ah2.....4                          ",
"       q....@                           ",
"       u...@9                           ",
"       4..@u                            ",
"        2@q                             ",
"                                        ",
"                                        ",
"                                        ",
"                                        ",
"                                        "
};
