/* XPM */
static char *_[] = {
/* columns rows colors chars-per-pixel */
"40 64 98 2 ",
"   c None",
".  c #000000",
"X  c #010101",
"o  c #020202",
"O  c #030303",
"+  c #040404",
"@  c #050505",
"#  c #060606",
"$  c #070707",
"%  c #080808",
"&  c #090909",
"*  c #0A0A0A",
"=  c #0B0B0B",
"-  c #0C0C0C",
";  c #0D0D0D",
":  c #0E0E0E",
">  c #0F0F0F",
",  c #101010",
"<  c #111111",
"1  c #121212",
"2  c #131313",
"3  c #141414",
"4  c #151515",
"5  c #161616",
"6  c #171717",
"7  c #181818",
"8  c #191919",
"9  c #1A1A1A",
"0  c #1B1B1B",
"q  c #1C1C1C",
"w  c #1D1D1D",
"e  c #1E1E1E",
"r  c #1F1F1F",
"t  c #202020",
"y  c #212121",
"u  c #222222",
"i  c #232323",
"p  c #242424",
"a  c #252525",
"s  c #262626",
"d  c #272727",
"f  c #282828",
"g  c #292929",
"h  c #2A2A2A",
"j  c #2B2B2B",
"k  c #2C2C2C",
"l  c #2D2D2D",
"z  c #2E2E2E",
"x  c #2F2F2F",
"c  c #303030",
"v  c #323232",
"b  c #333333",
"n  c #343434",
"m  c #353535",
"M  c #373737",
"N  c #383838",
"B  c #3C3C3C",
"V  c #3D3D3D",
"C  c #3E3E3E",
"Z  c #3F3F3F",
"A  c #404040",
"S  c #414141",
"D  c #434343",
"F  c #444444",
"G  c #464646",
"H  c #474747",
"J  c #484848",
"K  c #494949",
"L  c #4B4B4B",
"P  c #4C4C4C",
"I  c #4D4D4D",
"U  c #4E4E4E",
"Y  c #515151",
"T  c #525252",
"R  c #545454",
"E  c #555555",
"W  c #565656",
"Q  c #575757",
"!  c #585858",
"~  c #595959",
"^  c #5A5A5A",
"/  c #5C5C5C",
"(  c #5D5D5D",
")  c #5E5E5E",
"_  c #606060",
"`  c #616161",
"'  c #626262",
"]  c #636363",
"[  c #646464",
"{  c #676767",
"}  c #686868",
"|  c #696969",
" . c #6F6F6F",
".. c #717171",
"X. c #737373",
"o. c #777777",
"O. c #7D7D7D",
"+. c #7E7E7E",
/* pixels */
"                                                                                ",
"                                                                                ",
"                                                                                ",
"                                                                                ",
"                                                                                ",
"                                                                                ",
"                                                                                ",
"                                        q * * $ $ >                             ",
"                                  q q y 8 8 * . . . $                           ",
"                              Z y 8 g q v k q . . . . 6                         ",
"                      ~       q s q 6 * 1 $ . . . . . $ S _                     ",
"                    g v X.  6 v v g 1 . . * 1 * . . . . 6 ( S U                 ",
"                    * v | v y v s > . * 8 Z T k 6 y 1 . $ g q k                 ",
"                  $ * M v s k 1 . . . 1 * 6 k v     Z $ . 1 . 6 K               ",
"                6 . . . 1 g 1 . . . . . 1 y         ~ > . q > > M               ",
"                * . . $ M k . . . . $ q             v Z 1 k 8 . 6               ",
"                $ . . g ~ 1 . . . * Z               q _ 8 k * . *               ",
"                . . $ Z g . . . . k                     s $ . . $               ",
"              > . . $ 8 . . . . 6                     T 6 . . . .               ",
"              $ . . . . . . . * s                       $ . . . .               ",
"              * . . . . . . . 6 Z                     K . . . . .               ",
"              > . . . . . . . y             s       E k . . . . >               ",
"              * . . . . . . * [             6 ~     k $ . . . . 8               ",
"              * . . . . . . 8               $ M   6 * . . . . . k               ",
"              * . . . . . . s             1 . 6 q . . . . . . 6                 ",
"              > . . . . . . 6             $ . $ . . . . . . $ k                 ",
"              6 . . . . . . . 1         1 . . . . . . . . . 1 M                 ",
"                . . . . . . . . . $ > $ . . . . . . . . . . s M                 ",
"                . . . . . . . . . . . . . . . . . . . . . * 6 v                 ",
"                $ . . . . . . . . . . . . . . . . . . . . > v                   ",
"                y $ . . . . . . . . . . . . . . . . . . . * s                   ",
"                  g . . . . . . . . . . . . . . . . . . . >                     ",
"                  E * . . . . . . . . . . . . . . . . . . 1                     ",
"                  o.K * . . . . . . . . . . . . . . . . . $ M                   ",
"                    ( 6 . . . . . . . . . . . . . . . . . . *                   ",
"                      6 . . . . . . . $ $ . . . . . . . . . . 1                 ",
"                      $ . . $ 8 8 s S Z H s 6 8 $ . . . . . . >                 ",
"                  K > . . > N K M E _           s . . . . . . $                 ",
"                  1 . . > H _   s v               > . . . . . $                 ",
"                q . . $ N T     s                 s . . . . . >                 ",
"              v 1 . . k _ _     ~                   . . . . . *                 ",
"              k s $ s X.                            . . . . . >                 ",
"             .g . * U   _                         1 . . . . . >                 ",
"            U 6 . * E   (                         $ . . . . . 6                 ",
"            E k . > Z                           q . . . . . . s                 ",
"            q > . 8 y                           * . . . . . .                   ",
"          +.s . . 8 Z E                       > . . . . . . $                   ",
"          K 1 . $ 1 Z                       s . . . . . . . *                   ",
"            6 1 q * M                     k $ . . . . . . $                     ",
"        k   k 8 6 1 q S                 8 $ . . . . . . $ 8                     ",
"          [ g 8 8 q y y       |     q $ . . . . . . . g H                       ",
"          | _ k 1 6 Z K k K     k s 1 . . . . . . . $ S                         ",
"            | H $ * s Z S ( H Z q * * . . . . . . . $ q                         ",
"              T > . $ 1 S M 8 $ . . . . . . . . . 6 s                           ",
"              K y $ . * $ . . . . . . . . . * M M                               ",
"                  U > . . . . . . . . . * 8                                     ",
"                  +.S 1 > $ . . $ $ * 6                                         ",
"                          s   k Z                                               ",
"                                                                                ",
"                                                                                ",
"                                                                                ",
"                                                                                ",
"                                                                                ",
"                                                                                "
};
