/* XPM */
static char *_[] = {
/* columns rows colors chars-per-pixel */
"40 64 71 1 ",
"  c None",
". c #000000",
"X c #010101",
"o c #020202",
"O c #030303",
"+ c #040404",
"@ c #050505",
"# c #060606",
"$ c #070707",
"% c #080808",
"& c #090909",
"* c #0A0A0A",
"= c #0B0B0B",
"- c #0C0C0C",
"; c #0D0D0D",
": c #0E0E0E",
"> c #0F0F0F",
", c #101010",
"< c #111111",
"1 c #121212",
"2 c #131313",
"3 c #141414",
"4 c #151515",
"5 c #161616",
"6 c #171717",
"7 c #181818",
"8 c #191919",
"9 c #1A1A1A",
"0 c #1B1B1B",
"q c #1C1C1C",
"w c #1D1D1D",
"e c #1E1E1E",
"r c #1F1F1F",
"t c #202020",
"y c #212121",
"u c #222222",
"i c #232323",
"p c #242424",
"a c #252525",
"s c #262626",
"d c #272727",
"f c #282828",
"g c #292929",
"h c #2A2A2A",
"j c #2B2B2B",
"k c #2C2C2C",
"l c #2D2D2D",
"z c #2E2E2E",
"x c #2F2F2F",
"c c #313131",
"v c #323232",
"b c #343434",
"n c #353535",
"m c #363636",
"M c #383838",
"N c #3B3B3B",
"B c #3C3C3C",
"V c #3E3E3E",
"C c #3F3F3F",
"Z c #404040",
"A c #424242",
"S c #454545",
"D c #494949",
"F c #4F4F4F",
"G c #505050",
"H c #535353",
"J c #565656",
"K c #5C5C5C",
"L c #656565",
"P c #6F6F6F",
"I c #707070",
/* pixels */
"                                        ",
"                                        ",
"                                        ",
"                                        ",
"                                        ",
"                                        ",
"                                        ",
"                               M        ",
"                00trr          k        ",
"               ,....5tVVGIP t+s         ",
"           ,:50......&rt:0h h.,0s       ",
"          :..++.....+t  r5+::.+5,       ",
"         ,..........rS    s......       ",
"        s..........::tA    0.....&      ",
"        &.........sAc      M.....&      ",
"        .........&M         &....+      ",
"        .......+0          F0.....,     ",
"       :......&M            :.....      ",
"       &......,V            5....+      ",
"       +.....+t             r....+      ",
"       ......&              ,....+      ",
"       +......              :....&      ",
"       +......&             5....,      ",
"       +.......5            :....:      ",
"       &.......&           r.....h      ",
"       5.........&:, ,,ss5+.....&       ",
"        &.......................r       ",
"         +......................h       ",
"          +.....................s       ",
"          r+....................r       ",
"            &............&+.....h       ",
"             ,+....++++:  5....+        ",
"               ss0VV      5....+        ",
"                          t....:        ",
"                          +....0        ",
"                          +....0        ",
"                          ....&m        ",
"                         :....+m        ",
"                         &....+c        ",
"                         +....rP        ",
"        r               h....5          ",
"       s+               k...+           ",
"       s.5              ,..+:           ",
"       k.+             ,..&5            ",
"      5&..+            +..,5            ",
"      +....&         c:...+k            ",
"      &.....+5r     J,....,             ",
"      h......,50c KGk+...:              ",
"      V+......+&&,r0....+V              ",
"       :...............+k               ",
"       h...............h                ",
"        5.............r                 ",
"         s............cL                ",
"          5...........k                 ",
"           ,::&...&tsr                  ",
"            h0mk5tD                     ",
"                                        ",
"                                        ",
"                                        ",
"                                        ",
"                                        ",
"                                        ",
"                                        ",
"                                        "
};
