/* XPM */
static char *dash[] = {
/* columns rows colors chars-per-pixel */
"40 64 77 1 ",
"  c None",
". c #000000",
"X c #010101",
"o c #020202",
"O c #030303",
"+ c #040404",
"@ c #050505",
"# c #060606",
"$ c #070707",
"% c #080808",
"& c #090909",
"* c #0A0A0A",
"= c #0B0B0B",
"- c #0C0C0C",
"; c #0D0D0D",
": c #0E0E0E",
"> c #0F0F0F",
", c #101010",
"< c #111111",
"1 c #121212",
"2 c #131313",
"3 c #141414",
"4 c #151515",
"5 c #161616",
"6 c #171717",
"7 c #191919",
"8 c #1B1B1B",
"9 c #1C1C1C",
"0 c #1D1D1D",
"q c #1E1E1E",
"w c #1F1F1F",
"e c #202020",
"r c #212121",
"t c #232323",
"y c #242424",
"u c #252525",
"i c #262626",
"p c #272727",
"a c #282828",
"s c #292929",
"d c #2A2A2A",
"f c #2B2B2B",
"g c #2C2C2C",
"h c #2D2D2D",
"j c #2E2E2E",
"k c #2F2F2F",
"l c #303030",
"z c #333333",
"x c #343434",
"c c #353535",
"v c #363636",
"b c #373737",
"n c #393939",
"m c #3C3C3C",
"M c #3E3E3E",
"N c #3F3F3F",
"B c #404040",
"V c #414141",
"C c #434343",
"Z c #444444",
"A c #464646",
"S c #474747",
"D c #4A4A4A",
"F c #4E4E4E",
"G c #4F4F4F",
"H c #535353",
"J c #555555",
"K c #565656",
"L c #595959",
"P c #5A5A5A",
"I c #5C5C5C",
"U c #5D5D5D",
"Y c #646464",
"T c #656565",
"R c #6E6E6E",
"E c #787878",
"W c #7F7F7F",
/* pixels */
"                                        ",
"                                        ",
"                                        ",
"                                        ",
"                                        ",
"                                        ",
"                                        ",
"                                        ",
"                                        ",
"                                        ",
"                                        ",
"                              cFgiP     ",
"                           d*.<-.@g     ",
"                          <@.....@d     ",
"                        @ ........-     ",
"                       .@-........<     ",
"                       ..........@      ",
"                       ..........       ",
"                      ...........       ",
"                      .........@        ",
"                      *........<        ",
"                     .........-         ",
"                     .........          ",
"                     ........5          ",
"                    *.......@g          ",
"                    @......@8c          ",
"                    -......qc           ",
"                   q5.....@c            ",
"                   l5.....qM            ",
"                  iq*....5H             ",
"                  li@....gR             ",
"                  F5....-               ",
"                 ZI*....l               ",
"                  5....*                ",
"                  @....5                ",
"                 d....*                 ",
"                 -....d                 ",
"                t....@                  ",
"               n*....5                  ",
"              <-....5                   ",
"              *.....l                   ",
"             g@....iM                   ",
"             q....-F                    ",
"            K*....qc                    ",
"            i....*i                     ",
"           d@....dq                     ",
"          l@....<                       ",
"          *85..*Mi                      ",
"        Ktig*..5d                       ",
"       WViZ-..<cg                       ",
"        Zd*..*c                         ",
"       Mc-@.-c                          ",
"      MZq--5dI                          ",
"     iDc<qtPP                           ",
"     5l<VYVE                            ",
"      d-Y                               ",
"                                        ",
"                                        ",
"                                        ",
"                                        ",
"                                        ",
"                                        ",
"                                        ",
"                                        "
};
