/* XPM */
static char * sbr1a0_xpm[] = {
"25 34 57 1",
" 	c None",
".	c #010101",
"+	c #636B4A",
"@	c #8C7363",
"#	c #5A6342",
"$	c #6B6B52",
"%	c #848484",
"&	c #9C9C9C",
"*	c #A5A5A5",
"=	c #7B7B7B",
"-	c #313A21",
";	c #102108",
">	c #3A4229",
",	c #424A31",
"'	c #296321",
")	c #4A9C3A",
"!	c #5ABD4A",
"~	c #316B29",
"{	c #737B63",
"]	c #636363",
"^	c #737373",
"/	c #B5B5B5",
"(	c #BDBDBD",
"_	c #6B6B6B",
":	c #313131",
"<	c #215219",
"[	c #52AD42",
"}	c #5ACE52",
"|	c #194210",
"1	c #5A5A5A",
"2	c #3A3A3A",
"3	c #191919",
"4	c #949494",
"5	c #AD947B",
"6	c #52523A",
"7	c #525252",
"8	c #424242",
"9	c #010101",
"0	c #101010",
"a	c #9C846B",
"b	c #947B6B",
"c	c #A58C73",
"d	c #103108",
"e	c #212121",
"f	c #292929",
"g	c #B59C84",
"h	c #8C8C8C",
"i	c #ADADAD",
"j	c #080808",
"k	c #846B5A",
"l	c #081000",
"m	c #735A4A",
"n	c #5A4A31",
"o	c #BDA58C",
"p	c #73634A",
"q	c #9C7B63",
"r	c #FFFFFF",
/* pixels */
"                         ",
"   +@##++##++$$%&**%==   ",
" =*#-;;>>,')!)~{$+]^%*^, ",
" /(_:<~[!)[!}!!)~<|1^=23 ",
" /%4*5@@@@@+_]]667]18393 ",
" /{+++##>>>>8882::33903: ",
" (abca{$+66,,>-de090333f ",
" /g5g5a{{$$+#66-2e;;003e ",
" &h&i4c@@@{{$$+##,-;j03: ",
" %${k++###6,,>,>-f;l93e2 ",
" &$+mn,>>-ee3000jj0jj3f: ",
" *{{ck+6,-ee3;0lj900003: ",
" *{{oa$$+#66,>-de0999032 ",
" *{{oa{{$+#6,>-de099903: ",
" *{{5a{{$+#6,>-de0999j3: ",
" /abca{{$+#6,>-de099990f ",
" /g55ca{{k$+#66-2e;l0;9e ",
" &h**5c@@@{{$$+##,-;jjjf ",
" %${k++###6,,>,>-f;l9jjf ",
" &$pm6>-:fee3000jj0jj3ee ",
" *{@ck6,2fee3;0lj900003: ",
" *{@oa$$+#66,>-de099903: ",
" *{@oa{$$+#6,>-de099903: ",
" /bq5a{{$+#6,>-de099903f ",
" /5cgc{{{k$+#66-2e;l00;e ",
" &c5*cb@@@{{$$+##,-;j03f ",
" %${k++###6,,>,>-f;l90e: ",
" &$+mn,>-fee3000jj0j90ef ",
" *{{c@#68ffe3;0lj900903f ",
" *b{5a{$+##6,>-de099903: ",
" ha{cc{{k++#6,,-fe9990jf ",
" ${kk{kpp76,,>>-eejjj39e ",
"   6666feee0000999999e   ",
"                         "};
