/* XPM */
static char * shotgun_logo_xpm[] = {
"100 100 61 1",
" 	c None",
".	c #737373",
"+	c #64605E",
"@	c #545454",
"#	c #4A4644",
"$	c #434343",
"%	c #37393A",
"&	c #3B3B3B",
"*	c #454749",
"=	c #4B4B4B",
"-	c #5B5956",
";	c #646363",
">	c #6C6C6B",
",	c #333333",
"'	c #252729",
")	c #232323",
"!	c #26282B",
"~	c #2B2B2B",
"{	c #353638",
"]	c #474848",
"^	c #595554",
"/	c #25211E",
"(	c #1B1B1B",
"_	c #3D3936",
":	c #35312E",
"<	c #2D2926",
"[	c #44413E",
"}	c #524D4B",
"|	c #5B5B5B",
"1	c #161718",
"2	c #171819",
"3	c #100F11",
"4	c #080707",
"5	c #020202",
"6	c #070708",
"7	c #0B0B0B",
"8	c #131313",
"9	c #1D1F20",
"0	c #0F1011",
"a	c #3E4142",
"b	c #1E1916",
"c	c #615E5C",
"d	c #312D2B",
"e	c #2F3032",
"f	c #1F2021",
"g	c #73706F",
"h	c #110E0C",
"i	c #221D1A",
"j	c #696664",
"k	c #423D3C",
"l	c #2D302F",
"m	c #16120F",
"n	c #2A2523",
"o	c #54504E",
"p	c #070808",
"q	c #6B6866",
"r	c #2C2E31",
"s	c #716E6D",
"t	c #0F0F10",
"u	c #393533",
"v	c #797675",
/* pixels */
"                                                                                                    ",
"                                                                                                    ",
"                                                                                                    ",
"                                                                                                    ",
"                                                                                                    ",
"                                                                                                    ",
"                                                                                                    ",
"                                            .+@#$%%&*=-;                                            ",
"                                       >@,')!~,{&&$&$$*$$$]^;                                       ",
"                                    >&/(~%&%_%,:~~!~<!~,,&[$=}}|                                    ",
"                                  $)1~%&%~)2344555555545678('~{*==|                                 ",
"                               ;,2(,$,'27555432(9)))))9(2045440(),$]^                               ",
"                              ,8/a$~275571)'/(8888880388(/'~)865472~&*@                             ",
"                            $11&$~84541)'bb'$c         >-,(81'<'17541<{a@             .             ",
"                           /7,]~75552~b2&>                  |~08)d)7541~,&;          {8(;           ",
"                         |81${1554(~19;                        |27(ef757/,~$        {41~1=          ",
"                        $7'#~7552~2/g                             <7)~2558~~~   |~1(~%~)h8          ",
"                       %4~$2557~i(.                                 (0~'75717778,&>$(65555@         ",
"                      ,7,$1552~3=                                    &4884558~=|$(755555224j        ",
"                     %4~k055'i)                                    $~(457~$=%(555479$^,2245e        ",
"                    &4~$757'(]                       ,8($     >%238,=c+;@,857~572,=;;*75555,        ",
"                   &5~$750)'g                        7~%<(/~201i&,,,&],655411%:]-|=%~255558         ",
"                  =4<$757),                          7'%=^l2/,~~~,,,,,~851)~&&$@$~)245571~          ",
"                 ;7!$857)%                           53,]$%~)!~,~~~~~~~(8/)7&a:'(75555);            ",
"                 8)$257),                           =53%$a&,~<~'))')))(()'b4f975555551              ",
"                '8$)54(~                            ~7,@}$,,<''(99i((2182755555555555,              ",
"               $7&~55('>                            8)  |%~~'9(/(/2213821455555555541<              ",
"               8~[758)]                            ;7}  ;,))/))((28881m74555555772151)$             ",
"              ,1=154~n                             8). ;=%2307(00882745555554)| ]'~74()             ",
"             >7&d45'8                             $4] >@&,)7257633455555778,     $~'439%            ",
"             l2]050){                             71; ;$,%,31804555558%.          &~85)(            ",
"             1&!55~8                             &5&.g@&%:~3745550&7@             o,<57)%           ",
"            k2$858f=                             77| >$&%,~45555~($~               $,85/2           ",
"            '{d45~8                        +1~h'85k .^&{%%8p8=@57@7@               @&)58(@          ",
"           ;2#257)]                       '8]  ]]   ;$&,&:43$  =5$2                 $,74<(          ",
"           ['%75<1                      %2]   ;;  .;]{,:&2558[  0~)                 =k25(8          ",
"           )&n46'&                    =/{.  ;@]&&$$$%e~d%15559  (i$                 >]~67'$         ",
"          >2$2528                   |~%q  g|=&,,,l~,,~~~,345548a3)                   ]%85~b         ",
"          =~,74n)                 |~,>   ;|=[%~,,,~,,l~~~8,&2072]                    |#(521         ",
"          ,,~47)$               |,%|   >|@$$%,,~~,~e,e~'n8j                          >]~77)|        ",
"          '&)581              |~%j    ;|$&&{,,,~~~d,~~'))7;                           ],75'~        ",
"          )k25(1            ;,,|    .c@]&,,,,,,:~~~~~~')'7=                           ]$85'1        ",
"         >'%15'<          >~$>    >;^]$&%e~l~,~~~~:e~~'f/7,                           ]*25(1        ",
"         ;~{75)&         ,~^    .;|o#$&%,,:~~~~~~~~~'<')/02                           }])512        ",
"         |,,74)|       $!o     >|@*$$&%_,lr~'~~~~~'18)<))27                           @]'5h)s       ",
"         @&:67(>     @1,>   >;|@=$&&&{%,%:~'/)~~~)4550i'((4}                          @*~47'|       ",
"         =&d582    |1)j    ;|@$$[&&,{,%,:l~~)'~<)755551,,,7'                          ^$e64~=       ",
"         ]a~481   /7=    >|^$$%&%,,_,%,,,~'<'n)'155555717558                          ^a,75~$       ",
"         ]a~521&)t$    >|^}$&,,l:,,{%,,:~'))'!'255555554755)                          ^&,p4~$       ",
"         ]['5745%    .;|@]aa,,~~~~~~,,,~:')))<)455555555552                           ^&,74~$       ",
"         =&)552|    >|@$$&{,,~~,,,:l~,e~~'/9))0555555554)>                            }%,p5~$       ",
"         $278[=^;;;c^]$%,e~~,,~'~~~~~~l~~)f))(555551)~]                               $&d74~@       ",
"        g28)[a&=@]=]*&,e~<'~~~~~~~~~!!~~<'))275555(                                   a&~44';       ",
"       ;81~,:~,$>[:,,l~~'))<~~~'n~~<'<!<<''/755554                                    ,&'57)        ",
"       8480/''f'%{2()1))))))''n')')'))')'')145555)                                    ~$(582        ",
"       55557(84712p6072/)))9))))))))')/f))2755555                                     )$25(2        ",
"       55555755554455578/9))9/)9)()f/9((/1655555)                                    |)&85))        ",
"       55555555555445547())(9f)999(99bi(27555555>                                    $~,75'$        ",
"       755555555555555541(/(9//99/9b9(((24555552                                     ~%~44)s        ",
"       '555555555555555582889f9/9999b(217555555;                                     2&)512         ",
"       |55555555555555557808(8099(((2(175555551                                     @i%85'~         ",
"        (5555555555555554187874402h87144555555^                                     !~:p4'@         ",
"        >7555555555555555445477445504845555550                                     g8%)588          ",
"         ,555555555555555577p7744750555555555$                                     &b{85)!          ",
"          85555555555555555654554455555555554                                      7~,579;          ",
"          ^455555555555555545544554555555555%                                     $1%b52(           ",
"           ,55555555555555555555555555555557                                      7~{46/^           ",
"            2555555555555555555555555555555%                                     ~8%252'            ",
"            |755555555555555555555555555557                                     @4,:57(|            ",
"             ,4555555555555555555555555555,                                     7([751,             ",
"              (555555555555555555555555557                                     (1$(50'>             ",
"              ;75555555555555555555555555~                                    <4$~44(]              ",
"               ,5555555555555555555555557>                                   ,6%%751,               ",
"                255555555555555555555555'                                   &7,k757~|               ",
"                j75555555555555555555555|                                  %7~$054!$                ",
"                 %5555555555555555555552                                  ,4,$855<~                 ",
"                  155555555555555555555$                                 '7,*755'(                  ",
"                   45555555555555555558                                 27a&h55n2.                  ",
"                   $555555555555555555e                               @71$,754!2j                   ",
"                    '55555555555555557;                              )4n=~656~2>                    ",
"                     3555555555555555(                             $48%$2557~b                      ",
"                      755555555555555,                           $78~$~7542~~                       ",
"                      =45555555555555,;                       |'0(~&,8440(~&                        ",
"                       ~5555555555557,$=@;                >=~2(~,[,144h2))]                         ",
"                       |75555555555558),$]===@||;>>;;^]&~<'~u%%,'84572(('&|>                        ",
"                       je4555555555786571)d%[$]=]]$$a$a[&&%:~)84550/b22/e&]@^;;.                    ",
"                      >|*15555555557/'(8457712)~~~,~,~~')237555h(9(833()~,%&$=^|>                   ",
"                     >|@=~7555555557772'<)1745554444465555572/)90h0732(/'~,%a]o@;>                  ",
"                     >;|}a)455555578777778(~~~'i2288882/!~!/100777082(9'~~,&$*@|;>                  ",
"                      vj|@$(555557((118777677781(9)))(117777777081b9)<~,,&$]^|;>                    ",
"                         .;=)4556~,~~~))((283800777777h08812(()''~~,%&a$}^|;>                       ",
"                            .]~~$|^o=$$&&%,,,r~~~~~~!~~~r,,%%&[$$]=^||j>                            ",
"                                       s>;;+||||^|^^^||||;+;;q>.                                    ",
"                                                                                                    ",
"                                                                                                    ",
"                                                                                                    ",
"                                                                                                    ",
"                                                                                                    ",
"                                                                                                    ",
"                                                                                                    "};
