/* XPM */
static char *blood2[] = {
/* columns rows colors chars-per-pixel */
"64 64 7 1 ",
"  c #520000",
". c #4A0000",
"X c #420000",
"o c #840000",
"O c #730000",
"+ c #6B0000",
"@ c #630000",
/* pixels */
"XX...  @O@   ....XX...XXX...  @O@@+@@@ @@  ....... @@ . .@ . .XX",
"X...      @@@@ ..... .XXX..  @@++@   @  @@@@@@@@      . .     .X",
"..     .. .  @@@        ...   @@@            @O++@@   ...     . ",
".     ......  @@@ ... ... @@     @ ........   @@@@@+@@        ..",
".   ........  @ @@@           @@@@  ........ @+@+@+++++@@@@@    ",
".   ....X.XX .  @@  ...     @   @  @   ..     @+@@@@+@@@@@@@@   ",
"@@@   ........ @@@.......     @    @@@@@  ....  @+O++@        .@",
" @@@   .....   @     .....    @@@@@@@@@@@@   @ @@O+O+@     ..   ",
"  ..    ...   @    ... ..  .  @@@+++@@@@@   .     @@@@@@        ",
". ...X.  ....      .... . .   @     @@@@@@     @@  @@@@ @@@     ",
"  . ...X.  .  .     ...  @@@ @@      @@@@++@@@ @@@@@@@@   @@++@@",
"+@@@ ..X.     @ @@@ @@@@@@@@   ..       @@@@++++@@          @@@+",
"+OO@@@ @    @ .   .      @  .  ...     @   @@@@@@@@    .. ...  @",
"+OO+@  ..  @@   ........     .  ..   @@@@@   @@     @ ..XXXX.. @",
"+@@@@            ....XXX..         @@@@ @@   @   @ @ ..    .   @",
"@@@@     @@@   ...   .....   @  @@@@@@@@     .@       ..XX.  @@@",
"@@  @           .....      @@+++O+O++@ @    .    @  . .....     ",
" ..    @  ...   ....  @@@        @@@+++ @    ..      .  .. ...  ",
".... ..  .. .. ..      +  .... ..    @@     ... @@@     @ @     ",
"  . .... .....@        @+@@     .. .         @.     .. .   @@@  ",
"@  ....X. ... .   @@@+OOOO+@   .....    @@@   @+@  @    .   @+@@",
"+ @@ ....        @@ ++O+O++@ @  ..   .  @@++@@@  @@@ ......  @@@",
"@@    . .       @@+++O@@ @           ... @@@@@@@ .... .....   @@",
"@@@+@@@  @@@ @@@ @@@@@@ @@@   ....X.    @@@+@@@   ..........   @",
"@@@@@@ @    @  .....        .  ...XXXX.  @@@+O@   .....X.  ..   ",
"@@@@@           .......     .  ...X.XX.. @ @+@@ @   ..... @@+   ",
"OO++@@  .            ...       ..........@ @@@@  . .@@@  @+OO+++",
"O+@  ......            ..  ++@ @.    .   @ @     .....  @@+OO+Oo",
"O+   ......                +@@  ....           .....XX.  @@@+OO+",
"@@@  ..      .  @@@  ...   @@@ ....... @       .....XX... @@@@O+",
"@@@@           ...        @++O@  ...     .....   ...X.....   ++@",
"@    @  @@@   .....     .   @++@@        .....   . .....        ",
"       @+@   ........       @@+O+@+@@      ..         . .      .",
".     @    @@@ .....         @@+@@@@    @@ @  @@      ....    ..",
" .        ...@@@      @@      @ @      ..... @@@+@@  . ..   ... ",
"   ...... ....  @        @@@      . ..... .... @@@@+@@@@@     ..",
". .. ......  . .@@@    @ @           ..... ..  @@@++OOO+@@@@    ",
"  . ......XX  .       @ @          @   ..      @@@@@@@@@@@@@@@ @",
"@@@@  ........ @@@     @@   .   .  @@@@@  ... .  @@ @  .  .    @",
" @@@   .....   @  @    @@   ..   @@@@@@@@@   @ @@@ @@ .......   ",
"   .    ...          @@@@    .  @@@@+@@@@      @    .  .X...    ",
"    ...  ..... ..   @@@@ @ @  @     @@@@@@ @   @@@  ....        ",
"@   .....  .  . .   @@@@++@@ +@ ..    @@++++@@  @@@        @@@@@",
"+@@@  ...     @ @@@@++++@+@@  ..  ...... @@+++@@     ......   @@",
"@++@@@ @    @@     @@+@@ @     ... .....  @@+@@@   .. .XX.... @@",
"++++@@@  @@@@@        .     @  .... .  .   @@@@  . . ...XXX...@@",
"+@@@@          @     . ...  @ ......         @   ...XX.    .  @@",
"@@@@     @@@   . . @  ....   @   ...             ...XXXX...  +@@",
"@@@@@     @    ......      @@O+@@@@  ..      @     ...XX.     @ ",
"       @  ...   ....  @@@              .        @    . .. @     ",
"     ...... ... .      @  .......... ..X.       @@        +@@  @",
"@@   ......X..         @@@     ..... .... .. +         .  @@++@ ",
"++@    ...XXX..  @@+++O+++@@   ..... ....     @+     @   @@++++@",
"+@@@ ..........  @@@++O@@@@@@@@@     . .  @@@@    @ ..   @@++@@@",
"@@    . .....     @+@+  ...@@@ @  @  .   @@  ........ ..  @+@@@+",
"@@@            @ @@@@ @ ..  @        @@@@@@@  ....XXX.... @@@@@@",
"@@    .    .          .  . @ @  ...... @@@ @ @ ...XXXX...@@@@@@@",
"@@  ..........                 .........  .       ....... +OO+@@",
"OO@@    ......       ...   @@@ .......          .... @@  @OooOOO",
"+@@  .......     @         OOO @.     @      .......... @@OoOOOO",
"+@   ......         @      O++ @....      . ......XXX.... @++OO+",
"@@@@                  .  @ @+@@ . ...  @ .....XXX........ @@@@++",
"   @@@         .....       @++@@   .   @ ......... .....  @   @ ",
"...  @+@@@@   ...XX...XXX... @@@@@@   @@   .......@   . @@   ..."
};
