/* XPM */
static char *loading[] = {
/* columns rows colors chars-per-pixel */
"66 21 19 1 ",
"  c black",
". c gray3",
"X c #101010",
"o c #181818",
"O c gray13",
"+ c #313131",
"@ c #393939",
"# c #184210",
"$ c #215218",
"% c #296321",
"& c #316B29",
"* c #397B29",
"= c #428C31",
"- c #4A9C39",
"; c #52AD42",
": c #5ABD4A",
"> c #5ACE52",
", c #63DE5A",
"< c None",
/* pixels */
"OooOOOOoooOOoooOOOOooooOOoOOoooOOOOooooOOooooOoOOOOOOOOOOOOOOOOO<<",
"o@@+@@@@@+@@++@+@@@@@@+@@+@@++@+@@@@@@+@@++@++@@@@@@@++@@@+@@@@o<<",
"O@ooooXXXooXXooXoXoXXooXooooooXXoXXXXoooXoXXoooXooXoXoXooooXoo X<<",
"o@XXXooooooXoXXooXoooXXXXXXoooooXoXXoXXXXXooXoooooooXXXoooooXXXX<<",
"o@Xo    oXX   XXX   o     o     oo    X   oooXoXoXXoXooooXoXXoXo<<",
"o@oo ,, oX ,,, o ,,,  ,,,,  ,, , o ,,  ,,, XXooooXooooXoXooXoo.X<<",
"O@oX >> X :>:>> >>>>> >>>:> >> >>  >> :>>>> ooXXooXXoooooXXXoX.X<<",
"o@Xo :: X :: ;; :: :; :: :: :: ::: ;: :: ;; ooXoXXXoooXooXooXo.o<<",
"O@oo -; o -; ;- ;; -; ;- ;; -; ;;-;;; -;    XoXXXoXXXXXXoooooo.o<<",
"o@oX -- o -= -= --=-- -- =- =- -=--=- -= XoXoooXXXXXXooXoXXXoX.X<<",
"o@oX =* X =* ** *=**= == =* =* *==*=* =*     XXoXXoooXoXXXXXoX X<<",
"O+oX && o &* ** && *& *& && &* **&&&& &* &*& oXooXXXXoXooooooXXo<<",
"O+oX %%   %% %% &% %% &% %% %& %& %&% &% %%  o    X    X    oXXX<<",
"o@oX $$$% $$$$% %$ $$ %$$%$ $$ %$  $% $%$$$ XX $$ X $$ X $$ oXXo<<",
"o+oX ####  #$#  ## ## ####  ## ## X #  ### Xoo ## X #$ o ## oXXo<<",
"o+Xo      o   X           X       oX  o   ooXX    o    o    XoXo<<",
"o@XXooXooXoXoXoXooooXXXXXXXXXoooooXooooooXXXoXXXXoXooXXXXoXXXX.X<<",
"O@oooXooooXooXoXooXoooooXooXooooooXooXXXoXoXoooooXooXXooXXXXoo.o<<",
"O@.. ......................................................... o<<",
"oXXXXoXooXXoXXoooXXoXXXooXXoXXoooXXoXXooXXoXXoooooooooXXXoXXXXoX<<",
"<<<<<<<<<<<<<<<<<<<<<<<<<<<<<<<<<<<<<<<<<<<<<<<<<<<<<<<<<<<<<<<<<<"
};
