/* XPM */
static char *m_option[] = {
/* columns rows colors chars-per-pixel */
"76 16 14 1 ",
"  c black",
". c #100000",
"X c #181818",
"o c #210000",
"O c #310808",
"+ c #420000",
"@ c #4A0808",
"# c #630808",
"$ c #6B0808",
"% c #730808",
"& c #840808",
"* c #8C1010",
"= c #9C1010",
"- c None",
/* pixels */
"---       ------------------------------------------------------------------",
"-- +++++++ -----------------------------------------------------------------",
"- +@@++@@++ ----------------------------------------------------------------",
" @#@@@@@@@@@          --                --       ---- -----     --         -",
" #@##   #@#@  ++++++++ - +++++++++  +++ - +++++++ -- + ---- +++ - ++++++++ X",
" ### XXX ###  @@@+@@@@+  +@+@@@++@  ++@  @+@@@+@@+  @+@ --- ++@  +@@@+@@+@ X",
" ##$ X-- $$# -      #@@     #@@     @@#  #@@   @@#  #@@@ -- ##@  @#@       X",
".$%$.X--.%$$.-      ### -XX ### XXX ###  ### X ###  ####$ - ###  ###      XX",
"o%%%oX--o$%%o $$$#$$$$$ --- $## X-- $#$  $$# X $$#  $$$#$$  $$#  $$$$#$$$$ -",
"o%%%oX--o%%&oo$%$$%$%%oX---o%%%oX--o%%$oo$%$oXo$$%oo%%$%$$$o%%$o-o$%%$$%%$%o",
"O&&&&OOO&&&%Oo%%%oooooXX---o%%%oX--o%%%oo%%%oXo%%%oo%%%o&%%%%%&o--oooooo%%%o",
"o*&&&*&&**&&oO&&&OXXXXX----O&&%OX--O&&%OO&&&OOO&&&OO&&%OO&&&&&&OOOOOOOOO&&&O",
"-o****&****oXo&*&oX--------o*&*oX--o**&oo****&***&oo&&*oXo*&***oo*&***&****o",
"--.====***.XX.==*.X--------.=**.X--.***.-.*==****.X.**=.X-.***.X.******==*.X",
"---       XX-     X--------     X--     --       XX     X--   XX          XX",
"----XXXXXXX---XXXXX---------XXXXX---XXXX---XXXXXXX--XXXXX---XXX--XXXXXXXXXX-"
};
