/* XPM */
static char *m_skull2[] = {
/* columns rows colors chars-per-pixel */
"16 18 32 1 ",
"  c black",
". c #180000",
"X c #100808",
"o c #210000",
"O c #310000",
"+ c #390000",
"@ c #211008",
"# c #312910",
"$ c #392910",
"% c #181821",
"& c #423118",
"* c #4A3118",
"= c #523918",
"- c #5A4221",
"; c #6B4221",
": c #6B4A21",
"> c #734A29",
", c #7B5229",
"< c #524A42",
"1 c #845231",
"2 c #8C5A31",
"3 c #946339",
"4 c #9C6B39",
"5 c #A56B42",
"6 c #AD6B42",
"7 c #BD734A",
"8 c #C67B4A",
"9 c #CE7B52",
"0 c #D6845A",
"q c #DE8C63",
"w c #E7946B",
"e c #EF9C6B",
/* pixels */
"     700007     ",
"   480eeew075   ",
"  460weeeeq965  ",
"  580qqwwqq084  ",
"  466457644653  ",
"  51=  >>  =152 ",
" 11.   22   .1> ",
" ;*..o.>>.o..*> ",
",>-.oO>XX>o+.-,2",
">24792=XX=27742>",
";,,;=$$XX$$=;,,;",
"<***$;;22;;$$$*<",
" $ X#,6886,#X $ ",
" &XX$-$##$-$XX& ",
" <X*=;3993;=*X< ",
" <>-->1111>-->< ",
" <-=#X     #=-< ",
"  :%@@@@@@@@%:  "
};
