/* XPM */
static char *newskulc[] = {
"50 59 185 2 ",
"   c #060402",
".  c #0A0703",
"X  c #0D0904",
"o  c #150E07",
"O  c #180F07",
"+  c #171007",
"@  c #181007",
"#  c #171008",
"$  c #1C1309",
"%  c #3E0100",
"&  c #20160C",
"*  c #251A0D",
"=  c #291D0E",
"-  c #2A1E10",
";  c #2B200F",
":  c #2E2211",
">  c #332613",
",  c #362914",
"<  c #3C2D16",
"1  c #3C2C19",
"2  c #3F3017",
"3  c #3F3018",
"4  c #430301",
"5  c #4B0101",
"6  c #440C06",
"7  c #4D0E08",
"8  c #540100",
"9  c #5C0201",
"0  c #4C130A",
"q  c #481E0F",
"w  c #441108",
"e  c #55150C",
"r  c #5A140B",
"t  c #5C190E",
"y  c #5D1D10",
"u  c #630101",
"i  c #6C0000",
"p  c #6B0A06",
"a  c #740100",
"s  c #790201",
"d  c #63150C",
"f  c #6B1009",
"g  c #64190E",
"h  c #621D10",
"j  c #681E11",
"k  c #4D2311",
"l  c #452814",
"z  c #432F1D",
"x  c #542B16",
"c  c #592715",
"v  c #403017",
"b  c #443319",
"n  c #4B351C",
"m  c #4D391D",
"M  c #50331B",
"N  c #533B1E",
"B  c #5B3B1F",
"V  c #612816",
"C  c #622D19",
"Z  c #6A2C19",
"A  c #7B2816",
"S  c #782D1A",
"D  c #62331B",
"F  c #6B341D",
"G  c #65391F",
"H  c #72341E",
"J  c #7D321C",
"K  c #453321",
"L  c #4D3A29",
"P  c #483626",
"I  c #553E21",
"U  c #5B3E21",
"Y  c #523F2E",
"T  c #523F30",
"R  c #613D21",
"E  c #723B21",
"W  c #574022",
"Q  c #5C4123",
"!  c #55402C",
"~  c #5C452B",
"^  c #554131",
"/  c #5B4632",
"(  c #5E4933",
")  c #5F4B38",
"_  c #634425",
"`  c #694626",
"'  c #664827",
"]  c #6A4827",
"[  c #654629",
"{  c #6B4729",
"}  c #65482C",
"|  c #6D4A29",
" . c #754326",
".. c #7C4326",
"X. c #734C2B",
"o. c #794E2C",
"O. c #714728",
"+. c #76522E",
"@. c #7C522E",
"#. c #604933",
"$. c #604C38",
"%. c #7D5530",
"&. c #830503",
"*. c #8A0301",
"=. c #950201",
"-. c #A30402",
";. c #A80000",
":. c #BE0503",
">. c #A01A0F",
",. c #A01B10",
"<. c #8E2315",
"1. c #832718",
"2. c #9A2214",
"3. c #A82416",
"4. c #B42817",
"5. c #B32416",
"6. c #AC361E",
"7. c #863820",
"8. c #C50603",
"9. c #DE0805",
"0. c #D60F09",
"q. c #D61009",
"w. c #CA1E12",
"e. c #D81E11",
"r. c #CC2314",
"t. c #D22515",
"y. c #8E4325",
"u. c #834529",
"i. c #83492B",
"p. c #834427",
"a. c #82522F",
"s. c #8A502F",
"d. c #835531",
"f. c #865933",
"g. c #8B5C35",
"h. c #885431",
"j. c #925B36",
"k. c #9B5A35",
"l. c #925F38",
"z. c #9C5A35",
"x. c #AE4227",
"c. c #BA4429",
"v. c #BE4A2D",
"b. c #A25432",
"n. c #AD5433",
"m. c #B35333",
"M. c #BC5434",
"N. c #8E6037",
"B. c #8E6138",
"V. c #946239",
"C. c #9B653C",
"Z. c #9E683E",
"A. c #906037",
"S. c #A1673E",
"D. c #A2693F",
"F. c #A8643C",
"G. c #B1693F",
"H. c #C14C2F",
"J. c #A56C41",
"K. c #AA6E42",
"L. c #B36D42",
"P. c #AE7044",
"I. c #B37346",
"U. c #BC7247",
"Y. c #B67548",
"T. c #B97749",
"R. c #BC7A4C",
"E. c #C07549",
"W. c #C37C4D",
"Q. c #C87F4F",
"!. c #C77F50",
"~. c #C78051",
"^. c #CC8354",
"/. c #D18757",
"(. c #D48A5B",
"). c #D98E5E",
"_. c #DB905F",
"`. c #DC9161",
"'. c #E29566",
"]. c #E69969",
"[. c #EA9E6D",
"{. c #ECA06F",
"}. c #EEA272",
"|. c #F0A474",
" X c None",
/* pixels */
" X X X X X X X X X X X X X X X X X X X X X X X X X X X X X X X X X X X X X X X X X X X X X X X X X X",
" X X X X X X X X X X X X X X X X X X X X X X X X X X X X X X X X X X X X X X X X X X X X X X X X X X",
" X X X X X X X X X X X X X X X X X X X X X X X X X X X X X X X X X X X X X X X X X X X X X X X X X X",
" X X X X X X X X X X X X X X X X XW.W.^./.(.).(.(.(.(.).(.(.^.W.R. X X X X X X X X X X X X X X X X X",
" X X X X X X X X X X X X X X X X XW.~./.(.).).).).).).).).(.^.~.R. X X X X X X X X X X X X X X X X X",
" X X X X X X X X X X X X X X X XW.Q.^.(.`.].].'.'.'.'.].'.).(.^.^.~. X X X X X X X X X X X X X X X X",
" X X X X X X X X X X XJ.J.I.R.Q././.(.'.].[.[.[.[.[.[.].].'._.(./.~.W.T.I.P.K. X X X X X X X X X X X",
" X X X X X X X X X X XJ.K.I.W.^.(.(.`.].}.|.|.|.|.}.|.[.[.].].)./.^.~.T.I.P.K. X X X X X X X X X X X",
" X X X X X X X X XJ.J.J.K.T.Q./.).`.`.[.}.|.|.|.|.|.|.|.{.[.].`.(./.~.W.Y.I.K.P.K. X X X X X X X X X",
" X X X X X X X XD.D.J.P.I.W.^.(.`.`.[.[.}.|.|.}.|.|.|.|.|.[.[.'.).(.^.Q.T.I.P.P.P.K. X X X X X X X X",
" X X X X X X X XJ.D.K.I.T.W./.).`.`.[.[.[.{.}.}.{.|.}.|.[.[.].'.`.).(.~.W.T.U.P.K.K. X X X X X X X X",
" X X X X X X X XK.K.P.Y.W.^./.).`.].].].].[.[.{.[.{.[.[.[.].].'.`._.(.^.~.W.U.P.K.J. X X X X X X X X",
" X X X X X X X XJ.P.I.T.W.^./.(.`.).`.`.`.`.].].].].].`.'.`.`.`.`.`././.^.Q.R.K.D.D. X X X X X X X X",
" X X X X X X X XJ.P.I.Y.W.~.^.^.(.(.(.(.(.(.`.`.`.`.`.`./././.(.(./.^.^.Q.W.I.K.D.C. X X X X X X X X",
" X X X X X X X XJ.J.P.I.T.T.W.W.R.R.Y.R.R.~.^.^.^.~.~.W.R.R.R.R.R.W.W.W.R.L.K.D.C.C. X X X X X X X X",
" X X X X X X X XJ.J.J.P.P.I.I.P.J.Z.Z.Z.J.P.P.Y.R.Y.P.P.Z.Z.C.C.S.J.K.I.K.K.J.D.Z.C. X X X X X X X X",
" X X X X X X X XJ.J.J.J.Z.Z.C.g.f.i.....p.s.j.J.Z.Z.C.j.i...E p.u.a.g.V.C.Z.S.S.D.C. X X X X X X X X",
" X X X X X X X XK.K.J.C.V.f.%.{ R c y t y F E h.g.g.d.E Z y y y V G | +.f.l.C.D.D.Z.V.V. X X X X X X",
" X X X X X X X XJ.J.C.j.%. .U M k w 4 4 4 e F o.%.%.X.D e 4 4 4 w k M _ O.a.j.C.D.C.B.g. X X X X X X",
" X X X X X X Xl.C.C.j.7.E C c q w 4 % % 4 0 Z o.f.f.o.F 0 4 % 4 4 6 q k V H p.j.C.V.g.f. X X X X X X",
" X X X X X Xf.g.l.g.i.S g r 7 6 4 4 4 4 4 e E o.g.g.a.F e 4 % 4 4 4 6 0 r g S i.f.f.d.@. X X X X X X",
" X X X X X Xd.d.%.o.E j 9 8 5 5 5 5 5 4 5 e E d.B.l.d.E e 5 4 5 5 5 5 5 8 9 j E o.@.+.X. X X X X X X",
" X X X X X X+.X.X.` D h 9 8 8 8 8 9 9 8 5 t E a.g.g.a.E r 5 8 9 9 8 8 8 9 9 t D ` X.X.o. X X X X X X",
" X X X X X XX.] R I x r 9 9 9 u i a a u 9 t Z X.%.%.O.E d 9 u a a a u 9 9 9 r c U ` | X. X X X X X X",
" X X X X XX.| ` Q N x e 9 u i s *.=.=.&.f h C R Q ~ G B g f s =.=.*.s i 9 9 7 k N _ X.+.d. X X X X X",
" X X X X%.+.X.` Q B x r u i s =.;.:.:.,.A c x l , < l x C A ,.8.:.;.*.s i u r c B _ X.%.f.g. X X X X",
" X X Xa.@.+.o.X.] _ B g p s &.=.8.9.q.4.7.R < = $ $ * < B 7.4.q.9.8.-.*.s p g B _ | +.d.g.g.g. X X X",
" X X X@.@.@.a.@.+.o.E J 1.<.3.4.r.e.r.6...W , $ o o $ , W ..6.t.t.r.4.2.<.J J ..+.+.d.d.f.g.g. X X X",
" X X X@.@.%.f.g.g.g.l.z.b.m.M.M.H.v.x.y.` M > $ o X # > m ` y.x.c.v.m.n.n.z.k.j.g.g.g.g.f.d.@. X X X",
" X X XX.@.d.f.N.V.C.D.K.L.T.T.T.K.b.a.| Q b ; $ o # # ; b Q X.s.k.S.G.G.G.G.G.S.Z.V.N.g.d.@.+. X X X",
" X X XX.X.a.f.N.V.V.C.J.J.K.J.J.B.%.| Q m 2 * # X o # ; 2 m Q | %.N.V.D.D.D.D.Z.V.V.N.f.@.X.X. X X X",
" X X X| X.+.d.f.f.g.g.g.f.%.%.+.' Q N m b , * # o o $ * < b m m W ' +.+.d.f.g.g.g.f.f.a.o.X.|  X X X",
" X X X{ | X.o.@.@.@.o.O.| _ Q N m n b b b 2 - = & $ * > < b b n n m B W _ ] X.o.o.@.@.o.X.| ]  X X X",
" X X X} ' ' ] ` ` ` _ _ U N m m m m m M N n n b b x x b m P n N n n n m m W Q Q _ ' ' ` ' ' }  X X X",
" X X X#.( ~ Q W B B W N m m b b M Q _ _ _ _ | X.X.X.X.] _ R U _ Q m b 2 b b m m m m B U ~ #.$. X X X",
" X X X) / ! m b v v 2 v b 2 2 b M _ | X.X.@.g.C.C.C.V.g.d.o.X.{ _ N 2 2 < , , , , v b m ! ( $. X X X",
" X X X X/ Y b 2 : ; ; ; : : , 2 N ' o.f.l.C.D.I.Y.Y.I.K.C.j.h.%.] m 2 , : ; * $ * : < b N /  X X X X",
" X X X X Xn b , * X X + $ ; : 2 B | a.V.D.P.T.R.W.R.R.Y.K.J.l.d.| N 2 : ; $ o X o * > b n  X X X X X",
" X X X X X X2 > $ X . X $ $ : 2 N | @.f.V.C.D.G.K.K.J.C.C.V.g.%.| N 2 : $ # X   . $ > 3  X X X X X X",
" X X X X X X2 > $ + X X @ $ ; 2 m ' | X.X.X.X.+.X.X.+.+.+.X.X.| _ N 2 ; $ + X X o * , b  X X X X X X",
" X X X X X Xb 1 : $ o o # * > b m Q Q I I M P P n m m n m B I _ I N b > * $ o o # ; 1 b  X X X X X X",
" X X X X X XK 1 ; $ # $ * > < b B Q Q _ I I I U Q Q Q I I I U ~ U B b < > * $ # $ : 1 K  X X X X X X",
" X X X X X XL K : $ $ : > 2 b m B _ ] X.X.@.h.V.V.V.V.g.a.X.{ { _ B m b < , = $ # : K L  X X X X X X",
" X X X X X XT P , * = , b m N I I ' X.@.g.J.I.T.R.W.T.P.C.l.@.X.' Q I N m b , = * , P T  X X X X X X",
" X X X X X XT L b , < n N B W W _ | X.h.k.J.P.Y.W.R.T.I.J.l.h.o.| ' Q B B N b < 1 K L T  X X X X X X",
" X X X X X X^ Y U B U Q U Q Q Q [ X.@.d.g.V.C.J.J.S.J.C.l.j.h.@.O.' Q W Q B B Q I U Y T  X X X X X X",
" X X X X X XT ~ #.| ] ' Q U W Q R ] O.X.o.@.@.a.@.a.o.%.o.o.X.{ _ ~ Q Q Q ~ [ | { } ^ T  X X X X X X",
" X X X X X X^ / } X.] ' Q W W m M I P M M n n M n z M M n n M n b m m B I Q _ | | } / /  X X X X X X",
" X X X X X X) / } ' Q Q W m b 2 > : ; * $ & $ $ $ & & & & & # # * : 2 b m W Q ~ ' } ( )  X X X X X X",
" X X X X X X$.( ~ ~ Q N m b 2 : ; $ + X                         X $ : , b m N Q Q ~ ( )  X X X X X X",
" X X X X X X X( ~ W N b 2 > ; ; $ @ + X                         X # * : : 2 b N W Q (  X X X X X X X",
" X X X X X X X XW N m < ; $ $ $ @ @ + X o X o + o X o o o X o o # # $ $ $ : , m W Q  X X X X X X X X",
" X X X X X X X X XB b > & # # @ o o o O # o o # @ o @ # @ @ o # + o + $ $ ; : b W  X X X X X X X X X",
" X X X X X X X X X X X X XO O o O o O @ # # # # @ o @ @ @ @ @ @ + # # # $  X X X X X X X X X X X X X",
" X X X X X X X X X X X X X XO O @ O O o o o + o @ # o # @ o @ @ + o + #  X X X X X X X X X X X X X X",
" X X X X X X X X X X X X X XO o o O O O @ + + + o @ @ @ @ @ o O # o + $  X X X X X X X X X X X X X X",
" X X X X X X X X X X X X X X X X X X X X X X X X X X X X X X X X X X X X X X X X X X X X X X X X X X",
" X X X X X X X X X X X X X X X X X X X X X X X X X X X X X X X X X X X X X X X X X X X X X X X X X X",
" X X X X X X X X X X X X X X X X X X X X X X X X X X X X X X X X X X X X X X X X X X X X X X X X X X"};
