/* XPM */
static char *newskula[] = {
/* columns rows colors chars-per-pixel */
"50 59 165 2 ",
"   c #060402",
".  c #080502",
"X  c #0E0904",
"o  c #150E07",
"O  c #180F07",
"+  c #171007",
"@  c #181007",
"#  c #171108",
"$  c #1C140A",
"%  c #20160B",
"&  c #241B0D",
"*  c #291E0E",
"=  c #251A10",
"-  c #2A1E10",
";  c #2B210F",
":  c #2E2211",
">  c #332613",
",  c #352814",
"<  c #3B2C16",
"1  c #3C2C19",
"2  c #440201",
"3  c #4A0201",
"4  c #4E0905",
"5  c #540100",
"6  c #5A0101",
"7  c #550E07",
"8  c #5F0B06",
"9  c #4B1209",
"0  c #4E1F0F",
"q  c #55150B",
"w  c #5D130B",
"e  c #5D1A0E",
"r  c #5C1D10",
"t  c #640201",
"y  c #6C0402",
"u  c #600B06",
"i  c #720503",
"p  c #63120A",
"a  c #671A0F",
"s  c #731109",
"d  c #70180E",
"f  c #631E11",
"g  c #7D1E12",
"h  c #4E2110",
"j  c #412C16",
"k  c #432F1E",
"l  c #562513",
"z  c #5A2513",
"x  c #532A16",
"c  c #5F2816",
"v  c #403017",
"b  c #44331A",
"n  c #4C351C",
"m  c #4E391D",
"M  c #51361C",
"N  c #5E321A",
"B  c #523B1E",
"V  c #5C3B1F",
"C  c #602615",
"Z  c #6D2716",
"A  c #652A17",
"S  c #622D19",
"D  c #692B18",
"F  c #7C2516",
"G  c #782917",
"H  c #7A2718",
"J  c #742E1B",
"K  c #65331C",
"L  c #6B341D",
"P  c #63391F",
"I  c #74351E",
"U  c #433222",
"Y  c #483624",
"T  c #4E3A22",
"R  c #4D3A29",
"E  c #563E21",
"W  c #5A3E21",
"Q  c #523F2D",
"!  c #523F30",
"~  c #613E21",
"^  c #733C21",
"/  c #574021",
"(  c #5C4222",
")  c #55402C",
"_  c #5B442B",
"`  c #544030",
"'  c #5A4532",
"]  c #5E4833",
"[  c #5F4B38",
"{  c #634424",
"}  c #6A4626",
"|  c #674826",
" . c #6A4827",
".. c #62472B",
"X. c #66482C",
"o. c #6C4A29",
"O. c #734426",
"+. c #7D4126",
"@. c #714927",
"#. c #714728",
"$. c #7D4528",
"%. c #734D2B",
"&. c #7A4F2C",
"*. c #77502D",
"=. c #7C522E",
"-. c #614932",
";. c #604C38",
":. c #745230",
">. c #7E5530",
",. c #822215",
"<. c #842518",
"1. c #824226",
"2. c #834629",
"3. c #8E4428",
"4. c #834B2B",
"5. c #8A4F2E",
"6. c #9A4B2E",
"7. c #81532F",
"8. c #9F4D30",
"9. c #835531",
"0. c #855933",
"q. c #8B5C35",
"w. c #945734",
"e. c #9E5232",
"r. c #935B36",
"t. c #985935",
"y. c #935F38",
"u. c #A25333",
"i. c #AA5636",
"p. c #8E6037",
"a. c #8E6038",
"s. c #906037",
"d. c #946239",
"f. c #9C653C",
"g. c #9E683E",
"h. c #A1663D",
"j. c #A2693F",
"k. c #A9683F",
"l. c #A56C41",
"z. c #AA6E42",
"x. c #B26F44",
"c. c #AE7044",
"v. c #B37246",
"b. c #B97347",
"n. c #B67648",
"m. c #BA7649",
"M. c #BC794B",
"N. c #C37C4D",
"B. c #C87F4F",
"V. c #C47F50",
"C. c #C78151",
"Z. c #CC8353",
"A. c #CF8959",
"S. c #D18656",
"D. c #D08758",
"F. c #D48A5B",
"G. c #D98E5E",
"H. c #DC9161",
"J. c #E29666",
"K. c #E69A6A",
"L. c #EA9E6D",
"P. c #ECA06F",
"I. c #EEA272",
"U. c #F0A474",
"Y. c None",
/* pixels */
"Y.Y.Y.Y.Y.Y.Y.Y.Y.Y.Y.Y.Y.Y.Y.Y.Y.Y.Y.Y.Y.Y.Y.Y.Y.Y.Y.Y.Y.Y.Y.Y.Y.Y.Y.Y.Y.Y.Y.Y.Y.Y.Y.Y.Y.Y.Y.Y.Y.Y.",
"Y.Y.Y.Y.Y.Y.Y.Y.Y.Y.Y.Y.Y.Y.Y.Y.Y.Y.Y.Y.Y.Y.Y.Y.Y.Y.Y.Y.Y.Y.Y.Y.Y.Y.Y.Y.Y.Y.Y.Y.Y.Y.Y.Y.Y.Y.Y.Y.Y.Y.",
"Y.Y.Y.Y.Y.Y.Y.Y.Y.Y.Y.Y.Y.Y.Y.Y.Y.Y.Y.Y.Y.Y.Y.Y.Y.Y.Y.Y.Y.Y.Y.Y.Y.Y.Y.Y.Y.Y.Y.Y.Y.Y.Y.Y.Y.Y.Y.Y.Y.Y.",
"Y.Y.Y.Y.Y.Y.Y.Y.Y.Y.Y.Y.Y.Y.Y.Y.Y.N.N.C.S.F.F.G.F.G.F.F.G.D.Z.N.N.Y.Y.Y.Y.Y.Y.Y.Y.Y.Y.Y.Y.Y.Y.Y.Y.Y.",
"Y.Y.Y.Y.Y.Y.Y.Y.Y.Y.Y.Y.Y.Y.Y.Y.Y.N.C.D.F.H.G.G.G.G.G.G.G.F.S.C.N.Y.Y.Y.Y.Y.Y.Y.Y.Y.Y.Y.Y.Y.Y.Y.Y.Y.",
"Y.Y.Y.Y.Y.Y.Y.Y.Y.Y.Y.Y.Y.Y.Y.Y.B.C.Z.F.H.J.J.J.J.J.J.J.H.G.F.Z.C.C.Y.Y.Y.Y.Y.Y.Y.Y.Y.Y.Y.Y.Y.Y.Y.Y.",
"Y.Y.Y.Y.Y.Y.Y.Y.Y.Y.Y.l.l.v.N.B.S.Z.G.J.K.L.L.L.L.L.L.L.K.J.G.G.S.C.N.m.v.c.z.Y.Y.Y.Y.Y.Y.Y.Y.Y.Y.Y.",
"Y.Y.Y.Y.Y.Y.Y.Y.Y.Y.Y.l.z.v.N.C.S.G.H.K.I.U.U.U.U.U.U.P.L.K.J.G.D.C.C.m.v.c.c.Y.Y.Y.Y.Y.Y.Y.Y.Y.Y.Y.",
"Y.Y.Y.Y.Y.Y.Y.Y.Y.j.l.z.v.b.N.S.G.H.H.L.I.U.U.U.U.U.U.U.P.L.K.J.F.S.C.N.b.x.c.c.c.Y.Y.Y.Y.Y.Y.Y.Y.Y.",
"Y.Y.Y.Y.Y.Y.Y.Y.j.l.l.z.v.M.Z.F.H.H.L.L.I.U.U.I.U.U.U.U.U.L.J.J.G.F.S.N.M.v.c.c.z.c.Y.Y.Y.Y.Y.Y.Y.Y.",
"Y.Y.Y.Y.Y.Y.Y.Y.j.l.c.v.m.B.S.G.H.K.L.L.I.I.I.I.P.U.P.U.I.P.K.J.H.G.S.C.N.m.v.c.c.l.Y.Y.Y.Y.Y.Y.Y.Y.",
"Y.Y.Y.Y.Y.Y.Y.Y.z.z.c.n.N.C.S.G.H.H.K.K.K.K.L.I.L.P.L.L.L.K.J.J.H.G.F.S.C.N.b.c.l.l.Y.Y.Y.Y.Y.Y.Y.Y.",
"Y.Y.Y.Y.Y.Y.Y.Y.z.z.v.m.N.Z.F.F.H.H.H.H.H.H.H.P.K.K.K.H.J.H.H.H.H.F.F.S.Z.B.m.z.j.j.Y.Y.Y.Y.Y.Y.Y.Y.",
"Y.Y.Y.Y.Y.Y.Y.Y.l.z.v.m.N.C.Z.Z.A.A.A.A.A.G.H.H.H.H.H.H.D.D.D.D.D.D.D.Z.B.N.b.z.j.g.Y.Y.Y.Y.Y.Y.Y.Y.",
"Y.Y.Y.Y.Y.Y.Y.Y.l.l.c.v.M.M.N.N.M.m.M.M.M.C.V.A.Z.Z.C.V.M.M.M.M.M.N.N.M.m.b.z.j.f.f.Y.Y.Y.Y.Y.Y.Y.Y.",
"Y.Y.Y.Y.Y.Y.Y.Y.l.l.l.c.v.v.c.z.z.l.g.l.l.z.c.n.M.v.c.z.l.g.f.j.h.z.c.c.c.z.l.j.f.f.Y.Y.Y.Y.Y.Y.Y.Y.",
"Y.Y.Y.Y.Y.Y.Y.Y.z.l.l.l.l.g.f.q.9.2.+.+.1.5.y.l.l.f.y.r.4.+.+.+.4.7.q.d.f.g.h.j.j.g.Y.Y.Y.Y.Y.Y.Y.Y.",
"Y.Y.Y.Y.Y.Y.Y.Y.z.l.l.f.d.0.*.o.~ c e r z D ^ 0.q.q.9.^ D r e r c ~ o.*.0.s.f.j.l.f.d.a.Y.Y.Y.Y.Y.Y.",
"Y.Y.Y.Y.Y.Y.Y.Y.l.l.f.w.4.o.~ M h 9 2 2 3 q L %.>.>.%.L w 5 2 2 9 h M ~ #.4.r.f.j.f.d.q.Y.Y.Y.Y.Y.Y.",
"Y.Y.Y.Y.Y.Y.Y.d.g.f.w.2.I D z 0 9 2 2 2 2 9 K &.9.0.&.K 7 % 2 2 2 4 0 l A I 1.r.d.d.q.0.Y.Y.Y.Y.Y.Y.",
"Y.Y.Y.Y.Y.Y.q.0.q.q.2.J p w 7 4 4 2 2 2 2 q L 9.p.p.9.L q 2 2 3 3 4 7 7 7 a J 4.q.q.9.=.Y.Y.Y.Y.Y.Y.",
"Y.Y.Y.Y.Y.Y.9.9.>.=.^ f 8 6 5 3 5 5 5 3 3 q I 9.p.s.0.L q 3 2 5 5 5 3 5 5 8 a ^ =.*.=.*.Y.Y.Y.Y.Y.Y.",
"Y.Y.Y.Y.Y.Y.*.*.@.} K a 6 5 5 6 5 5 6 5 5 w ^ 7.q.q.7.I w 5 5 6 5 5 5 5 6 6 w K o.o.@.%.Y.Y.Y.Y.Y.Y.",
"Y.Y.Y.Y.Y.Y.@.o.( W x q 6 6 6 6 6 t t 6 6 w L %.=.=.%.L w 5 6 t t t 6 6 6 6 w x V { @.*.Y.Y.Y.Y.Y.Y.",
"Y.Y.Y.Y.Y.&.o.{ ( B x q 6 6 6 6 t t y t p f D P ( { ~ D C u t y t t t 6 6 5 q x B { @.=.>.Y.Y.Y.Y.Y.",
"Y.Y.Y.Y.=.*.@.o.{ B x q 6 6 6 t t y y d Z N x j < < j x S Z d y y t t 6 6 6 q x E | @.=.0.q.Y.Y.Y.Y.",
"Y.Y.Y.9.=.*.&.@.o.( N e 8 t t y i y s G I V j * $ $ * j V ^ G s i y y t t 8 e N { o.*.9.q.q.p.Y.Y.Y.",
"Y.Y.Y.=.=.=.>.>.*.&.O.I G ,.<.<.,.,.F I } ( , $ o X $ , W #.I G g F ,.,.F H I O.*.=.9.0.0.0.q.Y.Y.Y.",
"Y.Y.Y.=.=.7.0.q.q.q.r.w.e.u.i.i.6.3.1.O.{ m > $ o X $ > M { O.1.3.6.u.u.u.8.t.r.p.q.q.0.0.7.9.Y.Y.Y.",
"Y.Y.Y.*.=.9.0.p.d.f.j.z.v.b.M.n.k.r.4.o.( b ; @ o o $ ; b W o.7.q.j.k.v.x.x.z.j.f.d.p.q.9.*.*.Y.Y.Y.",
"Y.Y.Y.@.&.=.q.q.d.f.g.j.l.z.z.g.s.0.o.( B < * @ X o $ * < m { o.=.p.g.j.j.j.j.f.d.s.p.0.7.*.@.Y.Y.Y.",
"Y.Y.Y.o.&.*.7.0.0.q.0.0.0.0.>.*.o.( E m b , & + o X # * < b m B ( { *.*.0.0.q.q.q.q.0.7.*.*.o.Y.Y.Y.",
"Y.Y.Y.o.o.@.*.*.=.=.*.@. .| ( E B n b b b , > & % % * : 1 j n b n m E ( { | %.*.*.=.=.*.@.o. .Y.Y.Y.",
"Y.Y.Y.X.| | o.o.o.o.{ { W B n n n n M m E M x b b k b x m m m m n m b n B / / { { |  . .| X.X.Y.Y.Y.",
"Y.Y.Y.-.] _ ( ( B B V E B m b b B W ( ~ ( { } %.%.%.%.} { ( _ ( / m b b < b b m M B / W _ ] -.Y.Y.Y.",
"Y.Y.Y.;.] ) m b b v < b < b < b B { @.%.%.9.q.y.f.f.d.r.4.&.%.#.| B b < < < < , , < b m ) ] ;.Y.Y.Y.",
"Y.Y.Y.Y.' R b < ; ; ; ; > > , < B } *.q.y.h.z.x.m.v.z.z.f.r.0.=.o.m < , > ; ; $ & : < b / ] Y.Y.Y.Y.",
"Y.Y.Y.Y.Y.b b > $ + X # $ ; : < B o.9.d.l.z.n.M.M.V.N.n.z.l.d.>.o.B < : ; $ # X + $ < b b Y.Y.Y.Y.Y.",
"Y.Y.Y.Y.Y.Y.b > $ X . X # # : < E } >.q.y.f.l.l.z.z.z.l.f.y.q.>.o.B < : $ # X . X $ > < Y.Y.Y.Y.Y.Y.",
"Y.Y.Y.Y.Y.Y.b > $ + X X + ; > < T { o.o.%.%.%.%.%.%.:.o.%.%.%.#.{ B < > $ # X X o & > b Y.Y.Y.Y.Y.Y.",
"Y.Y.Y.Y.Y.Y.b , ; $ + + # * > < m W { W E M m m m m m m m E W ~ W m b > & @ O O # ; 1 b Y.Y.Y.Y.Y.Y.",
"Y.Y.Y.Y.Y.Y.Y 1 : $ # $ & : < n E ( ( ( E E W Q W ( E ( E W ( { W B n , > & $ O $ : 1 U Y.Y.Y.Y.Y.Y.",
"Y.Y.Y.Y.Y.Y.R k : $ $ = > < b m W ( | #.%.>.q.y.d.d.y.q.9.%.#.X.{ W B b 1 > * $ $ : U R Y.Y.Y.Y.Y.Y.",
"Y.Y.Y.Y.Y.Y.Q Y , = ; , b m B / ( | @.7.r.g.c.m.V.M.M.z.h.q.=.#. .W B B m n > * & > Y ! Y.Y.Y.Y.Y.Y.",
"Y.Y.Y.Y.Y.Y.! Q b < < n E E / / { o.&.0.y.l.v.b.M.M.m.x.l.r.0.&.| { / W E B b 1 1 b R ` Y.Y.Y.Y.Y.Y.",
"Y.Y.Y.Y.Y.Y.! ` E W V W ( / ( ( } o.&.9.r.d.f.h.l.l.g.f.y.r.9.=.%. .( ( ( ( V W W Q Q ! Y.Y.Y.Y.Y.Y.",
"Y.Y.Y.Y.Y.Y.! _ ..o.o.| { / / ( { } #.$.&.=.4.=.=.4.=.=.=.&.%.#.o.{ ( / ( ( { o.#...` ` Y.Y.Y.Y.Y.Y.",
"Y.Y.Y.Y.Y.Y.' ] -.o.| | ( / E B m n T T n n Y M n n n n n n n U b b B E W { { o.o.X.] ' Y.Y.Y.Y.Y.Y.",
"Y.Y.Y.Y.Y.Y.] ] X.| { ( / B b < , : & & % $ $ % $ $ % % % % # $ * : < b m / ( | | _ ] ] Y.Y.Y.Y.Y.Y.",
"Y.Y.Y.Y.Y.Y.[ ] _ ( ( B m < < ; ; $ + X . .   .   . . .         X $ : < < m / / { _ -.] Y.Y.Y.Y.Y.Y.",
"Y.Y.Y.Y.Y.Y.Y.] _ E B b < : ; ; $ # + X     . . . .             X # & : > < b B / _ ] Y.Y.Y.Y.Y.Y.Y.",
"Y.Y.Y.Y.Y.Y.Y.Y.( E n < ; ; $ $ # # + o X o X o X o X o o X o o o # $ $ & ; < b / ( Y.Y.Y.Y.Y.Y.Y.Y.",
"Y.Y.Y.Y.Y.Y.Y.Y.Y.E b > % # # O O O O o + O O O O o o o o O O O + + # # # & > b / Y.Y.Y.Y.Y.Y.Y.Y.Y.",
"Y.Y.Y.Y.Y.Y.Y.Y.Y.Y.Y.Y.Y.# O O o o O O O O O O O O O # + + + O + + # # # Y.Y.Y.Y.Y.Y.Y.Y.Y.Y.Y.Y.Y.",
"Y.Y.Y.Y.Y.Y.Y.Y.Y.Y.Y.Y.Y.Y.O O O O O O O O O O O o O o O + O # + + # # Y.Y.Y.Y.Y.Y.Y.Y.Y.Y.Y.Y.Y.Y.",
"Y.Y.Y.Y.Y.Y.Y.Y.Y.Y.Y.Y.Y.Y.O O O O O O o O O O O O O O O O O O + + # # Y.Y.Y.Y.Y.Y.Y.Y.Y.Y.Y.Y.Y.Y.",
"Y.Y.Y.Y.Y.Y.Y.Y.Y.Y.Y.Y.Y.Y.Y.Y.Y.Y.Y.Y.Y.Y.Y.Y.Y.Y.Y.Y.Y.Y.Y.Y.Y.Y.Y.Y.Y.Y.Y.Y.Y.Y.Y.Y.Y.Y.Y.Y.Y.Y.",
"Y.Y.Y.Y.Y.Y.Y.Y.Y.Y.Y.Y.Y.Y.Y.Y.Y.Y.Y.Y.Y.Y.Y.Y.Y.Y.Y.Y.Y.Y.Y.Y.Y.Y.Y.Y.Y.Y.Y.Y.Y.Y.Y.Y.Y.Y.Y.Y.Y.Y.",
"Y.Y.Y.Y.Y.Y.Y.Y.Y.Y.Y.Y.Y.Y.Y.Y.Y.Y.Y.Y.Y.Y.Y.Y.Y.Y.Y.Y.Y.Y.Y.Y.Y.Y.Y.Y.Y.Y.Y.Y.Y.Y.Y.Y.Y.Y.Y.Y.Y.Y."
};
